<svg width="24" height="25" viewBox="0 0 24 25" fill="none" xmlns="http://www.w3.org/2000/svg">
<path d="M20.3479 7.75378L9.7479 18.3537C9.65402 18.4484 9.52622 18.5016 9.3929 18.5016C9.25958 18.5016 9.13178 18.4484 9.0379 18.3537L3.6479 12.9637C3.55324 12.8699 3.5 12.7421 3.5 12.6087C3.5 12.4754 3.55324 12.3476 3.6479 12.2537L4.3479 11.5537C4.44178 11.4591 4.56958 11.4058 4.7029 11.4058C4.83622 11.4058 4.96402 11.4591 5.0579 11.5537L9.3879 15.8837L18.9379 6.33378C19.1357 6.14199 19.4501 6.14199 19.6479 6.33378L20.3479 7.04378C20.4426 7.13766 20.4958 7.26546 20.4958 7.39878C20.4958 7.5321 20.4426 7.65989 20.3479 7.75378Z" fill="black"/>
</svg>
