<svg width="32" height="35" viewBox="0 0 32 35" fill="none" xmlns="http://www.w3.org/2000/svg">
<g clip-path="url(#clip0_364_725)">
<path d="M8.3335 13.0234H4.3335V9.02344" stroke="#DF803F" stroke-width="2" stroke-linecap="round" stroke-linejoin="round"/>
<path d="M12.4002 22.69C12.6668 23.8233 13.7335 24.69 15.0002 24.69H16.5335C18.2668 24.69 19.7335 23.29 19.7335 21.49C19.7335 19.7566 18.3335 18.29 16.5335 18.29H15.2002C13.6668 18.29 12.3335 17.0233 12.3335 15.4233C12.3335 13.89 13.6002 12.5566 15.2002 12.5566H16.4002C17.6002 12.5566 18.6668 13.4233 19.0002 14.5566" stroke="#DF803F" stroke-width="2" stroke-linecap="round"/>
<path d="M15.6665 11.0234V12.6901" stroke="#DF803F" stroke-width="2" stroke-linecap="round"/>
<path d="M15.6665 26.3563V24.8896" stroke="#DF803F" stroke-width="2" stroke-linecap="round"/>
<path d="M23.2002 28.6895C21.2668 30.0895 18.9335 30.9561 16.3335 31.0228" stroke="#DF803F" stroke-width="2" stroke-linecap="round" stroke-linejoin="round"/>
<path d="M5.06689 12.9564C7.13356 9.02311 11.2669 6.35645 16.0002 6.35645C22.8002 6.35645 28.3336 11.8898 28.3336 18.6898C28.3336 21.2898 27.5336 23.6231 26.2002 25.6231" stroke="#DF803F" stroke-width="2" stroke-linecap="round" stroke-linejoin="round"/>
<path d="M12.0665 31.4231C11.5332 31.2231 11.2665 30.6898 11.3998 30.1564C11.5998 29.6231 12.1332 29.3564 12.6665 29.4898C13.1998 29.6231 13.4665 30.2231 13.3332 30.7564C13.1998 31.2231 12.7998 31.4898 12.3998 31.4898C12.2665 31.4898 12.1998 31.4898 12.0665 31.4231ZM8.19984 29.4898C7.73317 29.1564 7.6665 28.5564 7.99984 28.0898C8.33317 27.6231 8.93317 27.5564 9.39984 27.8898C9.8665 28.2231 9.93317 28.8231 9.59984 29.2898C9.39984 29.5564 9.0665 29.6898 8.79984 29.6898C8.59984 29.6898 8.39984 29.6231 8.19984 29.4898ZM5.19984 26.4898C4.8665 26.0231 4.99984 25.4231 5.39984 25.0898C5.8665 24.7564 6.4665 24.8898 6.79984 25.2898C7.13317 25.7564 6.99984 26.3564 6.59984 26.6898C6.39984 26.8231 6.19984 26.8898 5.99984 26.8898C5.6665 26.8898 5.39984 26.7564 5.19984 26.4898ZM3.2665 22.6231C3.13317 22.0898 3.39984 21.5564 3.93317 21.3564C4.4665 21.1564 4.99984 21.4898 5.19984 22.0231C5.33317 22.5564 5.0665 23.0898 4.53317 23.2898C4.39984 23.2898 4.33317 23.3564 4.2665 23.3564C3.79984 23.3564 3.39984 23.0231 3.2665 22.6231ZM3.6665 19.3564C3.0665 19.3564 2.6665 18.8898 2.6665 18.3564C2.6665 17.8231 3.13317 17.3564 3.6665 17.3564C4.19984 17.3564 4.6665 17.8231 4.6665 18.3564C4.6665 18.9564 4.19984 19.3564 3.6665 19.3564Z" fill="#DF803F"/>
</g>
<defs>
<clipPath id="clip0_364_725">
<rect width="32" height="34" fill="white" transform="translate(0 0.689453)"/>
</clipPath>
</defs>
</svg>
