<svg width="80" height="81" viewBox="0 0 80 81" fill="none" xmlns="http://www.w3.org/2000/svg">
<rect y="0.189941" width="80" height="80" rx="12" fill="#FAECDA"/>
<path d="M35.9168 16.8567C33.2375 16.8567 31.0235 18.9178 30.7261 21.5234H26.5835C23.7047 21.5234 21.3335 23.8946 21.3335 26.7734V58.2734C21.3335 61.1521 23.7047 63.5234 26.5835 63.5234H28.7391C28.971 63.5266 29.2012 63.4838 29.4164 63.3973C29.6316 63.3108 29.8275 63.1825 29.9926 63.0196C30.1578 62.8568 30.2889 62.6628 30.3784 62.4488C30.4679 62.2349 30.514 62.0053 30.514 61.7734C30.514 61.5414 30.4679 61.3118 30.3784 61.0979C30.2889 60.8839 30.1578 60.6899 29.9926 60.5271C29.8275 60.3642 29.6316 60.2359 29.4164 60.1494C29.2012 60.0629 28.971 60.0201 28.7391 60.0234H26.5835C25.5959 60.0234 24.8335 59.2609 24.8335 58.2734V26.7734C24.8335 25.7858 25.5959 25.0234 26.5835 25.0234H31.5646C32.5116 26.4256 34.114 27.3567 35.9168 27.3567H44.0835C46.9622 27.3567 49.3335 24.9854 49.3335 22.1067C49.3335 19.2279 46.9622 16.8567 44.0835 16.8567H35.9168ZM35.9168 20.3567H44.0835C45.0711 20.3567 45.8335 21.1191 45.8335 22.1067C45.8335 23.0943 45.0711 23.8567 44.0835 23.8567H35.9168C35.2113 23.8567 34.6267 23.4638 34.3468 22.8814C34.3169 22.753 34.2726 22.6284 34.2147 22.51C34.1854 22.3803 34.1668 22.247 34.1668 22.1067C34.1668 21.1191 34.9292 20.3567 35.9168 20.3567ZM52.5304 21.5234C52.2985 21.5201 52.0683 21.5629 51.8531 21.6494C51.6379 21.7359 51.4421 21.8642 51.2769 22.0271C51.1118 22.1899 50.9806 22.3839 50.8911 22.5979C50.8016 22.8118 50.7555 23.0414 50.7555 23.2734C50.7555 23.5053 50.8016 23.7349 50.8911 23.9488C50.9806 24.1628 51.1118 24.3568 51.2769 24.5196C51.4421 24.6825 51.6379 24.8108 51.8531 24.8973C52.0683 24.9838 52.2985 25.0266 52.5304 25.0234H53.4168C54.4044 25.0234 55.1668 25.7858 55.1668 26.7734V58.2734C55.1668 59.2609 54.4044 60.0234 53.4168 60.0234H36.3315C36.0996 60.0201 35.8694 60.0629 35.6542 60.1494C35.439 60.2359 35.2432 60.3642 35.078 60.5271C34.9129 60.6899 34.7817 60.8839 34.6922 61.0979C34.6027 61.3118 34.5566 61.5414 34.5566 61.7734C34.5566 62.0053 34.6027 62.2349 34.6922 62.4488C34.7817 62.6628 34.9129 62.8568 35.078 63.0196C35.2432 63.1825 35.439 63.3108 35.6542 63.3973C35.8694 63.4838 36.0996 63.5266 36.3315 63.5234H53.4168C56.2956 63.5234 58.6668 61.1521 58.6668 58.2734V26.7734C58.6668 23.8946 56.2956 21.5234 53.4168 21.5234H52.5304ZM32.4237 29.551C32.1718 29.5512 31.9229 29.6057 31.694 29.7108C31.4651 29.816 31.2616 29.9693 31.0974 30.1603C30.9332 30.3514 30.8122 30.5756 30.7426 30.8177C30.673 31.0598 30.6565 31.314 30.6942 31.5631L31.1499 34.5549C31.1989 34.8764 31.3365 35.1778 31.5472 35.4254C31.758 35.6731 32.0335 35.8571 32.3429 35.9569C32.6524 36.0568 32.9835 36.0685 33.2992 35.9907C33.6149 35.9129 33.9027 35.7487 34.1304 35.5165L43.2017 43.5191C42.944 44.2297 42.966 45.0117 43.2632 45.7066L37.006 51.8818C36.8851 51.8659 36.7634 51.8576 36.6414 51.8567C35.859 51.8685 35.1127 52.1875 34.5635 52.745C34.0144 53.3024 33.7066 54.0535 33.7066 54.836C33.7066 55.6185 34.0144 56.3696 34.5635 56.9271C35.1127 57.4845 35.859 57.8036 36.6414 57.8153C37.0803 57.815 37.5137 57.7177 37.9106 57.5304C38.3075 57.3432 38.6581 57.0705 38.9374 56.732C39.2167 56.3935 39.4178 55.9975 39.5263 55.5722C39.6348 55.147 39.648 54.703 39.5649 54.2721L46.4556 47.4749C47.1677 47.358 47.8133 46.9867 48.2724 46.4299C48.7315 45.873 48.9728 45.1685 48.9517 44.4471C48.9305 43.7257 48.6483 43.0365 48.1573 42.5076C47.6664 41.9786 47.0002 41.6457 46.2824 41.5709L36.5275 32.9644C36.7989 32.7471 36.9994 32.454 37.1035 32.1223C37.2076 31.7906 37.2106 31.4354 37.1121 31.102C37.0136 30.7686 36.8181 30.4721 36.5504 30.2502C36.2828 30.0284 35.9551 29.8913 35.6092 29.8564L32.5968 29.5579C32.5393 29.5527 32.4815 29.5504 32.4237 29.551ZM46.4784 30.4443C46.1301 30.4443 45.7897 30.5483 45.5009 30.7429C45.2121 30.9375 44.9878 31.2139 44.8569 31.5366C44.726 31.8593 44.6944 32.2138 44.7661 32.5546C44.8377 32.8954 45.0095 33.2071 45.2593 33.4498L46.0705 34.261L45.2593 35.0745C45.0913 35.2357 44.9572 35.4289 44.8649 35.6426C44.7725 35.8563 44.7237 36.0863 44.7213 36.3191C44.719 36.552 44.7631 36.7829 44.8511 36.9985C44.9391 37.214 45.0692 37.4098 45.2339 37.5745C45.3985 37.7391 45.5943 37.8693 45.8099 37.9573C46.0254 38.0453 46.2564 38.0894 46.4892 38.087C46.722 38.0846 46.952 38.0358 47.1658 37.9435C47.3795 37.8511 47.5726 37.717 47.7339 37.5491L48.5451 36.7379L49.3563 37.5491C49.5188 37.7117 49.7117 37.8408 49.924 37.9288C50.1364 38.0169 50.364 38.0623 50.5939 38.0624C50.8238 38.0625 51.0515 38.0173 51.2639 37.9295C51.4764 37.8416 51.6694 37.7127 51.8321 37.5502C51.9947 37.3878 52.1237 37.1948 52.2118 36.9825C52.2999 36.7701 52.3453 36.5425 52.3454 36.3126C52.3455 36.0827 52.3003 35.855 52.2124 35.6426C52.1245 35.4301 51.9957 35.2371 51.8332 35.0745L51.0197 34.261L51.8332 33.4498C51.9957 33.2872 52.1245 33.0941 52.2124 32.8817C52.3003 32.6692 52.3455 32.4416 52.3454 32.2117C52.3453 31.9818 52.2999 31.7541 52.2118 31.5418C52.1237 31.3294 51.9947 31.1365 51.8321 30.974C51.6694 30.8115 51.4764 30.6827 51.2639 30.5948C51.0515 30.5069 50.8238 30.4617 50.5939 30.4618C50.364 30.4619 50.1364 30.5073 49.924 30.5954C49.7117 30.6835 49.5188 30.8125 49.3563 30.9752L48.5451 31.7864L47.7339 30.9752C47.5708 30.8072 47.3756 30.6736 47.1599 30.5825C46.9443 30.4913 46.7125 30.4443 46.4784 30.4443ZM34.3081 41.4433C33.8459 41.4542 33.4069 41.6475 33.0868 41.981L32.2756 42.7922L31.4644 41.981C31.301 41.8128 31.1054 41.6791 30.8894 41.5879C30.6733 41.4967 30.4411 41.4498 30.2065 41.4501C29.8583 41.4502 29.5179 41.5542 29.2291 41.7488C28.9403 41.9434 28.716 42.2197 28.5851 42.5425C28.4542 42.8652 28.4226 43.2196 28.4943 43.5605C28.5659 43.9013 28.7377 44.213 28.9875 44.4556L29.7987 45.2668L28.9875 46.078C28.825 46.2407 28.6961 46.4337 28.6082 46.6462C28.5203 46.8586 28.4752 47.0863 28.4753 47.3162C28.4754 47.5461 28.5208 47.7737 28.6088 47.986C28.6969 48.1984 28.8259 48.3913 28.9886 48.5538C29.1512 48.7163 29.3443 48.8452 29.5567 48.933C29.7691 49.0209 29.9968 49.0661 30.2267 49.066C30.4566 49.0659 30.6842 49.0205 30.8966 48.9324C31.1089 48.8443 31.3019 48.7153 31.4644 48.5527L32.2756 47.7415L33.0868 48.5527C33.248 48.7206 33.4411 48.8547 33.6549 48.9471C33.8686 49.0394 34.0986 49.0882 34.3314 49.0906C34.5642 49.093 34.7952 49.0489 35.0108 48.9609C35.2263 48.8729 35.4222 48.7427 35.5868 48.5781C35.7514 48.4134 35.8816 48.2176 35.9696 48.0021C36.0576 47.7865 36.1017 47.5555 36.0993 47.3227C36.0969 47.0899 36.0481 46.8599 35.9558 46.6462C35.8634 46.4324 35.7293 46.2393 35.5614 46.078L34.7502 45.2668L35.5614 44.4556C35.8158 44.2114 35.9906 43.8959 36.0627 43.5507C36.1348 43.2054 36.1008 42.8464 35.9654 42.5207C35.8299 42.195 35.5991 41.9179 35.3034 41.7256C35.0077 41.5334 34.6607 41.4349 34.3081 41.4433Z" fill="#DF803F"/>
</svg>
