<svg width="80" height="81" viewBox="0 0 80 81" fill="none" xmlns="http://www.w3.org/2000/svg">
<rect y="0.189941" width="80" height="80" rx="12" fill="#FAECDA"/>
<path d="M61.5837 35.4507V52.2507C61.5837 54.8174 59.4837 56.9174 56.917 56.9174H23.0837C20.517 56.9174 18.417 54.8174 18.417 52.2507" stroke="#DF803F" stroke-width="3.5" stroke-linecap="round" stroke-linejoin="round"/>
<path d="M18.417 45.3668V27.7502C18.417 25.1835 20.517 23.0835 23.0837 23.0835H56.917C59.4837 23.0835 61.5837 25.1835 61.5837 27.7502" stroke="#DF803F" stroke-width="3.5" stroke-linecap="round" stroke-linejoin="round"/>
<path d="M39.9998 31.0171C47.1165 31.0171 51.3165 35.9171 52.9498 38.1338C53.4165 38.7171 53.4165 39.6504 53.0665 40.2338C51.6665 42.8004 47.3498 48.9838 40.1165 48.9838C32.8831 48.9838 28.5665 43.0338 27.1665 40.5838C26.8165 39.8838 26.8165 39.0671 27.2831 38.4838C28.0998 37.3171 29.6165 35.2171 31.9498 33.5838" stroke="#DF803F" stroke-width="3.5" stroke-miterlimit="10" stroke-linecap="round" stroke-linejoin="round"/>
<path d="M40.0002 44.5507C42.5131 44.5507 44.5502 42.5136 44.5502 40.0007C44.5502 37.4878 42.5131 35.4507 40.0002 35.4507C37.4873 35.4507 35.4502 37.4878 35.4502 40.0007C35.4502 42.5136 37.4873 44.5507 40.0002 44.5507Z" fill="#DF803F"/>
</svg>
