<svg width="80" height="81" viewBox="0 0 80 81" fill="none" xmlns="http://www.w3.org/2000/svg">
<rect y="0.189941" width="80" height="80" rx="12" fill="#FAECDA"/>
<path d="M30.7833 50.1502C24.95 48.0502 20.75 42.4502 20.75 35.9169C20.75 27.5169 27.5167 20.7502 35.9167 20.7502C37.2 20.7502 38.6 20.8669 39.7667 21.2169" stroke="#DF803F" stroke-width="3.5" stroke-linecap="round" stroke-linejoin="round"/>
<path d="M47.7002 26.467C49.8002 29.0337 51.0836 32.417 51.0836 35.917C51.0836 42.567 46.7669 48.2837 40.8169 50.267" stroke="#DF803F" stroke-width="3.5" stroke-linecap="round" stroke-linejoin="round"/>
<path d="M35.917 37.667C36.8835 37.667 37.667 36.8835 37.667 35.917C37.667 34.9505 36.8835 34.167 35.917 34.167C34.9505 34.167 34.167 34.9505 34.167 35.917C34.167 36.8835 34.9505 37.667 35.917 37.667Z" fill="#DF803F"/>
<path d="M41.75 37.667C42.7165 37.667 43.5 36.8835 43.5 35.917C43.5 34.9505 42.7165 34.167 41.75 34.167C40.7835 34.167 40 34.9505 40 35.917C40 36.8835 40.7835 37.667 41.75 37.667Z" fill="#DF803F"/>
<path d="M46.6499 46.6504L59.2499 59.2504" stroke="#DF803F" stroke-width="3.5" stroke-linecap="round"/>
<path d="M30.0835 37.667C31.05 37.667 31.8335 36.8835 31.8335 35.917C31.8335 34.9505 31.05 34.167 30.0835 34.167C29.117 34.167 28.3335 34.9505 28.3335 35.917C28.3335 36.8835 29.117 37.667 30.0835 37.667Z" fill="#DF803F"/>
</svg>
