<svg width="80" height="81" viewBox="0 0 80 81" fill="none" xmlns="http://www.w3.org/2000/svg">
<rect y="0.189941" width="80" height="80" rx="12" fill="#FAECDA"/>
<path d="M21.9168 18.9135C17.9653 18.9135 15.4681 23.3343 17.3504 26.7566L28.6 47.2097C28.7849 47.5562 29.0809 47.8304 29.4405 47.9883C29.8001 48.1462 30.2023 48.1785 30.5825 48.0802H41.8868C42.1187 48.0835 42.349 48.0406 42.5642 47.9541C42.7793 47.8677 42.9752 47.7393 43.1404 47.5765C43.3055 47.4136 43.4366 47.2196 43.5261 47.0056C43.6157 46.7917 43.6618 46.5621 43.6618 46.3302C43.6618 46.0983 43.6157 45.8686 43.5261 45.6547C43.4366 45.4407 43.3055 45.2467 43.1404 45.0839C42.9752 44.9211 42.7793 44.7927 42.5642 44.7062C42.349 44.6197 42.1187 44.5769 41.8868 44.5802H31.1453L20.4174 25.0704V25.0681C19.733 23.8238 20.5016 22.4135 21.9168 22.4135H46.95C47.1819 22.4168 47.4121 22.3739 47.6273 22.2875C47.8425 22.201 48.0384 22.0726 48.2035 21.9098C48.3687 21.747 48.4998 21.5529 48.5893 21.339C48.6788 21.125 48.7249 20.8954 48.7249 20.6635C48.7249 20.4316 48.6788 20.202 48.5893 19.988C48.4998 19.7741 48.3687 19.5801 48.2035 19.4172C48.0384 19.2544 47.8425 19.126 47.6273 19.0395C47.4121 18.9531 47.1819 18.9102 46.95 18.9135H21.9168ZM54.547 18.9135C54.3151 18.9102 54.0849 18.9531 53.8697 19.0395C53.6545 19.126 53.4586 19.2544 53.2935 19.4172C53.1283 19.5801 52.9972 19.7741 52.9077 19.988C52.8182 20.202 52.7721 20.4316 52.7721 20.6635C52.7721 20.8954 52.8182 21.125 52.9077 21.339C52.9972 21.5529 53.1283 21.747 53.2935 21.9098C53.4586 22.0726 53.6545 22.201 53.8697 22.2875C54.0849 22.3739 54.3151 22.4168 54.547 22.4135H58.0834C59.4987 22.4135 60.2672 23.8238 59.5828 25.0681L55.8868 31.7468H29.45C29.2181 31.7436 28.9878 31.7864 28.7727 31.8729C28.5575 31.9593 28.3616 32.0877 28.1964 32.2506C28.0313 32.4134 27.9002 32.6074 27.8107 32.8214C27.7211 33.0353 27.6751 33.2649 27.6751 33.4968C27.6751 33.7288 27.7211 33.9584 27.8107 34.1723C27.9002 34.3863 28.0313 34.5803 28.1964 34.7431C28.3616 34.9059 28.5575 35.0343 28.7727 35.1208C28.9878 35.2073 29.2181 35.2501 29.45 35.2468H53.95L41.5017 57.7325C41.4955 57.7438 41.4895 57.7552 41.4835 57.7667C40.8079 59.0564 39.1511 59.0679 38.3732 57.7143L35.3266 52.1772C35.2177 51.9725 35.0692 51.7914 34.8898 51.6446C34.7103 51.4977 34.5035 51.388 34.2813 51.3218C34.0591 51.2556 33.8259 51.2342 33.5953 51.2588C33.3648 51.2835 33.1414 51.3537 32.9382 51.4654C32.735 51.5771 32.5561 51.7281 32.4117 51.9095C32.2674 52.091 32.1605 52.2993 32.0974 52.5224C32.0342 52.7456 32.0161 52.979 32.0439 53.2092C32.0717 53.4394 32.145 53.6617 32.2595 53.8634L35.3175 59.4233C35.322 59.4317 35.3265 59.44 35.3312 59.4483C37.3545 62.9892 42.6946 62.9999 44.5847 59.3914L58.3318 34.5564C58.435 34.4211 58.5179 34.2714 58.5779 34.1121L62.6476 26.7612L62.6498 26.7566C64.5321 23.3343 62.0349 18.9135 58.0834 18.9135H54.547Z" fill="#DF803F"/>
</svg>
