<svg width="32" height="33" viewBox="0 0 32 33" fill="none" xmlns="http://www.w3.org/2000/svg">
<rect y="0.189453" width="32" height="32" rx="4" fill="#E3F1FB"/>
<path d="M23.8233 12.7198L23.8232 12.7198L23.4697 12.3662C23.4697 12.3662 23.4697 12.3662 23.4697 12.3662C23.3721 12.2686 23.2138 12.2686 23.1162 12.3662C23.1162 12.3662 23.1162 12.3662 23.1161 12.3662L16.3536 19.1288L16 19.4824L15.6465 19.1288L8.88388 12.3662C8.78625 12.2686 8.62803 12.2686 8.53039 12.3662L8.17679 12.7198C8.07915 12.8174 8.07915 12.9757 8.17679 13.0733L15.8233 20.7198C15.9209 20.8174 16.0791 20.8174 16.1768 20.7198L23.8233 13.0733C23.8233 13.0733 23.8233 13.0733 23.8233 13.0733C23.9209 12.9757 23.9209 12.8174 23.8233 12.7198Z" fill="#113F60" stroke="#113F60"/>
</svg>
