<svg width="32" height="35" viewBox="0 0 32 35" fill="none" xmlns="http://www.w3.org/2000/svg">
<g clip-path="url(#clip0_364_720)">
<path d="M15.9998 4.48242C15.3939 4.48242 14.7872 4.66503 14.2668 5.0293C14.2655 5.03016 14.2642 5.03103 14.2629 5.0319C13.4996 5.57234 12.383 6.29658 11.0194 6.94727C10.8971 7.00141 10.787 7.07952 10.6955 7.17697C10.6039 7.27441 10.5329 7.38922 10.4865 7.51461C10.4401 7.63999 10.4193 7.77341 10.4253 7.90696C10.4314 8.04052 10.4642 8.1715 10.5217 8.29218C10.5793 8.41285 10.6604 8.52076 10.7604 8.60952C10.8604 8.69829 10.9771 8.76611 11.1038 8.80897C11.2304 8.85183 11.3643 8.86887 11.4977 8.85908C11.631 8.84929 11.761 8.81286 11.88 8.75195C13.3787 8.03679 14.5879 7.25201 15.4139 6.66732C15.737 6.44119 16.2614 6.44119 16.5845 6.66732C18.2851 7.87098 21.6087 9.94059 25.7524 10.4525C26.319 10.5278 26.6574 10.9031 26.6574 11.4368V17.709C26.6574 20.2949 25.9233 23.9851 22.6066 27.3457C22.5114 27.4385 22.4356 27.5494 22.3838 27.6718C22.3319 27.7942 22.305 27.9257 22.3046 28.0587C22.3041 28.1917 22.3302 28.3234 22.3813 28.4461C22.4324 28.5689 22.5074 28.6802 22.602 28.7736C22.6967 28.867 22.809 28.9406 22.9324 28.9901C23.0558 29.0396 23.1878 29.064 23.3207 29.0619C23.4537 29.0597 23.5849 29.0311 23.7066 28.9777C23.8284 28.9242 23.9382 28.8471 24.0298 28.7507C27.7611 24.9699 28.6574 20.6857 28.6574 17.709V11.4368C28.6574 9.92526 27.4955 8.66605 26.0168 8.4694C26.0133 8.46895 26.0098 8.46851 26.0063 8.4681C22.3866 8.02342 19.3089 6.14485 17.7368 5.0319C17.7351 5.03103 17.7333 5.03016 17.7316 5.0293C17.2111 4.66503 16.6058 4.48242 15.9998 4.48242ZM8.22119 8.04883C8.13098 8.04889 8.04119 8.06115 7.95426 8.08529C7.32263 8.25276 6.66789 8.38556 5.99333 8.4681C5.98985 8.46851 5.98638 8.46895 5.98291 8.4694C4.5046 8.66696 3.34229 9.92561 3.34229 11.4368V17.7077C3.34229 22.0121 5.31473 29.0399 14.7668 33.3431C14.7737 33.3462 14.7806 33.3493 14.7876 33.3522C15.5501 33.6791 16.3928 33.6605 17.1691 33.3691C17.1902 33.3612 17.2111 33.3525 17.2316 33.3431C18.3533 32.8326 19.3722 32.2849 20.2954 31.7077C20.4068 31.6381 20.5035 31.5473 20.5798 31.4403C20.6561 31.3334 20.7106 31.2125 20.7402 31.0845C20.7698 30.9565 20.7739 30.8239 20.7522 30.6943C20.7306 30.5648 20.6836 30.4407 20.614 30.3293C20.5444 30.2179 20.4535 30.1213 20.3466 30.045C20.2396 29.9687 20.1187 29.9142 19.9907 29.8846C19.8627 29.8551 19.7301 29.851 19.6005 29.8727C19.4709 29.8944 19.3469 29.9414 19.2355 30.0111C18.4052 30.5302 17.4766 31.0277 16.4517 31.4967C16.1411 31.6082 15.7676 31.5941 15.578 31.5137C6.77746 27.4994 5.34229 21.4446 5.34229 17.7077V11.4368C5.34229 10.9041 5.68021 10.5269 6.24723 10.4512C7.01815 10.3563 7.75953 10.2065 8.46728 10.0189C8.70411 9.95938 8.91099 9.81529 9.0489 9.61378C9.18682 9.41227 9.24625 9.16726 9.21598 8.92496C9.18571 8.68265 9.06784 8.4598 8.88459 8.29841C8.70134 8.13701 8.46538 8.04824 8.22119 8.04883ZM20.9803 14.6803C20.7206 14.6879 20.474 14.7962 20.2928 14.9824L14.3332 20.9421L11.7069 18.3158C11.6147 18.2198 11.5044 18.1432 11.3822 18.0904C11.2601 18.0376 11.1287 18.0097 10.9956 18.0084C10.8626 18.007 10.7306 18.0322 10.6074 18.0825C10.4843 18.1328 10.3724 18.2072 10.2783 18.3012C10.1842 18.3953 10.1098 18.5072 10.0596 18.6304C10.0093 18.7536 9.98406 18.8855 9.98541 19.0186C9.98676 19.1516 10.0146 19.283 10.0674 19.4052C10.1202 19.5273 10.1968 19.6377 10.2928 19.7298L13.6261 23.0632C13.8137 23.2506 14.068 23.3559 14.3332 23.3559C14.5983 23.3559 14.8527 23.2506 15.0402 23.0632L21.7069 16.3965C21.8511 16.256 21.9496 16.0752 21.9894 15.8778C22.0293 15.6804 22.0086 15.4756 21.9301 15.2901C21.8515 15.1047 21.7189 14.9472 21.5494 14.8384C21.38 14.7296 21.1816 14.6745 20.9803 14.6803Z" fill="#DF803F"/>
</g>
<defs>
<clipPath id="clip0_364_720">
<rect width="32" height="34" fill="white" transform="translate(0 0.689453)"/>
</clipPath>
</defs>
</svg>
