<svg width="418" height="319" viewBox="0 0 418 319" fill="none" xmlns="http://www.w3.org/2000/svg">
<g clip-path="url(#clip0_372_740)">
<g clip-path="url(#clip1_372_740)">
<path d="M111.979 86.4208L118.941 82.8416L123.862 83.5467L116.899 87.1259C116.711 87.2343 116.514 87.2712 116.329 87.2445L111.408 86.5395C111.594 86.566 111.79 86.5291 111.979 86.4208Z" fill="#ECBA85"/>
<path d="M123.992 83.7047C124.022 83.6795 124.045 83.6459 124.057 83.6081C124.069 83.5703 124.069 83.5298 124.059 83.4916C124.048 83.4534 124.027 83.4192 123.997 83.393C123.967 83.3668 123.93 83.3497 123.891 83.344L118.971 82.6389C118.929 82.6328 118.886 82.64 118.848 82.6595L111.886 86.2387L111.877 86.2432C111.735 86.3249 111.584 86.3573 111.439 86.3369L111.438 86.3368C111.384 86.3291 111.33 86.343 111.286 86.3755C111.243 86.4081 111.214 86.4565 111.206 86.5102C111.198 86.5639 111.212 86.6184 111.245 86.6619C111.277 86.7053 111.326 86.734 111.379 86.7417L116.3 87.4467C116.537 87.4807 116.779 87.4308 117.002 87.3028L123.955 83.7282C123.968 83.7216 123.98 83.7138 123.992 83.7047ZM118.977 83.0531L123.198 83.658L116.806 86.944C116.655 87.0305 116.503 87.0628 116.358 87.0421L112.338 86.4661L118.977 83.0531Z" fill="#111111"/>
<path d="M126.498 31.6663C126.339 31.3458 126.079 31.155 125.795 31.1143L130.716 31.8194C131 31.8602 131.26 32.0508 131.419 32.3714L135.486 39.7177L130.566 39.0128L126.498 31.6663Z" fill="#ECBA85"/>
<path d="M135.615 39.876C135.652 39.8457 135.678 39.8033 135.687 39.7563C135.696 39.7093 135.688 39.6606 135.665 39.6188L131.598 32.2724C131.418 31.9105 131.106 31.6687 130.745 31.6172L125.824 30.9121C125.798 30.9083 125.77 30.9098 125.744 30.9164C125.718 30.9231 125.694 30.9348 125.672 30.9509C125.651 30.967 125.633 30.9872 125.619 31.0103C125.605 31.0334 125.596 31.059 125.592 31.0856C125.589 31.1121 125.59 31.1392 125.597 31.1652C125.603 31.1913 125.615 31.2157 125.631 31.2372C125.647 31.2587 125.667 31.2768 125.69 31.2905C125.713 31.3042 125.739 31.3132 125.766 31.317C125.992 31.3493 126.192 31.5101 126.315 31.7577L126.319 31.7657L130.386 39.1121C130.417 39.1681 130.473 39.2063 130.536 39.2154L135.456 39.9203C135.514 39.9285 135.572 39.9118 135.615 39.876ZM126.603 31.4368L130.686 32.0219C130.912 32.0543 131.112 32.215 131.236 32.4627L135.107 39.4571L130.695 38.825L126.679 31.5712C126.656 31.525 126.631 31.4802 126.603 31.4368Z" fill="#111111"/>
<path d="M132.136 83.1012L137.057 83.8062C133.466 83.2917 130.108 81.1102 127.761 77.338C122.842 69.4328 124.228 57.5349 130.858 50.7639C134.324 47.2239 138.537 45.7859 142.472 46.3498L137.551 45.6448C133.616 45.081 129.403 46.5188 125.937 50.0589C119.308 56.8299 117.921 68.7276 122.84 76.633C125.187 80.4051 128.546 82.5867 132.136 83.1012Z" fill="#ECBA85"/>
<path d="M137.187 83.9644C137.217 83.9392 137.24 83.9057 137.252 83.8678C137.264 83.83 137.265 83.7895 137.254 83.7512C137.243 83.713 137.222 83.6787 137.192 83.6525C137.162 83.6263 137.125 83.6094 137.086 83.6038C133.414 83.0777 130.164 80.8141 127.934 77.23C123.07 69.4124 124.446 57.6039 131.004 50.907C134.274 47.567 138.443 45.9794 142.442 46.5525C142.496 46.5602 142.551 46.5462 142.594 46.5137C142.637 46.4812 142.666 46.4327 142.674 46.379C142.682 46.3253 142.668 46.2708 142.635 46.2274C142.603 46.184 142.554 46.1553 142.501 46.1475L137.58 45.4425C133.451 44.8509 129.154 46.4811 125.791 49.9161C119.11 56.7396 117.708 68.7735 122.666 76.7414C124.961 80.4298 128.314 82.7603 132.107 83.3039L137.028 84.0089C137.056 84.0129 137.085 84.011 137.112 84.0033C137.139 83.9957 137.165 83.9824 137.187 83.9644ZM132.112 49.3376C131.63 49.7323 131.162 50.1603 130.711 50.621C124.03 57.4445 122.629 69.4783 127.586 77.4462C129.25 80.1194 131.469 82.0794 134.009 83.1628L132.166 82.8986C128.494 82.3724 125.244 80.1089 123.013 76.5248C118.149 68.7072 119.526 56.8987 126.083 50.2018C129.354 46.8615 133.523 45.2741 137.522 45.8473L139.386 46.1144C136.834 46.4187 134.324 47.5258 132.112 49.3376Z" fill="#111111"/>
<path d="M128.791 100.171L133.712 100.876C134.002 100.918 134.296 100.8 134.525 100.567C134.666 100.422 134.782 100.233 134.857 100.011L129.936 99.3058C129.861 99.5283 129.745 99.717 129.604 99.8616C129.375 100.095 129.081 100.213 128.791 100.171Z" fill="#ECBA85"/>
<path d="M134.556 100.814C134.595 100.782 134.633 100.747 134.67 100.709C134.837 100.539 134.968 100.32 135.05 100.075C135.059 100.047 135.063 100.017 135.059 99.9872C135.056 99.9575 135.046 99.9289 135.03 99.9034C135.014 99.878 134.993 99.8563 134.968 99.8399C134.943 99.8235 134.915 99.8127 134.885 99.8085L129.965 99.1034C129.917 99.0967 129.869 99.1068 129.828 99.132C129.787 99.1572 129.757 99.1959 129.741 99.2414C129.679 99.4272 129.581 99.5922 129.457 99.7189C129.271 99.909 129.039 100 128.82 99.9692L128.82 99.9692C128.766 99.9615 128.712 99.9754 128.668 100.008C128.625 100.04 128.596 100.089 128.588 100.143C128.581 100.196 128.595 100.251 128.627 100.294C128.66 100.338 128.708 100.366 128.762 100.374L128.763 100.374L133.682 101.079C133.985 101.122 134.297 101.026 134.556 100.814ZM134.561 100.175C134.512 100.266 134.45 100.349 134.378 100.423C134.191 100.614 133.959 100.705 133.741 100.674L129.659 100.089C129.691 100.062 129.721 100.034 129.75 100.005C129.883 99.8669 129.99 99.7066 130.067 99.5313L134.561 100.175Z" fill="#111111"/>
<path d="M129.936 99.3057L134.856 100.011L138.116 91.4286L133.196 90.7235L129.936 99.3057Z" fill="#ECBA85"/>
<path d="M134.986 100.169C135.014 100.146 135.035 100.117 135.048 100.083L138.308 91.5012C138.318 91.4725 138.323 91.4418 138.32 91.4113C138.317 91.3808 138.308 91.3512 138.293 91.3248C138.277 91.2985 138.256 91.2759 138.23 91.2588C138.205 91.2418 138.176 91.2306 138.146 91.2262L133.225 90.5212C133.179 90.5146 133.132 90.5239 133.092 90.5475C133.052 90.5712 133.021 90.6077 133.005 90.6512L129.745 99.2334C129.734 99.2621 129.729 99.2928 129.732 99.3233C129.735 99.3538 129.744 99.3834 129.76 99.4098C129.775 99.4361 129.796 99.4587 129.822 99.4758C129.847 99.4928 129.876 99.504 129.907 99.5084L134.827 100.213C134.855 100.217 134.884 100.216 134.911 100.208C134.939 100.2 134.964 100.187 134.986 100.169ZM137.834 91.5949L134.723 99.7852L130.218 99.1395L133.329 90.9493L137.834 91.5949Z" fill="#111111"/>
<path d="M145.809 29.2812C145.86 29.2886 145.911 29.3008 145.96 29.3179L151.991 31.3769L147.07 30.6718L141.04 28.6128C140.99 28.5958 140.94 28.5835 140.888 28.5762L145.809 29.2812Z" fill="#ECBA85"/>
<path d="M152.121 31.5349C152.149 31.5118 152.17 31.4815 152.183 31.4473C152.195 31.4132 152.199 31.3762 152.192 31.3404C152.186 31.3045 152.17 31.2711 152.146 31.2435C152.122 31.2158 152.092 31.1951 152.057 31.1833L146.027 29.1242C145.966 29.1032 145.902 29.0877 145.838 29.0786L140.919 28.3739L140.918 28.3736L140.917 28.3736C140.891 28.3698 140.864 28.3713 140.838 28.3779C140.812 28.3846 140.787 28.3963 140.766 28.4124C140.744 28.4286 140.726 28.4488 140.712 28.4719C140.699 28.495 140.69 28.5206 140.686 28.5471C140.682 28.5737 140.683 28.6008 140.69 28.6268C140.697 28.6528 140.708 28.6773 140.725 28.6988C140.741 28.7203 140.761 28.7384 140.784 28.752C140.807 28.7657 140.833 28.7747 140.859 28.7785L140.86 28.7788C140.898 28.7843 140.936 28.7935 140.973 28.8061L147.004 30.8653C147.016 30.8694 147.029 30.8723 147.041 30.874L151.962 31.5792C151.99 31.5832 152.019 31.5814 152.046 31.5738C152.073 31.5661 152.099 31.5529 152.121 31.5349ZM143.098 29.0994L145.78 29.4836C145.818 29.4891 145.857 29.4984 145.893 29.5111L149.857 30.8644L147.119 30.472L143.098 29.0994Z" fill="#111111"/>
<path d="M133.196 90.7236L138.116 91.4287C140.099 91.4526 142.093 91.1186 144.04 90.4345L139.119 89.7294C137.173 90.4135 135.178 90.7475 133.196 90.7236Z" fill="#ECBA85"/>
<path d="M144.17 90.5925C144.201 90.5674 144.223 90.5338 144.235 90.496C144.247 90.4581 144.248 90.4176 144.237 90.3793C144.227 90.341 144.205 90.3067 144.175 90.2805C144.146 90.2543 144.109 90.2374 144.07 90.2318L139.149 89.5266C139.116 89.522 139.083 89.5253 139.052 89.5362C137.13 90.2118 135.16 90.5423 133.198 90.5187C133.147 90.5183 133.096 90.5376 133.058 90.5726C133.02 90.6076 132.997 90.6558 132.993 90.7075C132.989 90.7591 133.004 90.8103 133.037 90.8508C133.069 90.8913 133.115 90.918 133.166 90.9255L138.087 91.6306C138.096 91.6318 138.105 91.6325 138.114 91.6326C140.123 91.6569 142.14 91.3185 144.108 90.6269C144.13 90.6194 144.151 90.6077 144.17 90.5925ZM139.14 89.9388L143.139 90.5118C141.487 91.0035 139.807 91.2429 138.133 91.2239L135.31 90.8196C136.597 90.6728 137.878 90.3782 139.14 89.9388Z" fill="#111111"/>
<path d="M146.286 41.3708L151.207 42.0759L152.664 32.8756L147.743 32.1705L146.286 41.3708Z" fill="#ECBA85"/>
<path d="M151.337 42.234C151.376 42.2022 151.402 42.1573 151.41 42.1077L152.866 32.9073C152.871 32.8805 152.87 32.8531 152.863 32.8268C152.857 32.8005 152.845 32.7756 152.829 32.7538C152.813 32.732 152.793 32.7137 152.77 32.6998C152.746 32.6859 152.72 32.6768 152.694 32.6731L147.773 31.968C147.72 31.9604 147.666 31.974 147.622 32.006C147.579 32.0379 147.55 32.0856 147.542 32.1387L146.085 41.339C146.08 41.3658 146.081 41.3931 146.088 41.4195C146.094 41.4458 146.106 41.4706 146.122 41.4924C146.138 41.5143 146.158 41.5326 146.181 41.5465C146.205 41.5604 146.231 41.5695 146.257 41.5732L151.178 42.2783C151.206 42.2824 151.235 42.2805 151.262 42.2729C151.29 42.2653 151.315 42.252 151.337 42.234ZM152.43 33.0485L151.037 41.8449L146.521 41.1979L147.914 32.4016L152.43 33.0485Z" fill="#111111"/>
<path d="M147.744 32.1703L152.665 32.8754C152.797 32.2045 152.504 31.5503 151.992 31.3768L147.071 30.6717C147.584 30.8452 147.876 31.4995 147.744 32.1703Z" fill="#ECBA85"/>
<path d="M152.794 33.0336C152.831 33.0035 152.856 32.9614 152.865 32.9147C153.018 32.1354 152.671 31.3909 152.057 31.1833C152.045 31.1793 152.033 31.1764 152.021 31.1746L147.1 30.4696C147.05 30.4627 146.999 30.4747 146.957 30.5034C146.915 30.5321 146.885 30.5753 146.873 30.6247C146.861 30.6741 146.868 30.7261 146.893 30.7706C146.917 30.8151 146.957 30.8489 147.005 30.8655C147.419 31.0055 147.655 31.5614 147.543 32.1312C147.538 32.1584 147.538 32.1864 147.544 32.2135C147.55 32.2406 147.561 32.2662 147.577 32.2888C147.593 32.3114 147.614 32.3305 147.637 32.345C147.661 32.3595 147.687 32.369 147.715 32.373L152.635 33.0777C152.663 33.0818 152.692 33.08 152.719 33.0724C152.746 33.0648 152.772 33.0516 152.794 33.0336ZM151.942 31.5764C152.299 31.7083 152.519 32.1533 152.488 32.6435L147.974 31.9967C148.005 31.6158 147.919 31.255 147.744 30.9748L151.942 31.5764Z" fill="#111111"/>
<path d="M150.746 45.9046L155.666 46.6096C154.373 44.8211 152.873 43.2924 151.207 42.0759L146.286 41.3708C147.952 42.5872 149.453 44.116 150.746 45.9046Z" fill="#ECBA85"/>
<path d="M155.796 46.7675C155.836 46.7345 155.862 46.6873 155.869 46.6357C155.876 46.5841 155.863 46.5318 155.832 46.4896C154.522 44.6772 153.007 43.1365 151.328 41.9107C151.301 41.891 151.269 41.8782 151.236 41.8734L146.316 41.1684C146.27 41.1619 146.224 41.1707 146.185 41.1934C146.145 41.2161 146.114 41.2514 146.097 41.2937C146.08 41.336 146.077 41.3828 146.089 41.4267C146.102 41.4707 146.129 41.5091 146.166 41.5361C147.81 42.7366 149.295 44.2469 150.58 46.0245C150.612 46.0694 150.661 46.0992 150.716 46.1071L155.637 46.8121C155.695 46.8202 155.752 46.8033 155.796 46.7675ZM151.127 42.271C152.633 43.3772 154.005 44.7435 155.211 46.3377L150.86 45.7144C149.728 44.1601 148.444 42.8077 147.035 41.6847L151.127 42.271Z" fill="#111111"/>
<path d="M148.41 83.1755L153.331 83.8805C154.846 82.1251 156.166 80.1215 157.25 77.9305L152.329 77.2255C151.245 79.4165 149.925 81.4201 148.41 83.1755Z" fill="#ECBA85"/>
<path d="M153.461 84.0388C153.47 84.0313 153.479 84.023 153.487 84.0141C155.015 82.2429 156.343 80.2266 157.434 78.0211C157.448 77.9922 157.456 77.9602 157.455 77.9279C157.455 77.8956 157.447 77.8638 157.432 77.8352C157.417 77.8066 157.395 77.782 157.369 77.7633C157.343 77.7447 157.312 77.7327 157.28 77.7282L152.359 77.0231C152.317 77.017 152.273 77.0245 152.235 77.0446C152.197 77.0647 152.166 77.0964 152.147 77.1351C151.071 79.3096 149.762 81.297 148.257 83.0422C148.233 83.07 148.217 83.1037 148.21 83.1398C148.204 83.1759 148.207 83.2131 148.22 83.2474C148.233 83.2818 148.254 83.312 148.283 83.335C148.312 83.3581 148.346 83.373 148.382 83.3782L153.303 84.0833C153.36 84.0912 153.417 84.0747 153.461 84.0388ZM156.941 78.0928C155.907 80.1338 154.667 82.006 153.25 83.6623L148.807 83.0256C150.204 81.3598 151.427 79.4861 152.448 77.4488L156.941 78.0928Z" fill="#111111"/>
<path d="M144.536 97.4648L150.259 93.4252L155.179 94.1303L149.457 98.1699C149.25 98.3158 149.023 98.369 148.811 98.3385L143.89 97.6334C144.103 97.6639 144.329 97.6107 144.536 97.4648Z" fill="#ECBA85"/>
<path d="M155.309 94.2887C155.34 94.2636 155.363 94.23 155.375 94.1922C155.387 94.1543 155.388 94.1138 155.377 94.0755C155.366 94.0373 155.345 94.003 155.315 93.9768C155.285 93.9507 155.248 93.9337 155.209 93.9281L150.288 93.2229C150.237 93.2155 150.184 93.2282 150.141 93.2584L144.419 97.298C144.261 97.4091 144.089 97.4553 143.921 97.4313L143.92 97.4311C143.866 97.4234 143.812 97.4374 143.768 97.4699C143.725 97.5024 143.696 97.5509 143.688 97.6046C143.68 97.6583 143.694 97.7128 143.727 97.7562C143.759 97.7996 143.808 97.8284 143.861 97.8361L143.863 97.8363L148.782 98.5413C149.056 98.5805 149.33 98.51 149.575 98.3375L155.298 94.2976C155.302 94.2948 155.306 94.2919 155.309 94.2887ZM150.31 93.6393L154.642 94.2599L149.34 98.0028C149.182 98.1138 149.009 98.1601 148.841 98.1361L144.767 97.5523L150.31 93.6393Z" fill="#111111"/>
<path d="M150.772 91.7287L155.693 92.4338L153.332 83.8807L148.412 83.1755L150.772 91.7287Z" fill="#ECBA85"/>
<path d="M155.821 92.592C155.852 92.5669 155.875 92.5334 155.887 92.4957C155.899 92.4579 155.9 92.4175 155.889 92.3793L153.529 83.8261C153.518 83.7878 153.497 83.7534 153.467 83.7271C153.437 83.7009 153.4 83.6839 153.361 83.6782L148.44 82.9732C148.407 82.9684 148.372 82.972 148.34 82.9838C148.308 82.9955 148.28 83.0151 148.257 83.0406C148.235 83.0661 148.219 83.0968 148.212 83.1299C148.204 83.163 148.205 83.1975 148.214 83.2303L150.574 91.7833C150.585 91.8216 150.606 91.856 150.636 91.8823C150.666 91.9085 150.703 91.9255 150.742 91.9312L155.663 92.6364C155.691 92.6404 155.719 92.6385 155.747 92.6309C155.774 92.6232 155.799 92.61 155.821 92.592ZM153.17 84.0642L155.411 92.187L150.933 91.5451L148.691 83.4224L153.17 84.0642Z" fill="#111111"/>
<path d="M150.259 93.4254L155.179 94.1305C155.238 94.0892 155.293 94.0425 155.343 93.9911C155.713 93.6132 155.863 92.9771 155.692 92.4337L150.771 91.7286C150.942 92.2721 150.792 92.908 150.422 93.2861C150.372 93.3375 150.317 93.3842 150.259 93.4254Z" fill="#ECBA85"/>
<path d="M155.375 94.2383C155.414 94.2061 155.452 94.1712 155.489 94.1341C155.913 93.7004 156.077 92.976 155.887 92.3721C155.875 92.3353 155.854 92.3026 155.824 92.2777C155.795 92.2528 155.759 92.2367 155.721 92.2313L150.8 91.5261C150.766 91.5213 150.731 91.5252 150.699 91.5375C150.667 91.5498 150.638 91.5701 150.616 91.5965C150.593 91.6228 150.578 91.6544 150.571 91.6883C150.564 91.7221 150.566 91.7572 150.576 91.7902C150.723 92.2564 150.599 92.8127 150.276 93.1432C150.234 93.1864 150.189 93.2251 150.141 93.2583C150.108 93.2819 150.082 93.315 150.067 93.3533C150.053 93.3917 150.05 93.4334 150.06 93.4733C150.069 93.5131 150.091 93.5491 150.121 93.5767C150.151 93.6043 150.189 93.6221 150.23 93.6279L155.15 94.333C155.202 94.3404 155.254 94.3277 155.297 94.2978C155.324 94.2788 155.35 94.259 155.375 94.2383ZM155.528 92.617C155.621 93.0553 155.492 93.5461 155.197 93.8482C155.173 93.8723 155.149 93.8949 155.123 93.9158L150.695 93.2813C150.963 92.9233 151.087 92.4339 151.032 91.9726L155.528 92.617Z" fill="#111111"/>
<path d="M155.679 64.611L160.6 65.3161C160.76 62.8054 160.634 60.3077 160.227 57.8949L155.306 57.1898C155.714 59.6025 155.84 62.1004 155.679 64.611Z" fill="#ECBA85"/>
<path d="M160.728 65.4742C160.749 65.4564 160.767 65.4343 160.78 65.4093C160.793 65.3843 160.8 65.3569 160.802 65.3288C160.964 62.8039 160.838 60.2912 160.427 57.8606C160.42 57.8179 160.399 57.7786 160.368 57.7484C160.337 57.7182 160.298 57.6986 160.255 57.6924L155.334 56.9873C155.302 56.9829 155.27 56.986 155.239 56.9964C155.209 57.0068 155.181 57.0242 155.159 57.0473C155.136 57.0703 155.119 57.0983 155.11 57.1291C155.1 57.1598 155.098 57.1923 155.103 57.2241C155.509 59.6234 155.633 62.1045 155.473 64.5981C155.47 64.6494 155.486 64.7001 155.519 64.74C155.551 64.7799 155.597 64.8061 155.648 64.8133L160.569 65.5184C160.597 65.5224 160.625 65.5206 160.652 65.513C160.68 65.5055 160.705 65.4924 160.727 65.4746L160.728 65.4742ZM160.048 58.0763C160.422 60.3591 160.543 62.7139 160.407 65.0823L155.893 64.4354C156.031 62.0695 155.917 59.7157 155.552 57.432L160.048 58.0763Z" fill="#111111"/>
<path d="M155.305 57.1897L160.226 57.8948L166.351 52.2403L161.431 51.5352L155.305 57.1897Z" fill="#ECBA85"/>
<path d="M160.356 58.0529C160.359 58.0503 160.362 58.0479 160.365 58.045L166.49 52.3904C166.519 52.3642 166.539 52.3304 166.549 52.2931C166.559 52.2557 166.559 52.2163 166.547 52.1794C166.536 52.1425 166.514 52.1096 166.484 52.0845C166.455 52.0594 166.419 52.0432 166.381 52.0378L161.46 51.3327C161.43 51.3282 161.399 51.3305 161.37 51.3396C161.341 51.3486 161.314 51.3642 161.292 51.385L155.167 57.0395C155.138 57.0658 155.118 57.0995 155.108 57.1369C155.098 57.1742 155.098 57.2137 155.11 57.2506C155.121 57.2875 155.143 57.3204 155.173 57.3454C155.202 57.3705 155.238 57.3867 155.276 57.3922L160.197 58.0972C160.225 58.1013 160.254 58.0995 160.281 58.0918C160.308 58.0842 160.334 58.071 160.356 58.0529ZM165.897 52.3817L160.159 57.6787L155.76 57.0484L161.498 51.7515L165.897 52.3817Z" fill="#111111"/>
<path d="M159.024 42.8509C158.873 42.4804 158.589 42.2518 158.274 42.2067L163.195 42.9119C163.509 42.9571 163.793 43.1856 163.945 43.5561L166.75 50.5052L161.83 49.8003L159.024 42.8509Z" fill="#ECBA85"/>
<path d="M166.879 50.6631C166.913 50.6354 166.937 50.5977 166.948 50.5555C166.959 50.5132 166.956 50.4687 166.939 50.4282L164.134 43.4793C163.959 43.0537 163.619 42.7661 163.223 42.7092L158.302 42.0042C158.276 42.0003 158.249 42.0018 158.223 42.0085C158.197 42.0151 158.172 42.0268 158.151 42.0429C158.129 42.059 158.111 42.0792 158.097 42.1023C158.083 42.1254 158.074 42.151 158.071 42.1776C158.067 42.2042 158.068 42.2312 158.075 42.2573C158.081 42.2833 158.093 42.3077 158.109 42.3292C158.125 42.3507 158.145 42.3689 158.169 42.3826C158.192 42.3963 158.217 42.4053 158.244 42.4091L158.245 42.4092C158.495 42.4454 158.716 42.6391 158.834 42.9277L161.639 49.8765C161.653 49.9096 161.675 49.9387 161.703 49.9608C161.731 49.9828 161.764 49.9971 161.8 50.0022L166.72 50.7071C166.748 50.7112 166.777 50.7095 166.804 50.7019C166.832 50.6943 166.857 50.6811 166.879 50.6631ZM159.086 42.5299L163.165 43.1143C163.416 43.1503 163.636 43.3445 163.755 43.6338L166.427 50.2522L161.975 49.6145L159.213 42.7744L159.213 42.7735C159.178 42.6884 159.136 42.6068 159.086 42.5299Z" fill="#111111"/>
<path d="M161.431 51.5351L166.352 52.2402C166.835 51.7547 166.973 51.0579 166.75 50.505L161.83 49.8001C162.052 50.3528 161.914 51.05 161.431 51.5351Z" fill="#ECBA85"/>
<path d="M166.482 52.3983C166.487 52.3939 166.492 52.3892 166.497 52.3843C167.021 51.8576 167.199 51.0717 166.941 50.4284C166.927 50.3952 166.905 50.3661 166.877 50.344C166.849 50.3219 166.816 50.3076 166.78 50.3025L161.859 49.5975C161.824 49.5925 161.788 49.5969 161.754 49.6103C161.721 49.6237 161.692 49.6457 161.67 49.6739C161.647 49.7021 161.633 49.7357 161.628 49.7712C161.623 49.8068 161.627 49.843 161.64 49.8763C161.839 50.3699 161.697 50.9786 161.286 51.3909C161.26 51.4177 161.241 51.4515 161.232 51.4884C161.224 51.5254 161.225 51.5639 161.237 51.5999C161.249 51.6358 161.271 51.6677 161.3 51.692C161.329 51.7163 161.365 51.732 161.402 51.7374L166.323 52.4425C166.351 52.4466 166.38 52.4448 166.407 52.4372C166.434 52.4296 166.46 52.4164 166.482 52.3983ZM166.599 50.6899C166.729 51.1324 166.606 51.645 166.276 52.0228L161.818 51.3839C162.084 50.9826 162.191 50.4978 162.112 50.0471L166.599 50.6899Z" fill="#111111"/>
<path d="M159.609 78.4353L164.53 79.1403C164.821 79.1821 165.113 79.0627 165.339 78.8319C165.503 78.6645 165.632 78.4383 165.702 78.1727L160.781 77.4677C160.711 77.7332 160.582 77.9595 160.418 78.1268C160.192 78.3576 159.901 78.4769 159.609 78.4353Z" fill="#ECBA85"/>
<path d="M165.371 79.0791C165.41 79.0469 165.448 79.0121 165.485 78.9749C165.679 78.7762 165.823 78.5167 165.9 78.2245C165.907 78.1966 165.909 78.1675 165.904 78.1391C165.899 78.1107 165.889 78.0836 165.873 78.0595C165.857 78.0355 165.836 78.0152 165.812 77.9998C165.787 77.9844 165.76 77.9743 165.731 77.9702L160.811 77.2652C160.761 77.2581 160.71 77.2695 160.669 77.2972C160.627 77.325 160.597 77.3671 160.584 77.4157C160.525 77.6393 160.417 77.8356 160.272 77.9837C160.087 78.1725 159.857 78.2635 159.64 78.2328L159.639 78.2327C159.612 78.2288 159.585 78.2303 159.559 78.237C159.533 78.2436 159.508 78.2553 159.487 78.2714C159.465 78.2875 159.447 78.3077 159.433 78.3308C159.42 78.3539 159.411 78.3795 159.407 78.4061C159.403 78.4327 159.404 78.4597 159.411 78.4858C159.418 78.5118 159.429 78.5362 159.445 78.5577C159.462 78.5792 159.482 78.5973 159.505 78.611C159.528 78.6247 159.553 78.6338 159.58 78.6376C159.692 78.6536 159.58 78.6376 159.58 78.6376L164.501 79.3426C164.803 79.386 165.113 79.2906 165.371 79.0791ZM165.427 78.34C165.37 78.4692 165.291 78.5873 165.193 78.6889C165.008 78.8782 164.777 78.9689 164.559 78.9379L160.476 78.3529C160.507 78.3265 160.536 78.2988 160.564 78.2699C160.723 78.1054 160.846 77.9095 160.924 77.6948L165.427 78.34Z" fill="#111111"/>
<path d="M162.271 68.127L167.191 68.832L160.599 65.316L155.678 64.6109L162.271 68.127Z" fill="#ECBA85"/>
<path d="M167.321 68.99C167.347 68.9687 167.367 68.9412 167.38 68.9101C167.393 68.8791 167.398 68.8453 167.395 68.8118C167.392 68.7784 167.38 68.7462 167.361 68.7183C167.343 68.6903 167.317 68.6674 167.288 68.6516L160.695 65.1356C160.674 65.1245 160.651 65.117 160.628 65.1135L155.707 64.4085C155.659 64.4014 155.611 64.4115 155.57 64.4368C155.529 64.4622 155.498 64.5013 155.483 64.5471C155.468 64.593 155.47 64.6426 155.488 64.6873C155.506 64.732 155.539 64.7689 155.582 64.7913L162.174 68.3074C162.195 68.3185 162.218 68.3259 162.242 68.3294L167.162 69.0345C167.19 69.0385 167.219 69.0366 167.246 69.029C167.274 69.0213 167.299 69.0081 167.321 68.99ZM160.534 65.5133L166.067 68.4641L162.336 67.9295L156.802 64.9787L160.534 65.5133Z" fill="#111111"/>
<path d="M160.781 77.4678L165.702 78.1729L167.761 70.4061L162.841 69.7011L160.781 77.4678Z" fill="#ECBA85"/>
<path d="M165.832 78.3308C165.865 78.3036 165.889 78.2665 165.9 78.225L167.959 70.4582C167.966 70.4303 167.968 70.4012 167.963 70.3727C167.958 70.3443 167.948 70.3171 167.932 70.2931C167.916 70.2691 167.895 70.2487 167.871 70.2332C167.846 70.2178 167.819 70.2077 167.79 70.2037L162.87 69.4986C162.82 69.4915 162.77 69.5029 162.728 69.5306C162.686 69.5583 162.656 69.6003 162.643 69.6488L160.584 77.4156C160.576 77.4435 160.575 77.4726 160.579 77.5011C160.584 77.5296 160.595 77.5567 160.611 77.5807C160.627 77.6048 160.647 77.6252 160.672 77.6406C160.696 77.656 160.724 77.6661 160.752 77.6702L165.673 78.3752C165.701 78.3792 165.73 78.3773 165.757 78.3696C165.784 78.362 165.81 78.3487 165.832 78.3308ZM167.505 70.5756L165.551 77.9443L161.038 77.2978L162.992 69.9291L167.505 70.5756Z" fill="#111111"/>
<path d="M162.84 69.7009L167.761 70.4059C167.935 69.746 167.689 69.0621 167.191 68.832L162.27 68.127C162.768 68.357 163.014 69.041 162.84 69.7009Z" fill="#ECBA85"/>
<path d="M167.891 70.564C167.924 70.5367 167.948 70.4995 167.959 70.4577C168.159 69.6973 167.866 68.9185 167.277 68.6463C167.259 68.638 167.24 68.6323 167.22 68.6295L162.3 67.9245C162.251 67.9176 162.202 67.9284 162.161 67.9549C162.119 67.9814 162.089 68.0219 162.075 68.0689C162.061 68.116 162.064 68.1664 162.084 68.2111C162.105 68.2558 162.14 68.2918 162.185 68.3124C162.589 68.4996 162.791 69.0865 162.643 69.6487C162.635 69.6766 162.634 69.7057 162.639 69.7341C162.643 69.7626 162.654 69.7897 162.67 69.8137C162.686 69.8377 162.707 69.8581 162.731 69.8735C162.755 69.8889 162.783 69.8989 162.811 69.903L167.732 70.6081C167.76 70.6122 167.789 70.6105 167.816 70.6029C167.843 70.5953 167.869 70.5821 167.891 70.564ZM167.13 69.03C167.477 69.208 167.665 69.6844 167.598 70.1762L163.083 69.5292C163.14 69.1234 163.06 68.7271 162.876 68.4205L167.13 69.03Z" fill="#111111"/>
<path d="M110.664 85.8948C110.901 86.4857 111.472 86.7128 111.98 86.4206L118.942 82.8414C120.232 84.633 121.735 86.1584 123.398 87.3782L121.939 96.5748C121.809 97.2492 122.102 97.8969 122.617 98.0738L128.645 100.136C128.979 100.249 129.337 100.134 129.604 99.8613C129.745 99.7168 129.861 99.528 129.936 99.3056L133.196 90.7234C135.178 90.7473 137.173 90.4133 139.12 89.7292L143.183 97.0787C143.462 97.6394 144.05 97.8067 144.537 97.4648L150.259 93.4252C150.318 93.3839 150.372 93.3372 150.422 93.2858C150.792 92.9079 150.943 92.2719 150.771 91.7284L148.411 83.1753C149.926 81.4199 151.246 79.4163 152.33 77.2253L159.543 78.4227C159.856 78.4943 160.175 78.375 160.418 78.1267C160.582 77.9593 160.711 77.7331 160.781 77.4675L162.84 69.7007C163.014 69.0408 162.768 68.3569 162.271 68.1268L155.678 64.6108C155.839 62.1001 155.713 59.6024 155.305 57.1896L161.431 51.535C161.914 51.0496 162.052 50.3527 161.83 49.7998L159.024 42.8508C158.783 42.2631 158.21 42.0324 157.708 42.3248L150.746 45.9042C149.453 44.1156 147.953 42.587 146.287 41.3704L147.744 32.1705C147.876 31.4996 147.584 30.8453 147.071 30.6718L141.041 28.6128C140.704 28.497 140.348 28.6119 140.081 28.885C139.94 29.0293 139.823 29.2179 139.747 29.4397L136.492 38.0225C134.508 37.9951 132.513 38.3291 130.566 39.0131L126.499 31.6665C126.22 31.1057 125.634 30.9422 125.148 31.2841L119.426 35.317C119.368 35.3583 119.313 35.4049 119.263 35.4562C118.892 35.8347 118.74 36.4734 118.916 37.0173L121.274 45.5668C119.759 47.3222 118.441 49.3295 117.355 51.5168L110.143 50.3194C109.831 50.2482 109.514 50.3674 109.272 50.6146C109.107 50.783 108.977 51.0109 108.906 51.2782L106.841 59.0444C106.668 59.7042 106.916 60.3919 107.411 60.6183L114.006 64.1381C113.846 66.642 113.974 69.1434 114.382 71.5561L108.254 77.2071C107.768 77.6956 107.63 78.3925 107.853 78.9454L110.664 85.8948ZM143.751 78.6871C137.121 85.4581 127.759 84.5384 122.84 76.6331C117.921 68.7279 119.308 56.83 125.937 50.059C132.567 43.288 141.929 44.2077 146.848 52.1131C151.767 60.0182 150.38 71.9161 143.751 78.6871Z" fill="#DF803F"/>
<path d="M150.455 93.5334C150.495 93.5007 150.533 93.4659 150.569 93.429C150.993 92.9955 151.157 92.2709 150.967 91.667L148.638 83.226C150.105 81.5115 151.385 79.5703 152.446 77.4521L159.509 78.6248C159.872 78.708 160.261 78.5798 160.564 78.2699C160.759 78.0711 160.902 77.8117 160.979 77.5196L163.038 69.7531C163.239 68.9921 162.946 68.2135 162.357 67.9415L155.891 64.4924C156.037 62.0495 155.915 59.6194 155.526 57.265L161.57 51.6855C162.1 51.1528 162.278 50.3666 162.02 49.7235L159.214 42.7743C159.067 42.4149 158.809 42.1574 158.487 42.0484C158.198 41.9503 157.884 41.9859 157.605 42.1485L150.808 45.6426C149.548 43.9277 148.103 42.4608 146.508 41.2797L147.946 32.2023C148.098 31.4304 147.751 30.6859 147.137 30.4783L141.107 28.4195C140.706 28.2816 140.267 28.4023 139.935 28.7422C139.769 28.9116 139.637 29.1299 139.554 29.3737L136.352 37.8169C134.447 37.8069 132.534 38.1252 130.662 38.7639L126.678 31.5676C126.517 31.2419 126.25 31.0138 125.93 30.9333C125.628 30.8567 125.308 30.922 125.03 31.1173L119.309 35.1503C119.241 35.1978 119.176 35.2529 119.117 35.3137C118.689 35.7505 118.527 36.4772 118.722 37.0807L121.048 45.5168C119.591 47.2205 118.31 49.162 117.24 51.2907L110.176 50.1182C109.816 50.0353 109.428 50.1634 109.126 50.4721C108.93 50.6719 108.786 50.9327 108.709 51.2269L106.644 58.9927C106.443 59.7565 106.736 60.5353 107.326 60.8049L113.794 64.2572C113.648 66.6918 113.772 69.1209 114.162 71.4813L108.116 77.0572C107.583 77.5918 107.404 78.3791 107.663 79.0223L110.474 85.9722C110.618 86.3294 110.872 86.5865 111.191 86.6965C111.481 86.7968 111.797 86.7619 112.081 86.5983L118.879 83.1039C120.126 84.8077 121.571 86.2753 123.177 87.4695L121.737 96.5436C121.589 97.3131 121.938 98.0572 122.55 98.268L128.578 100.33C128.98 100.466 129.418 100.344 129.75 100.005C129.917 99.8344 130.048 99.6153 130.13 99.3709L133.336 90.9297C135.243 90.9363 137.154 90.6169 139.024 89.9796L143.004 97.1787C143.167 97.5056 143.435 97.7346 143.756 97.8156C144.059 97.8923 144.378 97.8272 144.655 97.6328L150.377 93.5929C150.404 93.5739 150.43 93.5541 150.455 93.5334ZM152.201 77.0675C152.179 77.0855 152.16 77.1083 152.147 77.1351C151.071 79.3096 149.762 81.297 148.257 83.0422C148.235 83.0676 148.219 83.0981 148.212 83.131C148.204 83.1638 148.205 83.198 148.214 83.2304L150.575 91.7835C150.723 92.2567 150.6 92.813 150.277 93.1432C150.234 93.1864 150.189 93.2251 150.142 93.2583L144.42 97.2981C144.242 97.4227 144.042 97.4657 143.857 97.4188C143.654 97.3675 143.479 97.2144 143.367 96.988L139.299 89.6305C139.251 89.5433 139.147 89.5037 139.052 89.5367C137.13 90.2122 135.16 90.5427 133.199 90.5192C133.157 90.5187 133.116 90.5311 133.081 90.5547C133.046 90.5783 133.02 90.612 133.005 90.6513L129.745 99.2334C129.68 99.427 129.582 99.5921 129.458 99.7187C129.239 99.9425 128.959 100.027 128.71 99.9427L122.683 97.8806C122.269 97.7383 122.031 97.1816 122.14 96.6135L123.6 87.4102C123.606 87.3732 123.602 87.3352 123.587 87.3005C123.573 87.2658 123.55 87.2357 123.52 87.2135C121.863 85.9987 120.379 84.4876 119.108 82.7221C119.08 82.6824 119.038 82.6542 118.99 82.6428C118.943 82.6314 118.892 82.6374 118.849 82.6598L111.887 86.239C111.696 86.3487 111.504 86.3714 111.325 86.3096C111.12 86.2387 110.953 86.0645 110.854 85.8185L110.854 85.8182L108.043 78.8687C107.844 78.3755 107.987 77.7655 108.4 77.3516L114.521 71.7067C114.546 71.6837 114.565 71.6547 114.576 71.6224C114.587 71.5902 114.59 71.5557 114.584 71.5222C114.178 69.1161 114.052 66.6362 114.211 64.1512C114.214 64.112 114.205 64.073 114.186 64.0387C114.167 64.0045 114.138 63.9764 114.103 63.958L107.508 60.4384C107.092 60.2477 106.891 59.6609 107.04 59.0967L109.104 51.3309C109.164 51.105 109.272 50.9072 109.418 50.7581C109.619 50.5535 109.866 50.4662 110.097 50.5192L117.322 51.7188C117.365 51.726 117.409 51.7191 117.448 51.6991C117.488 51.6791 117.519 51.6471 117.539 51.6077C118.624 49.4217 119.933 47.4343 121.429 45.7005C121.451 45.6751 121.467 45.6446 121.474 45.6119C121.481 45.5791 121.48 45.545 121.472 45.5126L119.113 36.9627C118.96 36.4893 119.083 35.9321 119.409 35.5992C119.45 35.5569 119.496 35.5184 119.544 35.4843L125.265 31.4513C125.444 31.326 125.644 31.2826 125.83 31.3295C126.031 31.3804 126.204 31.5325 126.316 31.7578L130.387 39.1121C130.41 39.1543 130.448 39.1869 130.493 39.2041C130.538 39.2212 130.588 39.2218 130.634 39.2058C132.56 38.5291 134.53 38.1998 136.489 38.2269C136.575 38.228 136.653 38.1751 136.683 38.0947L139.938 29.5119C140.004 29.3195 140.103 29.154 140.227 29.0279C140.45 28.8001 140.722 28.7196 140.974 28.8063L147.005 30.8655C147.419 31.0056 147.655 31.5616 147.543 32.1312L146.085 41.339C146.079 41.3761 146.083 41.4141 146.098 41.4489C146.112 41.4836 146.136 41.5137 146.166 41.5359C147.81 42.7365 149.295 44.2468 150.58 46.0244C150.609 46.064 150.651 46.092 150.698 46.1034C150.746 46.1147 150.796 46.1087 150.839 46.0863L157.802 42.507C157.989 42.3982 158.177 42.3754 158.355 42.4359C158.563 42.5062 158.733 42.6814 158.835 42.9289L161.64 49.8769C161.839 50.3704 161.697 50.979 161.286 51.3913L155.167 57.0399C155.116 57.0868 155.092 57.1562 155.104 57.2244C155.509 59.6238 155.634 62.1048 155.474 64.5984C155.471 64.6376 155.48 64.6766 155.499 64.7109C155.518 64.7451 155.547 64.7732 155.582 64.7916L162.174 68.3076C162.59 68.4999 162.791 69.087 162.643 69.6492L160.583 77.4156C160.525 77.6396 160.417 77.836 160.272 77.9841C160.07 78.19 159.821 78.277 159.588 78.2238L152.364 77.0238C152.335 77.0191 152.306 77.0205 152.278 77.028C152.249 77.0355 152.223 77.049 152.201 77.0675ZM142.456 80.1507C142.96 79.7371 143.441 79.2963 143.897 78.8301C150.578 72.0066 151.98 59.9728 147.022 52.005C144.636 48.1718 141.141 45.8232 137.179 45.392C133.124 44.9506 129.08 46.5572 125.791 49.9161C119.11 56.7396 117.708 68.7735 122.666 76.7414C125.051 80.5744 128.547 82.923 132.508 83.3544C135.989 83.7331 139.462 82.6028 142.456 80.1507ZM127.489 48.9128C130.398 46.5301 133.765 45.4315 137.135 45.7984C140.969 46.2159 144.357 48.4969 146.674 52.2212C151.539 60.0388 150.162 71.8472 143.605 78.5441C140.405 81.8119 136.481 83.3752 132.553 82.9476C128.719 82.5302 125.331 80.2491 123.014 76.525C118.149 68.7074 119.526 56.8989 126.083 50.202C126.528 49.7468 126.998 49.3164 127.489 48.9128Z" fill="#111111"/>
</g>
<g clip-path="url(#clip2_372_740)">
<path d="M81.9606 201.6C89.8086 202.149 97.582 204.808 104.408 209.159L84.0926 243.09L68.5658 202.811C72.9344 201.68 77.4592 201.271 81.9606 201.6Z" fill="#ECBA85"/>
<path d="M84.0646 243.237C84.0396 243.232 84.0161 243.221 83.9966 243.205C83.977 243.189 83.9619 243.167 83.9527 243.144L68.4259 202.866C68.4183 202.846 68.415 202.825 68.4161 202.804C68.4172 202.783 68.4227 202.762 68.4324 202.743C68.442 202.724 68.4555 202.708 68.4719 202.695C68.4884 202.681 68.5075 202.672 68.5279 202.666C72.912 201.53 77.4532 201.119 81.9708 201.45C89.7773 201.996 97.5642 204.618 104.489 209.033C104.522 209.054 104.545 209.087 104.554 209.125C104.563 209.163 104.557 209.203 104.537 209.236L84.2221 243.167C84.2076 243.191 84.1867 243.211 84.1616 243.224C84.1364 243.236 84.1082 243.242 84.0801 243.239C84.0749 243.239 84.0697 243.238 84.0646 243.237ZM68.7674 202.915L84.1224 242.748L104.204 209.208C97.3516 204.867 89.6599 202.289 81.9499 201.75C77.5214 201.426 73.0698 201.819 68.7674 202.915Z" fill="black"/>
<path d="M84.0929 243.09L80.578 247.412L65.0511 207.134L68.566 202.812L84.0929 243.09Z" fill="black"/>
<path d="M80.55 247.559C80.5249 247.555 80.5015 247.544 80.4819 247.527C80.4623 247.511 80.4472 247.49 80.438 247.466L64.9107 207.188C64.9012 207.164 64.8984 207.137 64.9026 207.111C64.9067 207.085 64.9177 207.06 64.9343 207.04L68.4494 202.717C68.466 202.696 68.4878 202.681 68.5124 202.671C68.537 202.662 68.5637 202.659 68.5897 202.663C68.6158 202.667 68.6404 202.678 68.6609 202.695C68.6814 202.711 68.6972 202.733 68.7065 202.758L84.2333 243.036C84.2427 243.061 84.2455 243.088 84.2414 243.114C84.2372 243.14 84.2263 243.164 84.2096 243.185L80.6947 247.507C80.6781 247.527 80.6564 247.543 80.6318 247.552C80.6071 247.562 80.5805 247.565 80.5544 247.56L80.55 247.559ZM65.2229 207.161L80.625 247.116L83.9212 243.063L68.519 203.108L65.2229 207.161Z" fill="black"/>
<path d="M104.408 209.159C111.595 213.743 117.734 220.205 121.792 228.071C130.122 244.224 127.527 262.106 116.755 273.397L84.0934 243.09L104.408 209.159Z" fill="#FAECDA"/>
<path d="M116.726 273.545C116.698 273.539 116.673 273.526 116.652 273.507L83.9903 243.2C83.9651 243.176 83.9487 243.145 83.9438 243.111C83.939 243.077 83.946 243.042 83.9637 243.013L104.278 209.083C104.289 209.065 104.302 209.05 104.319 209.038C104.335 209.027 104.353 209.018 104.373 209.014C104.393 209.009 104.413 209.008 104.433 209.012C104.452 209.015 104.471 209.022 104.488 209.033C111.948 213.791 117.977 220.35 121.925 228.002C125.968 235.843 127.579 244.341 126.585 252.576C125.614 260.616 122.252 267.852 116.864 273.502C116.846 273.52 116.824 273.533 116.8 273.541C116.776 273.548 116.751 273.55 116.726 273.545ZM84.2842 243.062L116.748 273.186C122.032 267.6 125.33 260.464 126.286 252.539C127.274 244.364 125.673 235.927 121.658 228.139C117.757 220.58 111.812 214.092 104.457 209.369L84.2842 243.062Z" fill="black"/>
<path d="M118.582 271.324L115.067 275.646C114.487 276.359 113.878 277.05 113.24 277.719L116.755 273.397C117.393 272.729 118.002 272.038 118.582 271.324Z" fill="white"/>
<path d="M113.211 277.867C113.186 277.862 113.162 277.851 113.142 277.834C113.122 277.817 113.107 277.795 113.098 277.771C113.089 277.746 113.087 277.72 113.091 277.694C113.096 277.669 113.106 277.645 113.123 277.625L116.638 273.302C117.274 272.636 117.883 271.944 118.465 271.229C118.477 271.213 118.492 271.2 118.51 271.19C118.527 271.18 118.546 271.174 118.567 271.171C118.587 271.169 118.607 271.171 118.626 271.176C118.645 271.182 118.664 271.191 118.679 271.204C118.695 271.217 118.708 271.232 118.717 271.25C118.727 271.268 118.732 271.287 118.734 271.308C118.736 271.328 118.734 271.348 118.727 271.367C118.721 271.386 118.711 271.404 118.698 271.419L115.183 275.741C114.599 276.459 113.987 277.153 113.349 277.823C113.331 277.841 113.309 277.855 113.285 277.863C113.261 277.87 113.236 277.872 113.211 277.867Z" fill="black"/>
<path d="M84.093 243.09L116.755 273.397C113.2 277.107 108.885 280.007 104.106 281.898C98.4342 284.156 92.3093 285.006 86.1782 284.577C81.2117 284.215 76.334 283.067 71.7271 281.177L84.093 243.09Z" fill="#ECBA85"/>
<path d="M80.7222 284.014C77.6238 283.414 74.592 282.511 71.671 281.316C71.6357 281.302 71.6071 281.275 71.591 281.24C71.5749 281.206 71.5724 281.167 71.5842 281.13L83.9503 243.043C83.9581 243.019 83.9718 242.997 83.9902 242.98C84.0085 242.963 84.031 242.95 84.0554 242.944C84.0799 242.938 84.1055 242.938 84.13 242.944C84.1545 242.95 84.1771 242.962 84.1956 242.979L116.857 273.287C116.872 273.3 116.884 273.317 116.892 273.335C116.9 273.353 116.905 273.372 116.905 273.392C116.906 273.412 116.903 273.432 116.896 273.451C116.888 273.469 116.878 273.486 116.864 273.501C113.296 277.228 108.963 280.141 104.162 282.037C98.5634 284.266 92.5095 285.17 86.1679 284.726C84.3401 284.598 82.5215 284.36 80.7222 284.014ZM71.9139 281.09C76.4673 282.946 81.2851 284.072 86.1893 284.427C92.4855 284.867 98.495 283.97 104.051 281.759C108.764 279.897 113.023 277.048 116.541 273.404L84.1636 243.36L71.9139 281.09Z" fill="black"/>
<path d="M84.0925 243.09L71.7262 281.177C64.2074 278.11 57.5511 273.255 52.3355 267.035L84.0925 243.09Z" fill="#FAECDA"/>
<path d="M71.6985 281.324C71.6885 281.323 71.6788 281.32 71.6695 281.316C64.1296 278.237 57.454 273.368 52.2208 267.131C52.2077 267.116 52.1979 267.098 52.1921 267.078C52.1862 267.059 52.1844 267.038 52.1867 267.018C52.189 266.998 52.1954 266.978 52.2056 266.961C52.2157 266.943 52.2293 266.927 52.2455 266.915L84.0029 242.97C84.0284 242.951 84.0594 242.94 84.0914 242.94C84.1234 242.939 84.1546 242.949 84.1807 242.968C84.2067 242.986 84.2261 243.013 84.2362 243.043C84.2462 243.073 84.2463 243.106 84.2364 243.136L71.8704 281.224C71.8591 281.258 71.8354 281.288 71.8039 281.306C71.7723 281.325 71.7351 281.332 71.6991 281.325L71.6985 281.324ZM52.5533 267.06C57.705 273.16 64.2492 277.934 71.6339 280.977L83.8034 243.498L52.5533 267.06Z" fill="black"/>
<path d="M104.105 281.898C98.4338 284.155 92.3089 285.006 86.1778 284.577C81.2113 284.215 76.3336 283.067 71.7267 281.177C64.2078 278.11 57.5514 273.255 52.3357 267.035L48.8208 271.357C54.0365 277.577 60.6928 282.432 68.2117 285.499C72.8186 287.389 77.6963 288.537 82.6628 288.899C88.7939 289.328 94.9188 288.477 100.59 286.22C105.37 284.329 109.684 281.429 113.24 277.719L116.754 273.397C113.199 277.107 108.885 280.007 104.105 281.898Z" fill="#DF803F"/>
<path d="M77.2062 288.336C74.1078 287.736 71.076 286.833 68.155 285.638C60.6148 282.56 53.9388 277.691 48.7054 271.453C48.683 271.427 48.6707 271.393 48.6704 271.358C48.6702 271.323 48.682 271.289 48.704 271.262L52.2189 266.94C52.2329 266.923 52.2505 266.909 52.2705 266.9C52.2905 266.89 52.3124 266.885 52.3346 266.885C52.3567 266.885 52.3786 266.89 52.3988 266.899C52.4189 266.908 52.4367 266.922 52.4509 266.939C57.6529 273.139 64.2888 277.978 71.7837 281.038C76.3751 282.924 81.2377 284.068 86.1887 284.427C92.4849 284.867 98.4943 283.97 104.05 281.759C108.811 279.878 113.108 276.99 116.646 273.293C116.673 273.265 116.71 273.248 116.749 273.246C116.788 273.245 116.826 273.258 116.855 273.284C116.884 273.31 116.902 273.346 116.905 273.385C116.909 273.423 116.896 273.462 116.872 273.492L113.357 277.814C109.787 281.546 105.451 284.461 100.647 286.36C95.0484 288.588 88.9944 289.492 82.6527 289.049C80.8246 288.92 79.0058 288.682 77.2062 288.336ZM49.0157 271.356C54.2059 277.51 60.8122 282.315 68.2681 285.36C72.8595 287.246 77.7219 288.39 82.6729 288.749C88.9693 289.189 94.9787 288.292 100.534 286.081C105.295 284.2 109.592 281.312 113.13 277.616L115.009 275.305C111.824 278.179 108.15 280.459 104.161 282.038C98.5627 284.266 92.5087 285.17 86.1672 284.727C81.1844 284.366 76.2906 283.215 71.6697 281.316C64.1866 278.26 57.5539 273.441 52.3376 267.27L49.0157 271.356Z" fill="black"/>
</g>
<g clip-path="url(#clip3_372_740)">
<path d="M357.039 235.772L133.18 288.579C125.273 290.444 116.944 285.345 114.57 277.185L68.3978 118.488C66.6573 112.506 68.6023 106.544 72.8799 103.053L70.0753 105.341C65.797 108.833 63.8526 114.795 65.5929 120.777L111.765 279.474C114.139 287.634 122.468 292.733 130.375 290.868L354.234 238.061C356.26 237.59 358.153 236.663 359.767 235.35L362.572 233.061C360.958 234.374 359.066 235.301 357.039 235.772Z" fill="#DF803F"/>
<path d="M125.854 291.39C119.433 290.859 113.525 286.2 111.583 279.527L65.4109 120.83C63.7073 114.975 65.4917 108.838 69.9553 105.195L72.76 102.906C72.7793 102.89 72.8016 102.878 72.8255 102.871C72.8494 102.864 72.8745 102.862 72.8993 102.864C72.9242 102.867 72.9483 102.874 72.9702 102.886C72.9922 102.898 73.0117 102.914 73.0274 102.933C73.0432 102.953 73.055 102.975 73.0622 102.999C73.0694 103.023 73.0718 103.048 73.0693 103.072C73.0668 103.097 73.0594 103.121 73.0476 103.143C73.0357 103.165 73.0197 103.185 73.0004 103.201C68.6546 106.747 66.9199 112.727 68.5804 118.435L114.753 277.132C117.094 285.181 125.341 290.234 133.136 288.394L356.995 235.587C358.994 235.125 360.861 234.21 362.452 232.913C362.471 232.898 362.493 232.886 362.517 232.879C362.541 232.871 362.566 232.869 362.591 232.872C362.616 232.874 362.64 232.882 362.662 232.893C362.684 232.905 362.703 232.921 362.719 232.941C362.735 232.96 362.747 232.982 362.754 233.006C362.761 233.03 362.763 233.055 362.761 233.08C362.758 233.105 362.751 233.129 362.739 233.151C362.727 233.173 362.711 233.192 362.692 233.208L359.887 235.497C358.252 236.83 356.333 237.77 354.278 238.246L130.419 291.053C128.924 291.405 127.384 291.518 125.854 291.39ZM70.5149 105.229L70.1954 105.49C65.8498 109.035 64.115 115.016 65.7757 120.724L111.948 279.421C114.29 287.47 122.536 292.522 130.331 290.683L354.19 237.876C356.19 237.414 358.056 236.499 359.647 235.202L359.965 234.943C359.044 235.384 358.077 235.724 357.082 235.957L133.224 288.764C125.235 290.648 116.785 285.478 114.388 277.238L68.2156 118.541C66.8352 113.796 67.7447 108.867 70.5149 105.229Z" fill="black"/>
<path d="M302.271 47.5347C310.178 45.6696 318.507 50.7691 320.881 58.9285L367.053 217.626C369.427 225.785 364.945 233.907 357.038 235.772L133.179 288.579C125.272 290.444 116.943 285.345 114.569 277.185L68.3973 118.488C66.0233 110.328 70.5058 102.207 78.4124 100.342L302.271 47.5347Z" fill="#ECBA85"/>
<path d="M128.658 289.101C122.238 288.57 116.329 283.911 114.387 277.238L68.2151 118.541C67.0156 114.417 67.4892 110.203 69.5491 106.671C70.4947 105.039 71.7656 103.618 73.2828 102.498C74.8 101.377 76.5312 100.58 78.3691 100.157L302.228 47.3498C310.217 45.4657 318.666 50.6357 321.064 58.8754L367.236 217.573C368.435 221.697 367.962 225.911 365.902 229.443C364.956 231.075 363.685 232.496 362.168 233.616C360.651 234.737 358.92 235.534 357.082 235.957L133.223 288.764C131.729 289.116 130.188 289.229 128.658 289.101ZM306.765 47.3915C305.274 47.2664 303.773 47.3773 302.316 47.7198L78.4563 100.527C76.6687 100.939 74.9847 101.714 73.509 102.804C72.0332 103.894 70.7971 105.275 69.8773 106.862C67.8708 110.303 67.4099 114.413 68.5799 118.435L114.752 277.132C116.649 283.651 122.42 288.204 128.686 288.723C130.177 288.848 131.679 288.737 133.136 288.394L356.995 235.587C358.782 235.175 360.466 234.4 361.942 233.31C363.418 232.221 364.654 230.839 365.573 229.252C367.58 225.811 368.041 221.701 366.871 217.679L320.699 58.9816C318.802 52.4632 313.031 47.9097 306.765 47.3915Z" fill="black"/>
<path d="M357.509 215.451L313.746 65.0343C311.981 58.9692 305.788 55.1776 299.911 56.5641L85.3843 107.17C79.5065 108.556 76.1743 114.595 77.9388 120.66L121.702 271.077C123.467 277.142 129.661 280.942 135.539 279.556L350.066 228.95C355.945 227.564 359.273 221.517 357.509 215.451Z" fill="white"/>
<path d="M132.177 279.992C127.383 279.596 122.97 276.115 121.52 271.13L77.756 120.713C76.8608 117.635 77.2147 114.488 78.7528 111.85C79.4591 110.631 80.4083 109.571 81.5415 108.734C82.6747 107.897 83.9676 107.302 85.3403 106.986L299.867 56.3791C305.831 54.972 312.138 58.8312 313.928 64.9814L357.691 215.398C358.587 218.479 358.232 221.63 356.692 224.271C355.987 225.489 355.038 226.55 353.906 227.387C352.773 228.223 351.481 228.819 350.109 229.135L135.582 279.741C134.467 280.003 133.318 280.088 132.177 279.992ZM303.248 56.5062C302.144 56.4134 301.033 56.4953 299.954 56.7487L85.4275 107.355C84.1051 107.66 82.8594 108.233 81.7677 109.04C80.676 109.846 79.7616 110.868 79.0811 112.042C77.5959 114.589 77.255 117.63 78.121 120.607L121.884 271.024C123.619 276.988 129.725 280.732 135.495 279.371L350.022 228.765C351.344 228.46 352.588 227.887 353.679 227.081C354.77 226.275 355.684 225.253 356.364 224.079C357.851 221.53 358.193 218.484 357.326 215.505L313.562 65.0875C312.158 60.2612 307.886 56.8898 303.248 56.5062ZM95.1217 195.026C94.8876 195.083 94.6679 195.188 94.4763 195.335C94.2847 195.481 94.1254 195.665 94.0084 195.876C93.8914 196.087 93.8191 196.319 93.7962 196.559C93.7732 196.799 93.8001 197.042 93.8751 197.271C94.0104 197.755 94.3238 198.17 94.7526 198.433C95.1813 198.696 95.6936 198.786 96.1865 198.687C96.4199 198.627 96.6386 198.521 96.8291 198.373C97.0195 198.226 97.1775 198.04 97.2933 197.829C97.4092 197.618 97.4804 197.385 97.5024 197.145C97.5245 196.906 97.497 196.664 97.4217 196.435C97.287 195.953 96.975 195.54 96.5483 195.279C96.1216 195.017 95.6118 194.927 95.1215 195.027" fill="black"/>
<path d="M95.6129 198.916C95.1702 198.873 94.7506 198.699 94.4083 198.415C94.066 198.131 93.8167 197.751 93.6926 197.324C93.612 197.06 93.5864 196.782 93.6174 196.508C93.6485 196.233 93.7355 195.969 93.8731 195.729C94.0023 195.507 94.176 195.313 94.3833 195.16C94.5906 195.007 94.8271 194.898 95.0781 194.841C95.6158 194.731 96.175 194.829 96.6436 195.115C97.1121 195.4 97.4553 195.853 97.6044 196.381C97.6855 196.647 97.7111 196.927 97.6797 197.203C97.6483 197.479 97.5605 197.746 97.4218 197.987C97.2942 198.208 97.1226 198.4 96.9177 198.552C96.7127 198.704 96.4787 198.812 96.2303 198.87C96.0282 198.918 95.8198 198.933 95.6129 198.916ZM95.1653 195.211C94.9646 195.257 94.7755 195.343 94.6097 195.466C94.4439 195.588 94.3049 195.743 94.2015 195.921C94.09 196.115 94.0198 196.331 93.995 196.554C93.9703 196.777 93.9916 197.003 94.0576 197.217C94.1792 197.655 94.4617 198.03 94.8484 198.268C95.2351 198.506 95.6975 198.589 96.1429 198.501C96.3412 198.455 96.5278 198.368 96.6913 198.247C96.8548 198.126 96.9916 197.973 97.0933 197.796C97.2061 197.6 97.2773 197.382 97.3025 197.157C97.3277 196.932 97.3063 196.704 97.2398 196.487C97.1187 196.052 96.8377 195.679 96.4531 195.442C96.0685 195.205 95.6086 195.123 95.1657 195.211L95.1653 195.211Z" fill="black"/>
<g clip-path="url(#clip4_372_740)">
<rect width="214.768" height="161.076" rx="10.7384" transform="matrix(0.97715 -0.212549 0.280194 0.959944 88.8276 114.714)" fill="white"/>
<g clip-path="url(#clip5_372_740)">
<rect width="51.6785" height="144.968" rx="2.6846" transform="matrix(0.97715 -0.212549 0.280194 0.959944 98.9541 120.733)" fill="#FAECDA"/>
<g clip-path="url(#clip6_372_740)">
<mask id="path-70-inside-1_372_740" fill="white">
<path d="M105.705 124.746L145.71 116.044L148.888 126.932L108.883 135.634L105.705 124.746Z"/>
</mask>
<path d="M108.283 131.332L106.967 126.822L108.855 126.411C109.262 126.322 109.628 126.311 109.954 126.377C110.285 126.443 110.564 126.578 110.792 126.785C111.019 126.991 111.181 127.259 111.278 127.59C111.374 127.921 111.379 128.223 111.292 128.498C111.203 128.769 111.032 129 110.776 129.193C110.524 129.38 110.195 129.518 109.788 129.606L108.371 129.915L108.641 129.452L109.135 131.146L108.283 131.332ZM111.287 130.678L109.648 129.294L110.56 129.096L112.205 130.479L111.287 130.678ZM108.667 129.542L108.17 129.225L109.547 128.926C109.923 128.844 110.182 128.703 110.324 128.503C110.47 128.302 110.501 128.06 110.419 127.777C110.335 127.489 110.174 127.289 109.936 127.176C109.703 127.062 109.399 127.046 109.023 127.128L107.646 127.428L107.906 126.933L108.667 129.542ZM114.66 129.992C114.271 130.077 113.908 130.076 113.571 129.989C113.238 129.898 112.951 129.736 112.712 129.505C112.477 129.273 112.31 128.987 112.21 128.648C112.11 128.304 112.098 127.985 112.175 127.69C112.255 127.389 112.408 127.134 112.635 126.925C112.867 126.715 113.157 126.571 113.507 126.495C113.848 126.421 114.173 126.428 114.483 126.516C114.792 126.604 115.062 126.765 115.293 126.998C115.524 127.231 115.692 127.528 115.797 127.888C115.807 127.923 115.816 127.962 115.824 128.006C115.837 128.049 115.846 128.09 115.853 128.13L112.935 128.764L112.779 128.23L115.264 127.689L114.992 127.926C114.939 127.728 114.846 127.563 114.715 127.432C114.584 127.3 114.429 127.208 114.251 127.156C114.077 127.102 113.892 127.097 113.695 127.14C113.494 127.183 113.33 127.265 113.202 127.384C113.078 127.502 112.995 127.648 112.953 127.822C112.914 127.99 112.924 128.177 112.984 128.384L113.022 128.513C113.082 128.719 113.183 128.891 113.326 129.029C113.469 129.167 113.64 129.26 113.84 129.308C114.04 129.355 114.253 129.355 114.481 129.305C114.677 129.262 114.846 129.194 114.986 129.099C115.125 129.005 115.238 128.88 115.323 128.725L115.907 129.125C115.802 129.34 115.644 129.523 115.432 129.674C115.224 129.82 114.966 129.926 114.66 129.992ZM119.035 129.041C118.751 129.103 118.472 129.095 118.198 129.017C117.929 128.939 117.687 128.786 117.472 128.559C117.26 128.326 117.095 128.01 116.979 127.611C116.861 127.207 116.83 126.862 116.886 126.576C116.946 126.289 117.074 126.057 117.269 125.883C117.463 125.703 117.709 125.581 118.006 125.517C118.352 125.441 118.677 125.448 118.982 125.537C119.291 125.625 119.561 125.784 119.79 126.012C120.024 126.24 120.193 126.532 120.297 126.889C120.401 127.245 120.413 127.574 120.334 127.874C120.257 128.17 120.107 128.419 119.883 128.623C119.663 128.827 119.381 128.966 119.035 129.041ZM117.446 130.668L116.077 125.978L116.857 125.808L117.094 126.62L117.335 127.54L117.667 128.441L118.265 130.489L117.446 130.668ZM118.742 128.371C118.939 128.329 119.101 128.248 119.229 128.128C119.361 128.008 119.45 127.857 119.494 127.673C119.538 127.49 119.528 127.289 119.464 127.07C119.399 126.847 119.297 126.666 119.159 126.527C119.02 126.383 118.859 126.286 118.676 126.234C118.498 126.182 118.311 126.177 118.114 126.22C117.917 126.262 117.753 126.344 117.62 126.464C117.488 126.584 117.4 126.736 117.356 126.919C117.31 127.098 117.32 127.299 117.385 127.522C117.449 127.741 117.551 127.922 117.69 128.066C117.83 128.209 117.991 128.306 118.173 128.358C118.356 128.41 118.545 128.414 118.742 128.371ZM123.164 128.143C122.805 128.221 122.464 128.215 122.14 128.125C121.816 128.032 121.533 127.869 121.294 127.638C121.054 127.407 120.885 127.122 120.786 126.783C120.686 126.439 120.678 126.119 120.764 125.821C120.848 125.52 121.008 125.264 121.243 125.052C121.479 124.841 121.777 124.697 122.135 124.619C122.498 124.54 122.841 124.545 123.165 124.634C123.493 124.723 123.774 124.881 124.008 125.109C124.246 125.336 124.416 125.623 124.518 125.971C124.617 126.31 124.624 126.631 124.54 126.932C124.46 127.233 124.301 127.491 124.062 127.708C123.826 127.919 123.527 128.064 123.164 128.143ZM122.963 127.453C123.164 127.41 123.33 127.328 123.463 127.208C123.595 127.087 123.681 126.936 123.721 126.754C123.765 126.571 123.755 126.37 123.691 126.151C123.626 125.927 123.524 125.746 123.386 125.607C123.251 125.463 123.092 125.365 122.91 125.313C122.727 125.262 122.538 125.257 122.341 125.3C122.14 125.344 121.973 125.426 121.841 125.546C121.713 125.665 121.627 125.816 121.583 125.999C121.537 126.178 121.547 126.379 121.612 126.603C121.676 126.822 121.778 127.003 121.917 127.146C122.057 127.289 122.216 127.387 122.394 127.44C122.576 127.492 122.766 127.496 122.963 127.453ZM125.804 127.521L124.799 124.08L125.58 123.91L125.856 124.857L125.684 124.6C125.721 124.346 125.833 124.134 126.021 123.965C126.213 123.795 126.478 123.674 126.815 123.601L127.038 124.367C127.001 124.366 126.967 124.369 126.936 124.376C126.904 124.378 126.873 124.383 126.843 124.389C126.532 124.457 126.311 124.601 126.18 124.821C126.048 125.037 126.033 125.321 126.136 125.674L126.623 127.342L125.804 127.521ZM129.985 126.659C129.6 126.743 129.275 126.711 129.008 126.563C128.741 126.411 128.551 126.144 128.44 125.762L127.539 122.676L128.359 122.497L129.254 125.564C129.301 125.727 129.38 125.845 129.489 125.917C129.603 125.988 129.737 126.007 129.89 125.974C130.073 125.934 130.212 125.854 130.307 125.732L130.704 126.256C130.631 126.354 130.529 126.438 130.401 126.507C130.272 126.576 130.134 126.627 129.985 126.659ZM127.379 124.232L127.191 123.587L129.526 123.079L129.714 123.724L127.379 124.232ZM132.528 126.106C132.235 126.169 131.943 126.194 131.65 126.18C131.361 126.161 131.122 126.115 130.933 126.042L131.07 125.361C131.256 125.426 131.468 125.466 131.705 125.483C131.942 125.5 132.17 125.485 132.389 125.437C132.647 125.381 132.823 125.306 132.916 125.213C133.014 125.118 133.046 125.013 133.013 124.897C132.985 124.803 132.925 124.74 132.832 124.71C132.739 124.676 132.625 124.66 132.49 124.661C132.356 124.663 132.207 124.671 132.043 124.683C131.884 124.695 131.721 124.701 131.553 124.701C131.389 124.695 131.233 124.672 131.087 124.631C130.938 124.586 130.808 124.511 130.694 124.408C130.58 124.305 130.494 124.155 130.437 123.957C130.373 123.738 130.381 123.535 130.461 123.349C130.54 123.158 130.681 122.995 130.883 122.86C131.089 122.719 131.349 122.614 131.664 122.546C131.9 122.495 132.146 122.469 132.401 122.468C132.657 122.467 132.877 122.497 133.062 122.557L132.926 123.238C132.731 123.175 132.543 123.145 132.362 123.148C132.185 123.145 132.013 123.162 131.847 123.198C131.598 123.252 131.423 123.329 131.322 123.429C131.225 123.528 131.193 123.633 131.225 123.744C131.255 123.847 131.317 123.916 131.411 123.951C131.505 123.985 131.619 124.004 131.755 124.006C131.891 124.009 132.038 124.004 132.197 123.992C132.36 123.975 132.523 123.969 132.687 123.975C132.852 123.98 133.007 124.003 133.154 124.044C133.304 124.08 133.436 124.15 133.55 124.253C133.664 124.356 133.749 124.504 133.805 124.697C133.868 124.912 133.857 125.113 133.772 125.301C133.692 125.487 133.546 125.651 133.337 125.793C133.126 125.93 132.856 126.034 132.528 126.106Z" fill="#444444"/>
</g>
<path d="M148.7 126.288L108.695 134.99L109.071 136.278L149.076 127.577L148.7 126.288Z" fill="#DF803F" mask="url(#path-70-inside-1_372_740)"/>
<g clip-path="url(#clip7_372_740)">
<rect width="40.9401" height="2.6846" rx="1.3423" transform="matrix(0.97715 -0.212549 0.280194 0.959944 110.011 139.5)" fill="#ECBA85"/>
<rect width="34.2286" height="2.6846" rx="1.3423" transform="matrix(0.97715 -0.212549 0.280194 0.959944 112.268 147.231)" fill="#ECBA85"/>
<rect width="34.2286" height="2.6846" rx="1.3423" transform="matrix(0.97715 -0.212549 0.280194 0.959944 114.524 154.962)" fill="#ECBA85"/>
<rect width="40.9401" height="2.6846" rx="1.3423" transform="matrix(0.97715 -0.212549 0.280194 0.959944 116.781 162.693)" fill="#ECBA85"/>
<rect width="31.544" height="2.6846" rx="1.3423" transform="matrix(0.97715 -0.212549 0.280194 0.959944 119.038 170.425)" fill="#ECBA85"/>
</g>
</g>
<g clip-path="url(#clip8_372_740)">
<path d="M164.756 140.678L302.477 110.722" stroke="#EEEEEE" stroke-width="0.67115"/>
<path d="M182.809 202.528L320.53 172.571" stroke="#EEEEEE" stroke-width="0.67115"/>
<path d="M169.269 156.141L306.99 126.184" stroke="#EEEEEE" stroke-width="0.67115"/>
<path d="M173.783 171.603L311.504 141.646" stroke="#EEEEEE" stroke-width="0.67115"/>
<path d="M178.296 187.066L316.017 157.109" stroke="#EEEEEE" stroke-width="0.67115"/>
<path d="M187.887 219.923L325.608 189.966" stroke="#EEEEEE" stroke-width="0.67115"/>
<path d="M164.756 140.678L302.477 110.722" stroke="#EEEEEE" stroke-width="0.67115"/>
<path d="M182.809 202.528L320.53 172.571" stroke="#EEEEEE" stroke-width="0.67115"/>
<path d="M169.269 156.141L306.99 126.184" stroke="#EEEEEE" stroke-width="0.67115"/>
<path d="M173.783 171.603L311.504 141.646" stroke="#EEEEEE" stroke-width="0.67115"/>
<path d="M178.296 187.066L316.017 157.109" stroke="#EEEEEE" stroke-width="0.67115"/>
<path d="M187.887 219.923L325.608 189.966" stroke="#EEEEEE" stroke-width="0.67115"/>
<path d="M182.321 200.855L197.11 196.603C198.502 196.203 199.966 196.028 201.445 196.087L208.374 196.362C214.014 196.586 219.002 193.431 220.925 188.425L222.117 185.322C222.654 183.922 223.553 182.697 224.731 181.756V181.756C228.026 179.125 232.906 179.154 236.503 181.827L238.286 183.153C245.531 188.537 255.659 185.219 257.354 176.906L259.468 166.54C260.504 161.459 265.269 158.096 270.691 158.618V158.618C276.11 159.139 280.873 155.781 281.913 150.704L286.17 129.919C287.091 125.42 290.426 121.868 294.948 120.568L304.546 117.808" stroke="#ECBA85" stroke-width="0.67115"/>
<path d="M309.547 134.944L294.759 139.196C293.366 139.596 291.902 139.77 290.423 139.712L283.494 139.437C277.854 139.213 272.866 142.368 270.943 147.374L269.752 150.477C269.214 151.876 268.316 153.102 267.137 154.043V154.043C263.842 156.674 258.963 156.645 255.366 153.971L253.582 152.646C246.337 147.262 236.209 150.58 234.514 158.893L232.4 169.259C231.364 174.34 226.599 177.703 221.177 177.181V177.181C215.758 176.659 210.995 180.018 209.956 185.095L205.698 205.88C204.777 210.379 201.443 213.931 196.92 215.231L187.322 217.99" stroke="#AAAAAA" stroke-width="0.67115"/>
<path d="M183.806 205.943L195.197 201.921C198.509 200.752 202.268 201.041 205.526 202.714V202.714C213.481 206.8 222.73 202.198 223.472 193.786L223.982 188.008C224.037 187.379 224.043 186.744 224 186.108L222.935 170.593C222.415 163.028 232.25 159.907 237.153 166.081V166.081C241.747 171.865 250.961 169.558 251.376 162.52L252.102 150.229C252.573 142.239 262.461 138.916 268.624 144.675V144.675C273.527 149.258 281.328 148.244 284.189 142.652L287.891 135.419C289.322 132.622 291.79 130.487 294.834 129.412L306.709 125.22" stroke="#DF803F" stroke-width="0.67115"/>
<g clip-path="url(#clip9_372_740)">
<mask id="path-93-inside-2_372_740" fill="white">
<path d="M155.354 108.465L313.406 74.086L318.464 91.4166L160.413 125.796L155.354 108.465Z"/>
</mask>
<g clip-path="url(#clip10_372_740)">
<path d="M157.95 112.244L160.232 111.748L160.434 112.437L158.151 112.934L157.95 112.244ZM158.58 114.163L161.17 113.599L161.375 114.302L157.932 115.051L156.616 110.541L159.967 109.812L160.172 110.514L157.673 111.058L158.58 114.163ZM163.133 113.919L160.627 110.806L161.48 110.62L163.658 113.374L163.238 113.465L163.69 110.139L164.477 109.968L163.979 113.735L163.133 113.919ZM167.557 113.005C167.168 113.09 166.805 113.089 166.468 113.002C166.134 112.91 165.848 112.749 165.608 112.518C165.373 112.286 165.206 112 165.107 111.661C165.007 111.317 164.995 110.998 165.071 110.702C165.151 110.402 165.304 110.147 165.532 109.938C165.763 109.727 166.054 109.584 166.404 109.508C166.745 109.434 167.07 109.441 167.379 109.529C167.688 109.617 167.958 109.777 168.189 110.01C168.42 110.243 168.588 110.54 168.693 110.901C168.703 110.935 168.712 110.975 168.721 111.018C168.733 111.061 168.743 111.103 168.75 111.142L165.831 111.777L165.675 111.242L168.161 110.702L167.888 110.939C167.835 110.741 167.743 110.576 167.611 110.444C167.48 110.313 167.325 110.221 167.147 110.168C166.974 110.115 166.788 110.109 166.592 110.152C166.391 110.196 166.226 110.277 166.098 110.397C165.974 110.515 165.892 110.661 165.849 110.835C165.81 111.003 165.821 111.19 165.881 111.396L165.918 111.525C165.978 111.731 166.08 111.903 166.222 112.041C166.365 112.179 166.536 112.272 166.736 112.32C166.936 112.368 167.15 112.367 167.377 112.318C167.574 112.275 167.742 112.206 167.882 112.112C168.022 112.018 168.134 111.893 168.219 111.737L168.803 112.138C168.698 112.352 168.54 112.535 168.329 112.686C168.12 112.832 167.863 112.938 167.557 113.005ZM170.949 108.519C171.229 108.458 171.494 108.458 171.743 108.518C171.998 108.577 172.221 108.704 172.413 108.9C172.604 109.091 172.75 109.361 172.851 109.709L173.427 111.68L172.607 111.859L172.062 109.99C171.973 109.685 171.832 109.474 171.639 109.356C171.451 109.237 171.226 109.206 170.964 109.263C170.771 109.305 170.612 109.381 170.486 109.49C170.36 109.6 170.278 109.741 170.24 109.914C170.205 110.081 170.222 110.281 170.289 110.513L170.797 112.252L169.977 112.431L168.973 108.99L169.753 108.82L170.024 109.748L169.804 109.495C169.862 109.249 169.99 109.043 170.188 108.877C170.389 108.705 170.643 108.586 170.949 108.519ZM175.798 111.212C175.413 111.296 175.088 111.264 174.822 111.117C174.554 110.965 174.364 110.697 174.253 110.315L173.352 107.229L174.172 107.051L175.067 110.118C175.115 110.281 175.193 110.398 175.303 110.471C175.416 110.542 175.55 110.561 175.703 110.527C175.886 110.487 176.026 110.407 176.12 110.286L176.517 110.809C176.444 110.908 176.343 110.991 176.214 111.06C176.085 111.129 175.947 111.18 175.798 111.212ZM173.192 108.785L173.004 108.141L175.339 107.633L175.527 108.277L173.192 108.785ZM179.137 110.438L177.821 105.928L178.523 105.776L182.415 108.622L182.068 108.698L181.054 105.225L181.9 105.041L183.217 109.551L182.515 109.703L178.622 106.857L178.97 106.781L179.983 110.254L179.137 110.438ZM186.526 108.831L186.323 108.135L186.233 107.997L185.878 106.779C185.809 106.543 185.684 106.376 185.502 106.279C185.319 106.177 185.08 106.158 184.788 106.222C184.591 106.265 184.405 106.337 184.23 106.439C184.06 106.54 183.925 106.658 183.825 106.794L183.332 106.278C183.479 106.095 183.671 105.942 183.909 105.817C184.15 105.687 184.411 105.591 184.69 105.53C185.198 105.42 185.624 105.455 185.97 105.636C186.318 105.811 186.565 106.148 186.711 106.646L187.299 108.663L186.526 108.831ZM185.437 109.116C185.175 109.173 184.933 109.18 184.711 109.137C184.488 109.089 184.299 109 184.145 108.869C183.993 108.733 183.889 108.566 183.831 108.369C183.775 108.176 183.77 107.992 183.816 107.817C183.867 107.641 183.987 107.485 184.175 107.348C184.363 107.212 184.634 107.105 184.988 107.028L186.004 106.807L186.161 107.341L185.203 107.55C184.923 107.611 184.748 107.697 184.679 107.808C184.607 107.914 184.591 108.032 184.628 108.161C184.671 108.307 184.764 108.41 184.907 108.471C185.05 108.531 185.227 108.538 185.436 108.492C185.637 108.449 185.804 108.365 185.935 108.24C186.07 108.115 186.147 107.956 186.166 107.765L186.444 108.218C186.425 108.437 186.328 108.625 186.155 108.781C185.987 108.937 185.747 109.048 185.437 109.116ZM191.756 103.993C192.036 103.932 192.299 103.932 192.544 103.993C192.794 104.053 193.013 104.181 193.201 104.378C193.387 104.57 193.531 104.841 193.633 105.189L194.208 107.16L193.388 107.338L192.843 105.47C192.754 105.165 192.62 104.952 192.44 104.831C192.261 104.71 192.044 104.678 191.791 104.733C191.611 104.772 191.463 104.845 191.346 104.953C191.233 105.06 191.159 105.197 191.124 105.364C191.094 105.531 191.112 105.73 191.18 105.962L191.69 107.708L190.87 107.886L190.325 106.018C190.235 105.713 190.101 105.5 189.922 105.379C189.742 105.258 189.526 105.225 189.272 105.28C189.093 105.319 188.945 105.393 188.827 105.501C188.715 105.607 188.641 105.744 188.606 105.912C188.575 106.078 188.594 106.278 188.662 106.51L189.171 108.256L188.352 108.434L187.347 104.993L188.128 104.824L188.395 105.739L188.178 105.498C188.231 105.249 188.352 105.042 188.541 104.878C188.735 104.712 188.976 104.598 189.264 104.535C189.592 104.464 189.899 104.482 190.186 104.588C190.478 104.694 190.709 104.899 190.882 105.204L190.529 105.165C190.567 104.882 190.695 104.635 190.912 104.424C191.13 104.212 191.411 104.068 191.756 103.993ZM196.921 106.618C196.532 106.702 196.169 106.701 195.832 106.615C195.499 106.523 195.212 106.361 194.973 106.13C194.737 105.898 194.57 105.613 194.471 105.273C194.371 104.93 194.359 104.61 194.436 104.315C194.515 104.014 194.669 103.759 194.896 103.55C195.127 103.34 195.418 103.197 195.768 103.121C196.109 103.047 196.434 103.053 196.743 103.141C197.053 103.23 197.323 103.39 197.554 103.623C197.784 103.856 197.952 104.153 198.058 104.514C198.068 104.548 198.077 104.587 198.085 104.631C198.097 104.674 198.107 104.715 198.114 104.755L195.196 105.39L195.04 104.855L197.525 104.314L197.253 104.552C197.199 104.353 197.107 104.188 196.976 104.057C196.844 103.926 196.69 103.834 196.512 103.781C196.338 103.728 196.153 103.722 195.956 103.765C195.755 103.809 195.59 103.89 195.462 104.009C195.339 104.128 195.256 104.274 195.214 104.447C195.174 104.616 195.185 104.803 195.245 105.009L195.283 105.138C195.343 105.344 195.444 105.516 195.587 105.654C195.729 105.792 195.901 105.885 196.101 105.933C196.301 105.981 196.514 105.98 196.742 105.931C196.938 105.888 197.107 105.819 197.246 105.725C197.386 105.63 197.499 105.506 197.583 105.35L198.168 105.751C198.063 105.965 197.905 106.148 197.693 106.299C197.484 106.445 197.227 106.551 196.921 106.618Z" fill="#444444"/>
<rect width="35.5709" height="2.6846" rx="1.3423" transform="matrix(0.97715 -0.212549 0.280194 0.959944 158.533 119.353)" fill="#CCCCCC"/>
</g>
</g>
<path d="M318.276 90.7723L160.225 125.151L160.601 126.44L318.652 92.0609L318.276 90.7723Z" fill="#CCCCCC" mask="url(#path-93-inside-2_372_740)"/>
<g clip-path="url(#clip11_372_740)">
<mask id="path-97-inside-3_372_740" fill="white">
<path d="M187.887 219.923L344.626 185.829L348.763 200.003L192.024 234.097L187.887 219.923Z"/>
</mask>
<path d="M187.887 219.923L344.626 185.829L348.763 200.003L192.024 234.097L187.887 219.923Z" fill="white"/>
<rect width="24.1614" height="2.6846" rx="1.3423" transform="matrix(0.97715 -0.212549 0.280194 0.959944 192.203 225.151)" fill="#ECBA85"/>
<rect width="38.2555" height="2.6846" rx="1.3423" transform="matrix(0.97715 -0.212549 0.280194 0.959944 221.058 218.874)" fill="#DF803F"/>
<rect width="38.2555" height="2.6846" rx="1.3423" transform="matrix(0.97715 -0.212549 0.280194 0.959944 263.686 209.602)" fill="#AAAAAA"/>
</g>
<path d="M188.075 220.567L344.814 186.474L344.438 185.185L187.699 219.279L188.075 220.567ZM348.575 199.359L191.836 233.453L192.212 234.741L348.951 200.647L348.575 199.359Z" fill="#CCCCCC" mask="url(#path-97-inside-3_372_740)"/>
</g>
</g>
</g>
<g clip-path="url(#clip12_372_740)">
<path d="M378.689 154.61L319.38 122.534C316.037 120.726 314.459 116.211 315.856 112.451L337.086 55.3242C337.948 53.0037 339.742 51.5126 341.775 51.1358L337.156 51.9916C335.123 52.3682 333.329 53.8594 332.467 56.18L311.237 113.306C309.84 117.066 311.418 121.581 314.762 123.39L374.07 155.466C375.35 156.158 376.704 156.353 377.965 156.12L382.584 155.264C381.323 155.498 379.969 155.302 378.689 154.61L378.689 154.61Z" fill="#DF803F"/>
<path d="M313.519 122.768C310.912 120.6 309.811 116.617 311.065 113.243L332.295 56.1165C333.147 53.823 334.952 52.2136 337.123 51.8114L341.742 50.9556C341.79 50.9467 341.839 50.9572 341.879 50.9848C341.919 51.0123 341.947 51.0546 341.955 51.1024C341.964 51.1502 341.954 51.1996 341.926 51.2397C341.898 51.2798 341.856 51.3073 341.808 51.3161C339.765 51.6946 338.064 53.2168 337.257 55.3879L316.028 112.514C314.663 116.186 316.205 120.608 319.467 122.373L378.776 154.449C379.978 155.099 381.283 155.319 382.55 155.084C382.574 155.079 382.598 155.08 382.622 155.085C382.645 155.09 382.667 155.099 382.687 155.113C382.707 155.126 382.724 155.144 382.737 155.164C382.75 155.184 382.759 155.207 382.763 155.23C382.768 155.254 382.767 155.278 382.762 155.302C382.757 155.326 382.748 155.348 382.734 155.368C382.721 155.388 382.703 155.404 382.683 155.418C382.663 155.431 382.64 155.44 382.616 155.444L377.998 156.3C376.647 156.55 375.258 156.318 373.982 155.627L314.674 123.551C314.264 123.329 313.877 123.066 313.519 122.768L313.519 122.768ZM339.802 51.6879L337.189 52.172C335.146 52.5504 333.445 54.0725 332.638 56.2437L311.409 113.37C310.044 117.042 311.587 121.464 314.848 123.228L374.157 155.305C375.359 155.955 376.664 156.174 377.931 155.939L380.547 155.455C379.884 155.34 379.229 155.111 378.601 154.771L319.293 122.695C315.876 120.848 314.258 116.223 315.684 112.387L336.914 55.2607C337.495 53.696 338.52 52.4497 339.802 51.6879Z" fill="black"/>
<path d="M404.978 83.8661C408.322 85.6744 409.9 90.1894 408.502 93.9495L387.273 151.076C385.876 154.836 382.032 156.418 378.688 154.61L319.38 122.534C316.037 120.726 314.459 116.211 315.856 112.451L337.085 55.3244C338.483 51.5643 342.326 49.9816 345.67 51.7899L404.978 83.8661Z" fill="white"/>
<path d="M318.138 121.913C315.531 119.745 314.43 115.761 315.684 112.387L336.914 55.2608C337.633 53.3237 338.994 51.8937 340.745 51.2339C342.372 50.6206 344.153 50.7607 345.758 51.6287L405.066 83.7049C408.481 85.5524 410.1 90.1765 408.674 94.0133L387.445 151.14C386.725 153.077 385.365 154.507 383.614 155.166C381.986 155.78 380.206 155.64 378.601 154.772L319.293 122.695C318.883 122.473 318.496 122.211 318.138 121.913ZM405.991 84.7733C405.651 84.4901 405.283 84.2396 404.891 84.0273L345.583 51.9514C344.073 51.1348 342.4 51.0018 340.873 51.5772C339.224 52.1988 337.939 53.5523 337.257 55.3883L316.028 112.515C314.663 116.186 316.205 120.609 319.467 122.373L378.776 154.449C380.286 155.266 381.958 155.399 383.485 154.823C385.135 154.202 386.419 152.848 387.101 151.012L408.331 93.886C409.531 90.6556 408.481 86.8443 405.991 84.7733Z" fill="black"/>
<path d="M341.225 106.202L329.18 99.6871L323.029 116.237L335.074 122.752L341.225 106.202Z" fill="#ECBA85"/>
<path d="M322.912 116.378C322.883 116.354 322.862 116.321 322.853 116.285C322.843 116.248 322.845 116.209 322.858 116.174L329.008 99.6236C329.018 99.599 329.032 99.5766 329.05 99.558C329.069 99.5394 329.091 99.525 329.116 99.5158C329.14 99.5065 329.167 99.5026 329.193 99.5044C329.219 99.5062 329.244 99.5136 329.267 99.526L341.313 106.04C341.351 106.061 341.381 106.096 341.397 106.137C341.412 106.178 341.412 106.224 341.397 106.265L335.247 122.815C335.237 122.84 335.223 122.862 335.205 122.881C335.186 122.9 335.164 122.914 335.139 122.923C335.115 122.933 335.088 122.936 335.062 122.935C335.036 122.933 335.011 122.925 334.988 122.913L322.942 116.399C322.932 116.393 322.922 116.386 322.912 116.378ZM329.278 99.9487L323.257 116.152L334.977 122.49L340.998 106.287L329.278 99.9487Z" fill="black"/>
<path d="M361.063 101.385L349.018 94.8708L338.057 124.365L350.102 130.879L361.063 101.385Z" fill="#ECBA85"/>
<path d="M337.94 124.505C337.911 124.481 337.89 124.449 337.88 124.412C337.87 124.375 337.872 124.337 337.885 124.301L348.846 94.8071C348.855 94.7825 348.869 94.7602 348.888 94.7416C348.906 94.7231 348.929 94.7087 348.953 94.6994C348.978 94.6902 349.004 94.6863 349.03 94.688C349.056 94.6897 349.082 94.697 349.105 94.7094L361.15 101.224C361.23 101.267 361.266 101.363 361.235 101.449L350.274 130.943C350.265 130.967 350.251 130.99 350.232 131.008C350.214 131.027 350.191 131.041 350.167 131.05C350.142 131.06 350.116 131.063 350.09 131.062C350.064 131.06 350.038 131.053 350.015 131.04L337.97 124.526C337.959 124.52 337.949 124.513 337.94 124.505L337.94 124.505ZM349.116 95.1322L338.284 124.279L350.004 130.617L360.835 101.471L349.116 95.1322Z" fill="black"/>
<path d="M374.603 113.513L362.56 107L353.086 132.493L365.129 139.006L374.603 113.513Z" fill="#ECBA85"/>
<path d="M352.969 132.634C352.94 132.61 352.919 132.577 352.91 132.54C352.9 132.504 352.902 132.465 352.915 132.43L362.389 106.936C362.398 106.912 362.412 106.889 362.431 106.871C362.45 106.852 362.472 106.838 362.496 106.829C362.521 106.819 362.547 106.815 362.573 106.817C362.599 106.819 362.625 106.826 362.648 106.839L374.691 113.352C374.77 113.394 374.807 113.491 374.776 113.577L365.302 139.07C365.292 139.094 365.278 139.117 365.26 139.135C365.241 139.154 365.219 139.168 365.194 139.178C365.17 139.187 365.143 139.191 365.117 139.189C365.091 139.187 365.066 139.18 365.043 139.167L353 132.654C352.989 132.649 352.979 132.642 352.97 132.634L352.969 132.634ZM362.659 107.261L353.314 132.408L365.031 138.745L374.376 113.599L362.659 107.261Z" fill="black"/>
<path d="M395.293 106.408L383.248 99.8931L368.113 140.62L380.158 147.135L395.293 106.408Z" fill="#ECBA85"/>
<path d="M367.996 140.761C367.967 140.737 367.946 140.704 367.936 140.668C367.926 140.631 367.928 140.592 367.941 140.557L383.077 99.8294C383.086 99.8048 383.1 99.7825 383.119 99.7639C383.137 99.7453 383.16 99.7309 383.184 99.7217C383.209 99.7124 383.235 99.7085 383.261 99.7103C383.287 99.712 383.313 99.7193 383.336 99.7317L395.381 106.246C395.46 106.289 395.497 106.385 395.465 106.471L380.33 147.198C380.321 147.223 380.307 147.245 380.288 147.264C380.27 147.282 380.247 147.297 380.223 147.306C380.198 147.315 380.172 147.319 380.146 147.317C380.12 147.316 380.094 147.308 380.071 147.296L368.026 140.782C368.015 140.776 368.005 140.769 367.996 140.761ZM383.346 100.154L368.341 140.535L380.06 146.873L395.066 106.493L383.346 100.154Z" fill="black"/>
<path d="M390.992 87.673L392.569 89.7561L373.523 96.2971L360.317 84.4725C360.268 84.4286 360.215 84.3906 360.157 84.3591C359.997 84.2726 359.817 84.2463 359.647 84.2885L339.81 89.1051C339.383 89.2074 339.131 89.6933 339.243 90.1886C339.307 90.4795 339.484 90.7088 339.706 90.8293C339.861 90.915 340.043 90.9398 340.215 90.8991L359.688 86.1716L372.924 98.0241C372.973 98.0693 373.028 98.1084 373.087 98.1405C373.266 98.2375 373.469 98.2573 373.655 98.1933L393.096 91.5149L392.947 94.1892L398.565 88.6663L390.993 87.6731L390.992 87.673Z" fill="#ECBA85"/>
<path d="M339.449 90.8754C339.258 90.7167 339.122 90.4894 339.064 90.2283C338.93 89.636 339.245 89.0517 339.767 88.9266L359.604 84.1103C359.816 84.0579 360.043 84.0889 360.244 84.1977C360.315 84.2363 360.38 84.2826 360.44 84.3358L373.565 96.0888L392.27 89.665L390.846 87.7838C390.825 87.7549 390.812 87.7203 390.81 87.6842C390.808 87.6482 390.816 87.6123 390.834 87.581C390.853 87.5498 390.88 87.5246 390.912 87.5086C390.944 87.4926 390.981 87.4865 391.017 87.4911L398.589 88.4846C398.623 88.489 398.655 88.5029 398.681 88.5248C398.708 88.5466 398.728 88.5754 398.738 88.608C398.749 88.6406 398.751 88.6756 398.743 88.709C398.735 88.7424 398.717 88.7729 398.693 88.797L393.075 94.32C393.048 94.3458 393.015 94.363 392.979 94.3694C392.942 94.3759 392.905 94.3712 392.871 94.356C392.838 94.3409 392.809 94.3159 392.79 94.2844C392.771 94.2529 392.762 94.2164 392.764 94.1795L392.898 91.7769L373.714 98.367C373.48 98.4473 373.226 98.4241 373 98.3019C372.929 98.2638 372.862 98.2159 372.801 98.1604L359.638 86.3726L340.258 91.0773C340.042 91.1287 339.814 91.0978 339.619 90.9907C339.559 90.9582 339.502 90.9195 339.449 90.8758L339.449 90.8754ZM360.175 84.592C360.142 84.5641 360.106 84.54 360.07 84.5202C359.949 84.455 359.814 84.436 359.691 84.4664L339.853 89.2831C339.525 89.3617 339.331 89.7492 339.422 90.1476C339.473 90.3783 339.608 90.5669 339.794 90.6678C339.909 90.7317 340.044 90.7505 340.172 90.7206L359.645 85.9931C359.704 85.9788 359.768 85.9959 359.811 86.0345L373.046 97.887C373.085 97.9228 373.128 97.9536 373.174 97.9788C373.31 98.0518 373.459 98.0664 373.596 98.0197L393.037 91.3412C393.065 91.3315 393.095 91.3289 393.125 91.3337C393.155 91.3384 393.183 91.3504 393.207 91.3685C393.231 91.3866 393.25 91.4103 393.262 91.4375C393.275 91.4647 393.281 91.4946 393.279 91.5246L393.156 93.7264L398.168 88.7991L391.403 87.9116L392.715 89.6452C392.733 89.6683 392.745 89.6952 392.75 89.7238C392.755 89.7523 392.753 89.7817 392.745 89.8094C392.736 89.8372 392.721 89.8625 392.701 89.8834C392.681 89.9042 392.656 89.92 392.629 89.9295L373.582 96.4704C373.52 96.492 373.449 96.4763 373.401 96.4337L360.195 84.609C360.189 84.6032 360.182 84.5976 360.175 84.592Z" fill="black"/>
</g>
<g clip-path="url(#clip13_372_740)">
<path d="M216.063 297.909C216.775 296.217 218.089 294.818 219.529 293.716C220.014 293.344 220.518 292.998 221.039 292.678L276.594 258.71C276.16 260.675 281.255 269.018 283.175 269.484C282.683 269.775 227.59 303.491 227.129 303.742C226.49 304.102 225.83 304.422 225.152 304.7C220.402 307.031 213.938 304.256 216.063 297.909Z" fill="#DF803F"/>
<path d="M220.921 305.717C219.535 305.62 218.216 305.086 217.151 304.193C215.441 302.695 214.978 300.438 215.849 297.837C215.851 297.832 215.853 297.827 215.855 297.821C216.505 296.277 217.695 294.835 219.392 293.537C219.882 293.161 220.392 292.811 220.918 292.488L276.476 258.518C276.514 258.494 276.557 258.483 276.602 258.485C276.646 258.486 276.689 258.501 276.725 258.526C276.761 258.552 276.788 258.588 276.804 258.629C276.82 258.671 276.824 258.716 276.814 258.759C276.411 260.585 281.445 268.833 283.228 269.265C283.271 269.276 283.311 269.299 283.341 269.332C283.371 269.365 283.391 269.407 283.398 269.451C283.404 269.495 283.397 269.541 283.378 269.581C283.359 269.622 283.328 269.656 283.289 269.678C283.11 269.784 275.601 274.377 266.095 280.192C248.915 290.7 227.534 303.779 227.237 303.941C226.591 304.304 225.923 304.628 225.237 304.91C223.898 305.565 222.406 305.845 220.921 305.717ZM216.274 297.989C215.469 300.402 215.886 302.484 217.449 303.853C219.334 305.504 222.462 305.769 225.053 304.498C225.727 304.221 226.383 303.903 227.018 303.546C227.365 303.353 249.614 289.744 265.86 279.807C274.237 274.682 281.062 270.507 282.693 269.513C280.593 268.239 276.534 261.591 276.351 259.123L221.157 292.871C220.643 293.186 220.147 293.527 219.669 293.893C218.036 295.144 216.894 296.521 216.274 297.989Z" fill="black"/>
<path d="M283.174 269.483C283.69 269.168 282.635 266.501 280.818 263.527C279.001 260.552 277.11 258.397 276.594 258.712C276.079 259.027 277.134 261.694 278.951 264.669C280.767 267.643 282.658 269.799 283.174 269.483Z" fill="white"/>
<path d="M283.016 269.738C282.826 269.709 282.647 269.632 282.494 269.516C281.337 268.727 279.157 265.716 277.633 262.804C276.924 261.447 275.822 259.091 276.416 258.562C276.613 258.385 276.903 258.424 277.275 258.678C278.432 259.466 280.612 262.477 282.136 265.39C282.845 266.747 283.947 269.102 283.353 269.632C283.307 269.673 283.254 269.703 283.196 269.721C283.138 269.74 283.077 269.745 283.016 269.738ZM276.718 258.906C276.713 258.905 276.708 258.905 276.703 258.905C276.596 259.048 276.757 260.153 278.034 262.593C279.528 265.451 281.643 268.388 282.748 269.141C282.978 269.298 283.065 269.287 283.066 269.287C283.173 269.143 283.012 268.039 281.736 265.598C280.241 262.741 278.126 259.803 277.021 259.05C276.933 258.979 276.829 258.93 276.718 258.906Z" fill="black"/>
<path d="M317.271 248.635C317.787 248.319 316.732 245.652 314.915 242.678C313.098 239.704 311.207 237.548 310.691 237.863C310.175 238.179 311.23 240.846 313.047 243.82C314.864 246.794 316.755 248.95 317.271 248.635Z" fill="white"/>
<path d="M317.113 248.89C316.923 248.86 316.744 248.783 316.591 248.667C315.434 247.879 313.254 244.868 311.731 241.955C311.021 240.598 309.919 238.243 310.514 237.713C310.711 237.537 311 237.575 311.372 237.83C312.529 238.618 314.709 241.629 316.233 244.541C316.943 245.898 318.044 248.254 317.45 248.783C317.404 248.824 317.351 248.854 317.293 248.873C317.235 248.891 317.174 248.897 317.113 248.89ZM310.815 238.058C310.81 238.057 310.805 238.056 310.801 238.056C310.693 238.2 310.854 239.304 312.131 241.745C313.625 244.602 315.74 247.54 316.845 248.293C317.076 248.449 317.162 248.438 317.163 248.438C317.27 248.295 317.109 247.19 315.833 244.75C314.339 241.892 312.224 238.955 311.118 238.201C311.03 238.13 310.926 238.081 310.815 238.058Z" fill="black"/>
<path d="M276.465 259.048C276.457 258.985 276.464 258.922 276.487 258.863C276.509 258.804 276.546 258.751 276.594 258.71L310.691 237.861C309.755 239.251 315.826 248.992 317.272 248.635L283.175 269.484C283.064 269.552 282.88 269.506 282.621 269.329C280.556 267.678 276.881 261.977 276.465 259.048Z" fill="white"/>
<path d="M283.01 269.738C282.823 269.706 282.645 269.63 282.493 269.516C280.311 267.772 276.653 261.983 276.241 259.079C276.239 259.067 276.238 259.055 276.238 259.043C276.229 258.942 276.246 258.84 276.287 258.748C276.329 258.656 276.393 258.576 276.475 258.516L310.573 237.668C310.617 237.641 310.668 237.63 310.719 237.637C310.771 237.643 310.818 237.667 310.853 237.704C310.889 237.742 310.911 237.79 310.915 237.841C310.92 237.892 310.906 237.944 310.878 237.986C310.445 238.628 312.135 242.242 314.354 245.424C316.095 247.919 316.988 248.472 317.218 248.415C317.27 248.403 317.325 248.409 317.373 248.433C317.421 248.457 317.459 248.498 317.48 248.548C317.5 248.598 317.503 248.653 317.486 248.704C317.469 248.755 317.435 248.799 317.389 248.827L283.292 269.676C283.207 269.727 283.108 269.749 283.01 269.738ZM276.69 259.035C277.104 261.861 280.654 267.469 282.761 269.153C282.978 269.3 283.064 269.288 283.065 269.288L316.711 248.714C315.902 248.261 314.83 246.894 313.985 245.683C312.702 243.845 310.415 240.013 310.373 238.32L276.711 258.902C276.698 258.945 276.691 258.99 276.69 259.035Z" fill="black"/>
<path d="M331.526 253.564L336.858 256.591C330.975 253.251 325.968 248.189 322.541 241.583C312.37 221.969 319.98 196.15 339.547 183.924C352.529 175.813 367.505 175.718 379.086 182.293L373.754 179.267C362.172 172.692 347.197 172.787 334.215 180.898C314.648 193.123 307.038 218.942 317.209 238.556C320.635 245.164 325.643 250.225 331.526 253.564" fill="white"/>
<path d="M336.837 256.816C336.805 256.813 336.774 256.803 336.746 256.787L331.414 253.76C325.251 250.229 320.246 244.983 317.008 238.66C306.798 218.97 314.463 192.973 334.095 180.706C340.394 176.771 347.45 174.572 354.502 174.349C361.267 174.113 367.967 175.747 373.865 179.071L379.197 182.098C379.223 182.112 379.246 182.132 379.264 182.155C379.282 182.179 379.296 182.206 379.303 182.234C379.311 182.263 379.314 182.293 379.31 182.322C379.306 182.352 379.297 182.38 379.282 182.406C379.268 182.432 379.248 182.454 379.225 182.472C379.201 182.491 379.174 182.504 379.146 182.512C379.117 182.52 379.087 182.522 379.058 182.518C379.029 182.515 379 182.505 378.974 182.491C373.149 179.207 366.531 177.594 359.848 177.828C352.876 178.048 345.897 180.223 339.667 184.116C320.23 196.26 312.637 221.993 322.741 241.479C325.939 247.725 330.882 252.907 336.969 256.395C337.014 256.42 337.048 256.46 337.067 256.508C337.086 256.556 337.088 256.609 337.073 256.658C337.057 256.707 337.026 256.75 336.983 256.779C336.94 256.807 336.888 256.82 336.837 256.816ZM359.012 174.928C357.517 174.795 356.015 174.753 354.515 174.8C347.543 175.021 340.565 177.196 334.334 181.089C314.897 193.233 307.304 218.966 317.409 238.452C320.607 244.698 325.549 249.88 331.637 253.367L332.059 253.608C328.024 250.356 324.713 246.295 322.34 241.687C312.131 221.997 319.795 196 339.427 183.733C345.726 179.798 352.783 177.6 359.834 177.376C364.676 177.215 369.502 178.001 374.043 179.691L373.642 179.464C369.146 176.922 364.157 175.376 359.012 174.928Z" fill="black"/>
<path d="M331.526 253.564L336.858 256.591C330.975 253.251 325.968 248.189 322.541 241.583C312.37 221.969 319.98 196.15 339.547 183.924C352.529 175.813 367.505 175.718 379.086 182.293L373.754 179.267C362.172 172.692 347.197 172.787 334.215 180.898C314.648 193.123 307.038 218.942 317.209 238.556C320.635 245.164 325.643 250.225 331.526 253.564" fill="white"/>
<path d="M336.837 256.816C336.805 256.813 336.774 256.803 336.746 256.787L331.414 253.76C325.251 250.229 320.246 244.983 317.008 238.66C306.798 218.97 314.463 192.973 334.095 180.706C340.394 176.771 347.45 174.572 354.502 174.349C361.267 174.113 367.967 175.747 373.865 179.071L379.197 182.098C379.223 182.112 379.246 182.132 379.264 182.155C379.282 182.179 379.296 182.206 379.303 182.234C379.311 182.263 379.314 182.293 379.31 182.322C379.306 182.352 379.297 182.38 379.282 182.406C379.268 182.432 379.248 182.454 379.225 182.472C379.201 182.491 379.174 182.504 379.146 182.512C379.117 182.52 379.087 182.522 379.058 182.518C379.029 182.515 379 182.505 378.974 182.491C373.149 179.207 366.531 177.594 359.848 177.828C352.876 178.048 345.897 180.223 339.667 184.116C320.23 196.26 312.637 221.993 322.741 241.479C325.939 247.725 330.882 252.907 336.969 256.395C337.014 256.42 337.048 256.46 337.067 256.508C337.086 256.556 337.088 256.609 337.073 256.658C337.057 256.707 337.026 256.75 336.983 256.779C336.94 256.807 336.888 256.82 336.837 256.816ZM359.012 174.928C357.517 174.795 356.015 174.753 354.515 174.8C347.543 175.021 340.565 177.196 334.334 181.089C314.897 193.233 307.304 218.966 317.409 238.452C320.607 244.698 325.549 249.88 331.637 253.367L332.059 253.608C328.024 250.356 324.713 246.295 322.34 241.687C312.131 221.997 319.795 196 339.427 183.733C345.726 179.798 352.783 177.6 359.834 177.376C364.676 177.215 369.502 178.001 374.043 179.691L373.642 179.464C369.146 176.922 364.157 175.376 359.012 174.928Z" fill="black"/>
<path d="M334.215 180.897C314.648 193.123 307.038 218.942 317.209 238.556C327.38 258.171 351.485 264.159 371.053 251.933C390.631 239.701 398.247 213.893 388.076 194.28C377.904 174.666 353.793 168.665 334.215 180.897Z" fill="white"/>
<path d="M346.292 258.368C344.07 258.171 341.869 257.775 339.717 257.185C329.87 254.492 321.805 247.912 317.007 238.66C306.796 218.97 314.461 192.973 334.094 180.706C343.906 174.576 355.079 172.777 365.555 175.644C375.406 178.339 383.474 184.92 388.273 194.175C398.481 213.859 390.808 239.855 371.169 252.125C363.392 256.985 354.757 259.121 346.292 258.368ZM334.334 181.089C314.896 193.233 307.304 218.965 317.408 238.452C322.148 247.591 330.113 254.09 339.837 256.75C350.187 259.582 361.231 257.803 370.932 251.742C390.376 239.594 397.976 213.863 387.874 194.384C383.133 185.241 375.165 178.741 365.438 176.079C355.084 173.246 344.038 175.027 334.334 181.089Z" fill="black"/>
<path d="M327.179 261.202L332.512 264.229C346.476 272.156 364.531 272.041 380.174 262.268C403.774 247.523 412.96 216.397 400.698 192.752C396.565 184.783 390.526 178.679 383.431 174.65L378.099 171.624C385.193 175.652 391.233 181.756 395.366 189.725C407.628 213.37 398.442 244.496 374.842 259.241C359.199 269.014 341.144 269.129 327.179 261.202Z" fill="#DF803F"/>
<path d="M350.242 269.956C343.967 269.411 337.883 267.525 332.4 264.427L327.068 261.4C327.042 261.385 327.019 261.366 327.001 261.342C326.982 261.319 326.969 261.292 326.96 261.263C326.952 261.235 326.95 261.205 326.954 261.175C326.957 261.145 326.967 261.117 326.981 261.091C326.996 261.065 327.016 261.042 327.039 261.024C327.063 261.006 327.09 260.992 327.119 260.984C327.147 260.977 327.178 260.975 327.207 260.978C327.237 260.982 327.265 260.992 327.291 261.007C334.322 264.969 342.309 266.916 350.374 266.635C358.787 266.369 367.207 263.747 374.723 259.051C398.186 244.39 407.357 213.339 395.166 189.83C391.196 182.175 385.255 175.947 377.988 171.821C377.936 171.792 377.898 171.743 377.882 171.685C377.866 171.627 377.874 171.566 377.903 171.514C377.933 171.462 377.982 171.423 378.039 171.407C378.097 171.391 378.159 171.399 378.211 171.429L383.543 174.456C390.887 178.625 396.889 184.916 400.899 192.649C406.856 204.137 407.994 217.726 404.101 230.912C400.209 244.099 391.754 255.299 380.294 262.459C372.71 267.198 364.213 269.845 355.72 270.112C353.893 270.17 352.063 270.118 350.242 269.956ZM332.705 264.079C339.717 268.009 347.673 269.939 355.706 269.659C364.119 269.393 372.539 266.771 380.055 262.075C403.519 247.415 412.689 216.363 400.498 192.854C396.539 185.22 390.62 179.005 383.378 174.879C388.457 178.855 392.615 183.884 395.567 189.62C401.524 201.108 402.662 214.697 398.769 227.883C394.876 241.07 386.422 252.271 374.962 259.431C367.378 264.171 358.881 266.817 350.389 267.085C344.352 267.286 338.337 266.264 332.705 264.079Z" fill="black"/>
<path d="M395.366 189.725C407.627 213.37 398.442 244.496 374.842 259.24C351.254 273.978 322.181 266.755 309.919 243.11C297.652 219.454 306.837 188.328 330.425 173.59C354.025 158.845 383.098 166.069 395.366 189.725ZM371.052 251.933C390.63 239.701 398.247 213.893 388.076 194.279C377.904 174.665 353.793 168.665 334.215 180.898C314.648 193.123 307.038 218.942 317.209 238.556C327.38 258.171 351.485 264.159 371.052 251.933Z" fill="#FAECDA"/>
<path d="M344.914 266.936C342.263 266.7 339.64 266.228 337.073 265.526C325.212 262.28 315.497 254.357 309.719 243.214C303.759 231.722 302.619 218.13 306.51 204.942C310.4 191.758 318.849 180.556 330.306 173.398C336.083 169.743 342.549 167.312 349.302 166.255C355.606 165.267 362.048 165.623 368.205 167.299C380.068 170.545 389.785 178.472 395.566 189.62C401.523 201.108 402.661 214.697 398.768 227.883C394.876 241.07 386.422 252.271 374.961 259.431C369.186 263.085 362.723 265.514 355.972 266.57C352.314 267.136 348.601 267.259 344.914 266.936ZM360.326 166.34C356.673 166.02 352.995 166.142 349.371 166.703C342.678 167.75 336.27 170.159 330.545 173.782C307.087 188.437 297.925 219.491 310.12 243.006C315.839 254.036 325.453 261.879 337.193 265.09C343.287 266.75 349.664 267.102 355.904 266.124C362.595 265.079 369 262.671 374.723 259.05C398.187 244.389 407.357 213.338 395.166 189.829C389.443 178.794 379.826 170.948 368.086 167.736C365.546 167.04 362.949 166.573 360.326 166.34ZM346.293 258.369C344.07 258.171 341.87 257.775 339.717 257.185C329.871 254.492 321.806 247.912 317.008 238.66C306.797 218.97 314.462 192.973 334.095 180.706C343.907 174.576 355.08 172.778 365.556 175.644C375.406 178.339 383.474 184.92 388.274 194.175C398.482 213.859 390.809 239.855 371.17 252.125C363.393 256.985 354.758 259.121 346.293 258.369ZM358.941 174.91C350.571 174.166 342.03 176.28 334.334 181.089C314.897 193.233 307.304 218.966 317.409 238.452C322.149 247.591 330.114 254.09 339.838 256.75C350.188 259.582 361.232 257.804 370.933 251.742C390.376 239.594 397.977 213.863 387.875 194.384C383.134 185.241 375.166 178.741 365.438 176.079C363.312 175.497 361.138 175.106 358.942 174.911L358.941 174.91Z" fill="black"/>
</g>
<g clip-path="url(#clip14_372_740)">
<path d="M57.2383 203.848L71.7711 243.035L40.783 265.884C38.5699 263.178 36.6741 260.251 35.1378 257.179C24.7761 236.437 32.788 212.986 52.884 205.229C54.2971 204.684 55.7529 204.226 57.2383 203.848Z" fill="#FAECDA"/>
<path d="M40.743 266.024C40.7148 266.016 40.6898 265.999 40.6713 265.976C38.4576 263.269 36.5524 260.331 35.0087 257.244C32.3456 251.913 30.8354 246.33 30.5195 240.65C30.2145 235.166 31.0321 229.875 32.9493 224.924C36.5181 215.708 43.5796 208.665 52.8327 205.094C54.2169 204.559 55.6876 204.092 57.2036 203.707C57.2384 203.698 57.2752 203.702 57.3069 203.719C57.3387 203.736 57.3632 203.763 57.3756 203.797L71.9081 242.984C71.9192 243.013 71.9202 243.046 71.9112 243.076C71.9021 243.106 71.8834 243.133 71.8579 243.152L40.8699 266.001C40.8519 266.015 40.8311 266.024 40.8091 266.028C40.7871 266.031 40.7645 266.03 40.743 266.024ZM57.1483 204.021C55.6881 204.398 54.2719 204.85 52.9371 205.365C43.7615 208.907 36.7592 215.89 33.2202 225.029C31.318 229.941 30.507 235.191 30.8097 240.633C31.1233 246.274 32.6236 251.818 35.2686 257.113C36.7823 260.141 38.6459 263.024 40.8091 265.685L71.5975 242.982L57.1483 204.021Z" fill="black"/>
<path d="M71.7723 243.034L68.3225 247.183L37.3345 270.033L40.7842 265.884L71.7723 243.034Z" fill="black"/>
<path d="M37.2936 270.173C37.2705 270.166 37.2493 270.154 37.2321 270.137C37.2149 270.12 37.2022 270.099 37.1951 270.076C37.1881 270.052 37.1869 270.028 37.1917 270.004C37.1965 269.981 37.2072 269.958 37.2227 269.94L40.6724 265.791C40.6798 265.782 40.6885 265.774 40.698 265.767L71.6862 242.918C71.7148 242.896 71.7501 242.887 71.7855 242.89C71.8209 242.893 71.8538 242.909 71.8782 242.935C71.9025 242.961 71.9166 242.995 71.9177 243.03C71.9188 243.066 71.9068 243.1 71.8841 243.128L68.4344 247.276C68.4269 247.285 68.4183 247.293 68.4088 247.3L37.4206 270.15C37.4026 270.163 37.3818 270.172 37.3598 270.176C37.3377 270.18 37.3151 270.179 37.2936 270.173ZM40.8847 265.991L38.2119 269.205L68.2222 247.076L70.895 243.862L40.8847 265.991Z" fill="black"/>
<path d="M40.7834 265.884L37.3337 270.033C35.1207 267.326 33.2249 264.4 31.6886 261.327C24.2918 246.52 26.2581 230.333 35.2996 219.46L38.7493 215.311C29.7078 226.184 27.7415 242.372 35.1383 257.179C36.6746 260.251 38.5704 263.178 40.7834 265.884Z" fill="#DF803F"/>
<path d="M37.2941 270.173C37.2661 270.164 37.2411 270.148 37.2222 270.125C35.0084 267.418 33.1032 264.479 31.5596 261.393C27.9745 254.216 26.4621 246.44 27.186 238.904C27.8905 231.572 30.6578 224.816 35.189 219.367L38.6386 215.218C38.6508 215.204 38.6658 215.191 38.6827 215.182C38.6996 215.174 38.7181 215.168 38.7371 215.166C38.7561 215.165 38.7753 215.167 38.7935 215.172C38.8118 215.178 38.8287 215.187 38.8434 215.199C38.8581 215.212 38.8702 215.227 38.8791 215.244C38.888 215.26 38.8934 215.279 38.8952 215.298C38.8969 215.317 38.8949 215.336 38.8892 215.354C38.8835 215.373 38.8743 215.39 38.8621 215.404C34.3687 220.808 31.6242 227.509 30.9254 234.784C30.2067 242.264 31.7089 249.986 35.2695 257.114C36.8035 260.182 38.697 263.101 40.8973 265.792C40.9187 265.818 40.9303 265.851 40.9301 265.885C40.93 265.919 40.9181 265.951 40.8965 265.977L37.4468 270.126C37.4286 270.148 37.4045 270.164 37.3774 270.172C37.3502 270.18 37.3213 270.181 37.2941 270.173ZM36.0073 218.838L35.4125 219.553C30.9191 224.957 28.1744 231.658 27.4755 238.932C26.7568 246.413 28.259 254.134 31.8196 261.262C33.3278 264.278 35.1831 267.151 37.336 269.804L40.5961 265.884C38.4146 263.202 36.5353 260.296 35.0094 257.244C31.4244 250.067 29.9119 242.291 30.6359 234.756C31.1915 228.971 33.0309 223.546 36.0073 218.838Z" fill="black"/>
</g>
</g>
<defs>
<clipPath id="clip0_372_740">
<rect width="416.077" height="366.148" fill="white" transform="translate(0.961914 -48.074)"/>
</clipPath>
<clipPath id="clip1_372_740">
<rect width="68.5695" height="68.5695" fill="white" transform="matrix(-0.773623 0.633646 0.633646 0.773623 142.101 16.4766)"/>
</clipPath>
<clipPath id="clip2_372_740">
<rect width="73.0631" height="86.5441" fill="white" transform="translate(62.8813 197.449) rotate(10.8856)"/>
</clipPath>
<clipPath id="clip3_372_740">
<rect width="310.893" height="258.467" fill="white" transform="translate(72.0586 27.5942) rotate(4.72825)"/>
</clipPath>
<clipPath id="clip4_372_740">
<rect width="214.768" height="161.076" rx="10.7384" transform="matrix(0.97715 -0.212549 0.280194 0.959944 88.8276 114.714)" fill="white"/>
</clipPath>
<clipPath id="clip5_372_740">
<rect width="51.6785" height="144.968" rx="2.6846" transform="matrix(0.97715 -0.212549 0.280194 0.959944 98.9541 120.733)" fill="white"/>
</clipPath>
<clipPath id="clip6_372_740">
<path d="M105.705 124.746L145.71 116.044L148.888 126.932L108.883 135.634L105.705 124.746Z" fill="white"/>
</clipPath>
<clipPath id="clip7_372_740">
<rect width="40.9401" height="36.2421" fill="white" transform="matrix(0.97715 -0.212549 0.280194 0.959944 109.635 138.211)"/>
</clipPath>
<clipPath id="clip8_372_740">
<rect width="146.982" height="144.968" fill="white" transform="matrix(0.97715 -0.212549 0.280194 0.959944 149.452 109.749)"/>
</clipPath>
<clipPath id="clip9_372_740">
<path d="M155.354 108.465L313.406 74.086L318.464 91.4166L160.413 125.796L155.354 108.465Z" fill="white"/>
</clipPath>
<clipPath id="clip10_372_740">
<rect width="161.747" height="18.0538" fill="white" transform="matrix(0.97715 -0.212549 0.280194 0.959944 155.354 108.465)"/>
</clipPath>
<clipPath id="clip11_372_740">
<path d="M187.887 219.923L344.626 185.829L348.763 200.003L192.024 234.097L187.887 219.923Z" fill="white"/>
</clipPath>
<clipPath id="clip12_372_740">
<rect width="104.019" height="88.7077" fill="white" transform="translate(348.241 36.2705) rotate(39.7468)"/>
</clipPath>
<clipPath id="clip13_372_740">
<rect width="182.908" height="151.618" fill="white" transform="translate(228.39 154.159) rotate(5.08182)"/>
</clipPath>
<clipPath id="clip14_372_740">
<rect width="44.7699" height="69.4017" fill="white" transform="translate(38.3403 198.199) rotate(16.2195)"/>
</clipPath>
</defs>
</svg>
