<svg width="434" height="321" viewBox="0 0 434 321" fill="none" xmlns="http://www.w3.org/2000/svg">
<g clip-path="url(#clip0_373_2204)">
<path d="M344.816 13.1777C336.287 13.4393 327.743 15.9899 320.145 20.4197L340.72 57.9697L359.285 15.0554C354.575 13.6172 349.697 13.0271 344.816 13.1777Z" fill="#ECBA85"/>
<path d="M340.742 58.1146C340.79 58.1072 340.85 58.0652 340.859 58.0146L359.424 15.1002C359.435 15.0656 359.444 15.0149 359.42 14.9691C359.397 14.9233 359.36 14.8961 359.325 14.8849C354.703 13.4827 349.818 12.8443 344.808 13.0146C336.314 13.2874 327.762 15.7897 320.059 20.285C319.983 20.3294 319.949 20.4333 319.994 20.5087L340.568 58.0588C340.594 58.1206 340.663 58.1429 340.714 58.1517L340.742 58.1146ZM359.066 15.1381L340.709 57.5767L320.367 20.4683C327.986 16.0682 336.427 13.5992 344.822 13.325C349.738 13.1855 354.519 13.7904 359.066 15.1381Z" fill="#111111"/>
<path d="M340.717 57.9538L344.341 62.7814L362.907 19.867L359.282 15.0394L340.717 57.9538Z" fill="#111111"/>
<path d="M344.382 62.9397C344.43 62.9323 344.49 62.8903 344.499 62.8396L363.064 19.9252C363.089 19.8721 363.079 19.8078 363.039 19.7645L359.415 14.9368C359.375 14.8935 359.322 14.8687 359.274 14.8761C359.209 14.8859 359.166 14.9254 359.141 14.9786L340.576 57.893C340.551 57.9461 340.56 58.0104 340.6 58.0537L344.224 62.8814C344.264 62.9247 344.317 62.9495 344.382 62.9397ZM362.726 19.8779L344.324 62.4549L340.929 57.9379L359.315 15.3633L362.726 19.8779Z" fill="#111111"/>
<path d="M320.143 20.4036C312.153 25.0742 305.219 31.8047 300.478 40.1427C290.75 57.2671 292.802 76.7116 304.009 89.3834L340.72 57.9697L320.143 20.4036Z" fill="#FAECDA"/>
<path d="M304.034 89.5441C304.066 89.5392 304.098 89.5343 304.11 89.4997L340.82 58.0861C340.88 58.0441 340.9 57.9588 340.855 57.8833L320.281 20.3333C320.257 20.2875 320.22 20.2603 320.186 20.2491C320.151 20.2379 320.102 20.2453 320.056 20.2688C311.761 25.101 304.943 31.9454 300.334 40.0659C295.623 48.3828 293.511 57.505 294.228 66.4436C294.931 75.1867 298.273 83.15 303.876 89.4858C303.932 89.5267 303.985 89.5515 304.034 89.5441ZM340.514 57.9188L304.023 89.1509C298.531 82.8967 295.255 75.0387 294.555 66.4266C293.83 57.5388 295.936 48.4833 300.622 40.2195C305.181 32.2053 311.895 25.4424 320.078 20.6274L340.514 57.9188Z" fill="#111111"/>
<path d="M302.119 87.0555L305.743 91.8832C306.343 92.6801 306.973 93.4561 307.631 94.195L304.006 89.3674C303.349 88.6285 302.719 87.8525 302.119 87.0555Z" fill="white"/>
<path d="M307.655 94.3558C307.688 94.3509 307.704 94.3484 307.734 94.3274C307.807 94.2669 307.808 94.168 307.766 94.1086L304.142 89.281C303.483 88.526 302.853 87.75 302.255 86.9691C302.194 86.8961 302.093 86.8786 302.019 86.9391C301.946 86.9997 301.928 87.101 301.989 87.1741L305.611 91.9856C306.211 92.7826 306.859 93.5722 307.517 94.3111C307.556 94.3545 307.607 94.3632 307.655 94.3558Z" fill="#111111"/>
<path d="M340.717 57.9537L304.006 89.3674C307.573 93.3813 312.045 96.731 317.358 99.0972C323.413 101.778 330.013 102.945 336.685 102.736C341.992 102.57 347.348 101.524 352.495 99.6553L340.717 57.9537Z" fill="#ECBA85"/>
<path d="M342.637 102.356C345.978 101.848 349.299 100.997 352.569 99.8086C352.647 99.7803 352.699 99.6901 352.671 99.6121L340.89 57.8944C340.883 57.8462 340.827 57.8053 340.774 57.7806C340.72 57.7558 340.658 57.7817 340.615 57.8212L303.904 89.2348C303.874 89.2558 303.849 89.309 303.854 89.3411C303.845 89.3918 303.867 89.4215 303.89 89.4673C307.582 93.6594 312.093 96.9374 317.3 99.2541C323.283 101.897 329.81 103.124 336.696 102.915C338.683 102.843 340.652 102.659 342.637 102.356ZM352.317 99.5672C347.197 101.399 341.952 102.411 336.695 102.586C329.844 102.806 323.366 101.572 317.436 98.9537C312.32 96.6891 307.883 93.4656 304.243 89.3972L340.63 58.2466L352.317 99.5672Z" fill="#111111"/>
<path d="M340.717 57.9536L352.498 99.6713C360.543 96.769 368.067 91.8568 374.134 85.1761L340.717 57.9536Z" fill="#FAECDA"/>
<path d="M352.539 99.8297L352.571 99.8248C360.851 96.8375 368.342 91.8152 374.266 85.2876C374.294 85.2506 374.305 85.2159 374.314 85.1653C374.306 85.117 374.285 85.0873 374.248 85.0601L340.832 57.8376C340.776 57.7967 340.693 57.7929 340.633 57.8349C340.574 57.8769 340.551 57.9461 340.561 58.0104L352.342 99.7281C352.349 99.7763 352.386 99.8036 352.423 99.8308C352.472 99.8235 352.507 99.8346 352.539 99.8297ZM373.905 85.1945C368.072 91.5602 360.716 96.4961 352.614 99.4564L341.019 58.4178L373.905 85.1945Z" fill="#111111"/>
<path d="M317.358 99.0972C323.413 101.778 330.013 102.945 336.685 102.736C341.992 102.57 347.348 101.524 352.495 99.6553C360.543 96.7692 368.067 91.857 374.133 85.1762L377.757 90.0038C371.691 96.6846 364.164 101.581 356.122 104.499C350.974 106.368 345.619 107.414 340.311 107.58C333.64 107.789 327.037 106.606 320.985 103.941C315.672 101.575 311.186 98.2436 307.633 94.2111L304.009 89.3834C307.575 93.3974 312.048 96.747 317.358 99.0972Z" fill="#DF803F"/>
<path d="M346.261 107.184C349.602 106.676 352.923 105.825 356.193 104.636C364.472 101.649 371.963 96.6268 377.888 90.0992C377.945 90.0412 377.949 89.9583 377.891 89.9014L374.267 85.0737C374.243 85.0279 374.192 85.0192 374.141 85.0105C374.09 85.0018 374.044 85.0253 374.017 85.0623C368.134 91.5343 360.672 96.5356 352.455 99.497C347.291 101.369 341.998 102.388 336.69 102.554C329.839 102.774 323.36 101.54 317.431 98.9217C312.278 96.6298 307.804 93.3791 304.135 89.2327C304.074 89.1597 303.975 89.1584 303.918 89.2164C303.844 89.2769 303.843 89.3759 303.885 89.4353L307.509 94.2629C311.215 98.4365 315.729 101.731 320.933 104.031C326.916 106.674 333.443 107.901 340.329 107.692C342.307 107.671 344.293 107.484 346.261 107.184ZM377.559 90.0012C371.684 96.4225 364.267 101.384 356.082 104.341C350.918 106.212 345.625 107.232 340.317 107.398C333.465 107.618 326.987 106.383 321.058 103.765C315.904 101.474 311.43 98.2228 307.761 94.0765L305.816 91.4937C309.113 94.7098 312.96 97.3156 317.295 99.222C323.278 101.865 329.805 103.092 336.691 102.883C342.031 102.712 347.373 101.685 352.55 99.7951C360.765 96.8176 368.215 91.851 374.119 85.4087L377.559 90.0012Z" fill="#111111"/>
<path d="M374.804 16.1318L352.803 57.4139L383.892 87.2443C386.755 84.5714 389.308 81.6003 391.466 78.4259C406.082 56.9713 400.645 29.8171 379.441 18.2883C377.947 17.4793 376.402 16.7604 374.804 16.1318Z" fill="white"/>
<path d="M383.917 87.405C383.949 87.4001 383.979 87.3791 384.009 87.3581C386.871 84.6852 389.424 81.7141 391.612 78.5187C395.362 72.9966 397.873 67.0379 399.07 60.802C400.216 54.7713 400.097 48.7851 398.709 43.025C396.103 32.3013 389.293 23.4675 379.537 18.1585C378.078 17.3606 376.513 16.6281 374.881 15.9883C374.809 15.9499 374.717 15.9968 374.678 16.0685L352.678 57.3507C352.639 57.4224 352.649 57.4867 352.707 57.5436L383.778 87.3603C383.817 87.4036 383.868 87.4123 383.917 87.405ZM374.884 16.3333C376.449 16.9669 377.961 17.6746 379.364 18.4316C389.048 23.7022 395.797 32.463 398.373 43.0926C399.754 48.8045 399.881 54.74 398.728 60.7225C397.542 66.9237 395.042 72.8478 391.317 78.3168C389.186 81.4542 386.674 84.3697 383.872 87.0006L352.992 57.3522L374.884 16.3333Z" fill="#111111"/>
<path d="M352.817 57.3954L356.037 62.4983L387.112 92.3472L383.892 87.2442L352.817 57.3954Z" fill="#111111"/>
<path d="M387.137 92.508C387.169 92.5031 387.185 92.5006 387.215 92.4796C387.272 92.4216 387.292 92.3363 387.248 92.2608L384.028 87.1578C384.025 87.1417 384.009 87.1442 384.007 87.1281L352.915 57.2817C352.857 57.2247 352.758 57.2234 352.698 57.2654C352.641 57.3234 352.621 57.4087 352.665 57.4842L355.885 62.5872C355.888 62.6033 355.904 62.6008 355.906 62.6169L386.998 92.4633C387.035 92.4906 387.088 92.5153 387.137 92.508ZM383.759 87.3467L386.258 91.2927L356.154 62.3983L353.655 58.4523L383.759 87.3467Z" fill="#111111"/>
<path d="M383.892 87.2441L387.112 92.3471C389.975 89.6742 392.527 86.7031 394.686 83.5287C405.117 68.2054 405.334 49.995 396.892 36.6226L393.672 31.5196C402.114 44.892 401.897 63.1024 391.466 78.4257C389.307 81.6001 386.754 84.5713 383.892 87.2441Z" fill="#ECBA85"/>
<path d="M387.137 92.508C387.169 92.5031 387.199 92.4821 387.229 92.4611C390.091 89.7882 392.644 86.8171 394.832 83.6217C399.892 76.1893 402.729 67.8122 403.044 59.3582C403.344 51.1368 401.268 43.2441 397.046 36.5499L393.826 31.4469C393.782 31.3714 393.68 31.354 393.604 31.3984C393.528 31.4429 393.511 31.5443 393.555 31.6197C397.754 38.2682 399.801 46.0829 399.507 54.2376C399.198 62.6248 396.373 70.9673 391.352 78.328C389.193 81.5024 386.654 84.455 383.805 87.1093C383.748 87.1674 383.744 87.2502 383.77 87.3121L386.99 92.4151C387.014 92.4609 387.067 92.4856 387.102 92.4968C387.104 92.5129 387.121 92.5104 387.137 92.508ZM396.195 35.8404L396.759 36.7252C400.955 43.3575 403.003 51.1722 402.711 59.3431C402.403 67.7302 399.578 76.0727 394.556 83.4334C392.422 86.5547 389.943 89.4653 387.156 92.0937L384.112 87.2766C386.944 84.6248 389.467 81.6746 391.612 78.5187C396.656 71.0887 399.49 62.6956 399.807 54.2577C400.056 47.755 398.82 41.4782 396.195 35.8404Z" fill="#111111"/>
</g>
<g clip-path="url(#clip1_373_2204)">
<path d="M119.564 94.0859L111.56 97.8117C111.665 97.7063 111.787 97.6195 111.922 97.5552L119.927 93.8295C119.792 93.8938 119.669 93.9805 119.564 94.0859Z" fill="white"/>
<path d="M111.612 97.975C111.575 97.9874 111.535 97.9868 111.499 97.9734C111.462 97.9599 111.431 97.9344 111.411 97.9011C111.391 97.8677 111.382 97.8285 111.388 97.7898C111.393 97.7512 111.411 97.7154 111.439 97.6883C111.558 97.5693 111.697 97.4713 111.849 97.3987L119.852 93.6737L119.854 93.6732C119.895 93.6552 119.942 93.654 119.984 93.6699C120.026 93.6857 120.06 93.7174 120.079 93.758C120.098 93.7987 120.1 93.8452 120.085 93.8875C120.07 93.9298 120.039 93.9647 119.999 93.9846L119.997 93.985C119.881 94.0411 119.775 94.1165 119.684 94.2079C119.67 94.2218 119.654 94.2331 119.636 94.2415L111.632 97.9673C111.625 97.9703 111.619 97.9728 111.612 97.975Z" fill="black"/>
<path d="M168.952 177.724L122.752 122.247C122.622 122.078 122.44 121.958 122.234 121.904C122.027 121.85 121.809 121.866 121.613 121.95L113.608 125.676C113.804 125.592 114.023 125.576 114.229 125.629C114.435 125.683 114.618 125.804 114.748 125.973L160.948 181.449C161.078 181.617 161.26 181.737 161.466 181.79C161.672 181.843 161.889 181.827 162.085 181.743L170.09 178.017C169.894 178.101 169.676 178.117 169.471 178.064C169.265 178.011 169.083 177.891 168.952 177.724Z" fill="#DF803F"/>
<path d="M162.042 181.944C161.823 182.009 161.588 182.008 161.37 181.939C161.151 181.871 160.958 181.738 160.815 181.559L114.616 126.083C114.51 125.943 114.361 125.842 114.192 125.797C114.022 125.751 113.843 125.764 113.681 125.832C113.661 125.842 113.638 125.848 113.615 125.849C113.592 125.851 113.57 125.847 113.548 125.84C113.526 125.832 113.507 125.82 113.49 125.805C113.473 125.79 113.459 125.771 113.449 125.75C113.44 125.73 113.434 125.707 113.433 125.684C113.433 125.662 113.436 125.639 113.444 125.617C113.452 125.596 113.465 125.576 113.48 125.56C113.496 125.543 113.515 125.53 113.536 125.521L113.537 125.52L121.541 121.795C121.771 121.696 122.028 121.676 122.271 121.738C122.514 121.8 122.73 121.94 122.885 122.137L169.084 177.614C169.191 177.752 169.34 177.851 169.508 177.896C169.677 177.941 169.856 177.929 170.017 177.862C170.037 177.852 170.06 177.846 170.083 177.844C170.106 177.843 170.128 177.846 170.15 177.854C170.172 177.861 170.192 177.873 170.209 177.888C170.226 177.904 170.239 177.922 170.249 177.943C170.259 177.964 170.264 177.986 170.265 178.009C170.266 178.032 170.262 178.055 170.254 178.076C170.246 178.098 170.233 178.117 170.218 178.134C170.202 178.151 170.183 178.164 170.162 178.173L170.161 178.173L162.157 181.899C162.12 181.916 162.082 181.931 162.042 181.944ZM114.386 125.503C114.578 125.58 114.748 125.703 114.879 125.862L161.08 181.339C161.186 181.477 161.335 181.577 161.504 181.621C161.672 181.666 161.851 181.654 162.012 181.587L169.311 178.19C169.12 178.115 168.951 177.992 168.82 177.834L122.62 122.357C122.514 122.217 122.365 122.116 122.196 122.071C122.027 122.025 121.847 122.038 121.685 122.106L114.386 125.503Z" fill="black"/>
<path d="M111.56 97.8116L94.6772 121.794C94.6135 121.853 94.5411 121.901 94.4626 121.938L102.467 118.212C102.546 118.175 102.618 118.127 102.682 118.068L119.564 94.0858L111.56 97.8116Z" fill="white"/>
<path d="M94.5152 122.101C94.4735 122.115 94.4282 122.112 94.3885 122.093C94.3489 122.075 94.3178 122.042 94.3018 122.001C94.2857 121.96 94.2859 121.915 94.3022 121.874C94.3186 121.833 94.3498 121.8 94.3896 121.782C94.4468 121.755 94.4999 121.721 94.5474 121.679L111.419 97.7131C111.436 97.6885 111.459 97.6689 111.487 97.6562L119.491 93.931C119.526 93.915 119.564 93.9108 119.601 93.919C119.638 93.9272 119.671 93.9473 119.696 93.9763C119.72 94.0053 119.734 94.0416 119.736 94.0794C119.737 94.1172 119.726 94.1544 119.704 94.1854L102.822 118.167C102.815 118.177 102.807 118.186 102.798 118.195C102.721 118.265 102.634 118.324 102.539 118.368L94.5365 122.093L94.5345 122.093C94.5283 122.096 94.5218 122.099 94.5152 122.101ZM111.673 97.9478L95.1424 121.432L102.395 118.056C102.452 118.03 102.505 117.995 102.552 117.953L119.053 94.513L111.673 97.9478Z" fill="black"/>
<path d="M103.027 146.076L61.0907 95.7198C60.9604 95.5521 60.7781 95.4323 60.5723 95.3791C60.3665 95.326 60.1488 95.3425 59.9532 95.426L51.9489 99.1525C52.1444 99.0689 52.3622 99.0525 52.568 99.1057C52.7738 99.1589 52.9561 99.2787 53.0864 99.4464L95.0226 149.803C95.1504 149.969 95.3319 150.086 95.5362 150.133C95.7406 150.181 95.9552 150.156 96.1433 150.063L104.148 146.337C103.96 146.43 103.745 146.455 103.541 146.407C103.336 146.36 103.155 146.243 103.027 146.076Z" fill="#DF803F"/>
<path d="M96.0771 150.273C95.8661 150.343 95.6386 150.346 95.426 150.281C95.2133 150.217 95.0261 150.088 94.8901 149.912L52.9538 99.5553C52.8473 99.4172 52.6982 99.3182 52.5296 99.2734C52.361 99.2285 52.1823 99.2404 52.021 99.3073C52.0006 99.3168 51.9784 99.3222 51.9558 99.3232C51.9333 99.3242 51.9107 99.3207 51.8895 99.3129C51.8683 99.3052 51.8488 99.2934 51.8322 99.2781C51.8155 99.2629 51.8021 99.2445 51.7925 99.2241C51.783 99.2036 51.7776 99.1815 51.7767 99.1589C51.7757 99.1364 51.7792 99.1139 51.787 99.0927C51.7947 99.0715 51.8066 99.052 51.8219 99.0354C51.8371 99.0187 51.8556 99.0053 51.876 98.9957L59.8807 95.2701C60.1107 95.1712 60.3669 95.1508 60.6096 95.2121C60.8523 95.2734 61.0679 95.4131 61.223 95.6093L103.159 145.966C103.263 146.103 103.411 146.199 103.578 146.238C103.745 146.278 103.921 146.257 104.075 146.18C104.096 146.17 104.118 146.164 104.141 146.163C104.164 146.161 104.187 146.164 104.208 146.172C104.23 146.18 104.25 146.191 104.267 146.207C104.284 146.222 104.297 146.241 104.307 146.261C104.317 146.282 104.322 146.305 104.323 146.328C104.324 146.351 104.32 146.373 104.312 146.395C104.304 146.416 104.291 146.436 104.276 146.452C104.26 146.469 104.241 146.482 104.22 146.491L96.2154 150.217C96.1704 150.238 96.1242 150.257 96.0771 150.273ZM52.7272 98.9785C52.9185 99.0543 53.0874 99.1771 53.2183 99.3355L95.1545 149.692C95.2579 149.829 95.4062 149.925 95.5735 149.965C95.7408 150.004 95.9166 149.983 96.0704 149.906L103.341 146.522C103.167 146.448 103.014 146.333 102.895 146.186L60.9585 95.8297C60.852 95.6916 60.7029 95.5924 60.5343 95.5476C60.3657 95.5028 60.1869 95.5148 60.0257 95.5817L52.7272 98.9785Z" fill="black"/>
<path d="M41.0995 58.6533L33.0947 62.379C33.1614 62.3176 33.2371 62.2669 33.3192 62.2286L41.324 58.5028C41.2419 58.5412 41.1662 58.592 41.0995 58.6533Z" fill="white"/>
<path d="M33.1481 62.5423C33.1108 62.5545 33.0704 62.5536 33.0337 62.5397C32.997 62.5257 32.9661 62.4997 32.9463 62.4658C32.9265 62.432 32.9189 62.3923 32.9248 62.3535C32.9306 62.3147 32.9496 62.2791 32.9786 62.2525C33.0582 62.1792 33.1487 62.1186 33.2469 62.0729L41.251 58.3474C41.2716 58.3374 41.2939 58.3315 41.3168 58.3301C41.3396 58.3288 41.3625 58.332 41.3841 58.3396C41.4057 58.3472 41.4255 58.359 41.4424 58.3743C41.4594 58.3897 41.4731 58.4083 41.4827 58.429C41.4924 58.4497 41.4978 58.4721 41.4987 58.495C41.4995 58.5178 41.4958 58.5406 41.4878 58.562C41.4797 58.5834 41.4674 58.603 41.4517 58.6196C41.436 58.6362 41.4171 58.6495 41.3962 58.6588L41.395 58.6591C41.3294 58.6899 41.2688 58.7306 41.2154 58.7797C41.2022 58.7918 41.1871 58.8018 41.1708 58.8092L33.1675 62.5347C33.1612 62.5377 33.1548 62.5402 33.1481 62.5423Z" fill="black"/>
<path d="M33.0949 62.379C32.9689 62.4987 32.8768 62.6495 32.8279 62.8161C32.779 62.9828 32.7751 63.1594 32.8166 63.328L42.1234 106.037C42.2695 106.707 42.9548 107.059 43.4885 106.81L51.493 103.085C50.959 103.333 50.2741 102.981 50.1281 102.311L40.8212 59.6022C40.7797 59.4336 40.7836 59.257 40.8326 59.0904C40.8815 58.9238 40.9737 58.773 41.0997 58.6533L33.0949 62.379Z" fill="white"/>
<path d="M43.4467 107.011C43.1736 107.097 42.8776 107.072 42.6228 106.942C42.4531 106.857 42.3049 106.735 42.1893 106.584C42.0737 106.434 41.9937 106.259 41.9552 106.073L32.6483 63.3647C32.6003 63.1669 32.6055 62.9598 32.6634 62.7645C32.7213 62.5693 32.8299 62.3927 32.9781 62.2528C32.9911 62.2408 33.0059 62.231 33.0219 62.2235L41.0268 58.4977C41.064 58.4807 41.1059 58.4774 41.1452 58.4885C41.1845 58.4996 41.2185 58.5243 41.2413 58.5582C41.264 58.5921 41.2739 58.6329 41.2692 58.6735C41.2645 58.714 41.2455 58.7515 41.2156 58.7794C41.1119 58.8789 41.0363 59.0039 40.9964 59.142C40.9566 59.28 40.954 59.4261 40.9889 59.5654L50.296 102.275C50.3237 102.41 50.3817 102.538 50.4656 102.648C50.5495 102.757 50.6571 102.847 50.7805 102.909C50.8787 102.961 50.9872 102.989 51.098 102.993C51.2088 102.996 51.319 102.975 51.4204 102.93C51.4409 102.92 51.4633 102.914 51.4862 102.912C51.5091 102.911 51.532 102.914 51.5536 102.922C51.5752 102.929 51.5951 102.941 51.6121 102.956C51.6291 102.972 51.6428 102.99 51.6524 103.011C51.6621 103.032 51.6675 103.054 51.6684 103.077C51.6692 103.1 51.6654 103.123 51.6573 103.144C51.6492 103.166 51.6369 103.185 51.6211 103.202C51.6053 103.219 51.5863 103.232 51.5653 103.241L51.5627 103.242L43.5607 106.966C43.5236 106.983 43.4856 106.998 43.4467 107.011ZM33.1928 62.5228C33.0954 62.6227 33.0252 62.7457 32.9887 62.8801C32.9523 63.0146 32.9508 63.1561 32.9844 63.2913L42.2911 106C42.3188 106.135 42.3768 106.263 42.4607 106.373C42.5446 106.482 42.6523 106.572 42.7757 106.634C42.8739 106.685 42.9824 106.714 43.0932 106.717C43.204 106.721 43.3142 106.7 43.4155 106.655L50.7167 103.256C50.6864 103.244 50.6565 103.231 50.6272 103.216C50.4577 103.131 50.3097 103.009 50.1942 102.859C50.0786 102.708 49.9986 102.534 49.9601 102.348L40.653 59.6389C40.6088 59.4426 40.6135 59.2384 40.6666 59.0442L33.1928 62.5228Z" fill="black"/>
<path d="M41.0999 58.6533C41.2233 58.5396 41.3769 58.4637 41.5423 58.4347C41.7076 58.4058 41.8778 58.4249 42.0324 58.4899L81.1002 73.8689C81.8057 74.146 82.0177 75.1093 81.4742 75.6079L73.4613 82.9667C73.2744 83.1561 73.1662 83.4091 73.1582 83.6749C73.1502 83.9406 73.2432 84.1995 73.4183 84.3995L101.329 117.914C101.405 118.016 101.501 118.102 101.612 118.166C101.722 118.229 101.845 118.27 101.971 118.284C102.098 118.299 102.227 118.287 102.349 118.25C102.471 118.213 102.584 118.151 102.682 118.069L119.564 94.0858C120.068 93.5929 120.676 93.6458 121.047 94.0901L181.273 166.409C181.45 166.609 181.543 166.868 181.535 167.134C181.527 167.4 181.418 167.653 181.23 167.842L170.31 177.869C170.213 177.953 170.1 178.015 169.977 178.053C169.855 178.091 169.726 178.104 169.599 178.09C169.472 178.076 169.349 178.037 169.237 177.974C169.126 177.911 169.029 177.825 168.952 177.723L122.752 122.247C122.676 122.145 122.579 122.059 122.468 121.995C122.357 121.932 122.234 121.892 122.106 121.878C121.979 121.863 121.85 121.876 121.728 121.913C121.605 121.951 121.492 122.014 121.395 122.097L104.517 146.075C104.006 146.574 103.398 146.522 103.027 146.076L61.0909 95.7197C61.014 95.6175 60.9169 95.5322 60.8056 95.4691C60.6943 95.4059 60.5713 95.3663 60.444 95.3526C60.3167 95.3388 60.1879 95.3514 60.0656 95.3894C59.9434 95.4274 59.8302 95.49 59.7331 95.5735L51.7201 102.932C51.1771 103.431 50.2961 103.081 50.1283 102.311L40.8213 59.6021C40.7799 59.4335 40.7839 59.257 40.8328 59.0903C40.8817 58.9237 40.9739 58.7729 41.0999 58.6533Z" fill="#ECBA85"/>
<path d="M170.047 178.219C169.918 178.26 169.783 178.277 169.648 178.268C169.488 178.255 169.332 178.21 169.189 178.135C169.047 178.06 168.921 177.958 168.819 177.833L122.62 122.357C122.549 122.267 122.459 122.193 122.358 122.139C122.257 122.085 122.146 122.053 122.031 122.043C121.94 122.036 121.848 122.048 121.761 122.077C121.674 122.106 121.593 122.151 121.524 122.212L104.657 146.174C104.651 146.183 104.645 146.191 104.637 146.199C104.516 146.329 104.369 146.432 104.206 146.501C104.042 146.57 103.866 146.605 103.688 146.601C103.534 146.591 103.384 146.549 103.248 146.478C103.111 146.407 102.991 146.307 102.895 146.187L60.9586 95.8296C60.8868 95.7409 60.7978 95.6676 60.6969 95.6142C60.596 95.5607 60.4853 95.5282 60.3714 95.5185C60.2766 95.5115 60.1814 95.5239 60.0916 95.5551C60.0018 95.5864 59.9193 95.6356 59.8493 95.6999L51.8363 103.058C51.6985 103.185 51.5294 103.273 51.3464 103.312C51.1635 103.352 50.9732 103.342 50.7954 103.284C50.5863 103.215 50.3991 103.092 50.2525 102.928C50.106 102.764 50.0052 102.564 49.9604 102.348L40.6534 59.6388C40.6053 59.4409 40.6105 59.2338 40.6685 59.0385C40.7265 58.8432 40.8352 58.6666 40.9835 58.5268C41.1305 58.3909 41.3135 58.3002 41.5106 58.2653C41.7078 58.2305 41.9108 58.253 42.0954 58.3303L81.1633 73.7088C81.3617 73.7884 81.5363 73.9173 81.6707 74.0833C81.805 74.2493 81.8947 74.4469 81.931 74.6573C81.9708 74.8509 81.9604 75.0515 81.9008 75.24C81.8412 75.4285 81.7344 75.5988 81.5905 75.7346L73.5775 83.0932C73.4228 83.2525 73.334 83.4644 73.329 83.6862C73.324 83.9081 73.4031 84.1236 73.5505 84.2896L101.461 117.804C101.533 117.894 101.622 117.968 101.724 118.022C101.825 118.076 101.937 118.109 102.052 118.118C102.142 118.125 102.233 118.114 102.319 118.086C102.405 118.058 102.484 118.013 102.553 117.953L119.424 93.9873C119.43 93.9785 119.437 93.9702 119.444 93.9627C119.565 93.8349 119.711 93.7337 119.873 93.6653C120.035 93.597 120.209 93.563 120.385 93.5657C120.539 93.5756 120.689 93.6177 120.826 93.6893C120.963 93.7608 121.084 93.8602 121.18 93.9811L181.405 166.299C181.612 166.532 181.72 166.835 181.71 167.145C181.699 167.456 181.568 167.751 181.346 167.968L170.426 177.996C170.317 178.097 170.188 178.172 170.047 178.219ZM121.656 121.749C121.784 121.708 121.919 121.691 122.054 121.7C122.215 121.713 122.372 121.758 122.514 121.833C122.657 121.908 122.783 122.012 122.884 122.137L169.084 177.614C169.156 177.702 169.245 177.776 169.346 177.829C169.447 177.882 169.558 177.915 169.671 177.925C169.766 177.932 169.861 177.919 169.951 177.888C170.041 177.857 170.124 177.807 170.194 177.743L181.113 167.716C181.268 167.556 181.357 167.345 181.362 167.123C181.367 166.901 181.288 166.685 181.141 166.52L120.915 94.2009C120.849 94.1167 120.766 94.0472 120.672 93.997C120.577 93.9467 120.473 93.9167 120.366 93.9089C120.241 93.9082 120.116 93.9334 120.001 93.9831C119.885 94.0329 119.781 94.106 119.695 94.1978L102.822 118.167C102.815 118.177 102.807 118.187 102.798 118.195C102.695 118.29 102.573 118.362 102.441 118.408C102.308 118.454 102.168 118.472 102.028 118.461C101.867 118.449 101.71 118.404 101.567 118.329C101.424 118.254 101.298 118.15 101.196 118.024L73.2859 84.5095C73.0829 84.2755 72.9761 83.9733 72.987 83.6637C72.998 83.354 73.1258 83.0599 73.3448 82.8404L81.358 75.4819C81.4588 75.3854 81.5333 75.2648 81.5744 75.1315C81.6155 74.9983 81.6218 74.8568 81.5929 74.7204C81.567 74.5673 81.5023 74.4234 81.405 74.3023C81.3077 74.1813 81.1811 74.0871 81.037 74.0288L41.9692 58.6498C41.8444 58.5969 41.707 58.581 41.5734 58.6041C41.4397 58.6271 41.3155 58.6881 41.2156 58.7797C41.1119 58.8792 41.0363 59.0043 40.9965 59.1423C40.9567 59.2803 40.9541 59.4264 40.989 59.5657L50.2965 102.275C50.3281 102.431 50.4004 102.577 50.5061 102.697C50.6119 102.816 50.7473 102.906 50.8989 102.957C51.0189 102.998 51.1477 103.005 51.2717 102.979C51.3957 102.952 51.5102 102.893 51.603 102.806L59.6161 95.4479C59.7203 95.3519 59.8431 95.2783 59.9769 95.2315C60.1107 95.1848 60.2527 95.1659 60.394 95.1761C60.5544 95.1889 60.7106 95.234 60.8531 95.3086C60.9955 95.3833 61.1214 95.4859 61.2231 95.6104L103.159 145.967C103.225 146.051 103.307 146.121 103.402 146.171C103.496 146.221 103.6 146.251 103.707 146.258C103.834 146.259 103.96 146.233 104.077 146.182C104.194 146.132 104.299 146.057 104.386 145.964L121.255 121.999C121.262 121.989 121.27 121.98 121.279 121.971C121.387 121.871 121.516 121.795 121.656 121.749Z" fill="black"/>
</g>
<g clip-path="url(#clip2_373_2204)">
<path d="M122.302 188.727L124.304 189.894C123.556 189.638 122.835 189.308 122.151 188.91L120.149 187.742C120.833 188.14 121.554 188.47 122.302 188.727Z" fill="white"/>
<path d="M124.281 190.082C124.268 190.081 124.255 190.078 124.242 190.073C123.482 189.812 122.75 189.477 122.056 189.073L120.055 187.907L120.054 187.907C120.032 187.894 120.014 187.877 119.999 187.858C119.984 187.838 119.973 187.815 119.966 187.791C119.953 187.743 119.961 187.692 119.986 187.648C120.011 187.605 120.052 187.574 120.101 187.561C120.149 187.548 120.201 187.555 120.244 187.581C120.917 187.972 121.627 188.297 122.363 188.55C122.375 188.554 122.386 188.559 122.397 188.565L124.399 189.733C124.436 189.754 124.465 189.789 124.481 189.83C124.496 189.87 124.497 189.915 124.483 189.956C124.469 189.998 124.441 190.033 124.404 190.056C124.367 190.079 124.323 190.088 124.28 190.083L124.281 190.082Z" fill="black"/>
<path d="M311.651 253.826L313.653 254.993L124.303 189.894L122.302 188.727L311.651 253.826Z" fill="black"/>
<path d="M313.63 255.181C313.617 255.179 313.604 255.176 313.591 255.172L124.242 190.073C124.23 190.069 124.219 190.063 124.208 190.057L122.206 188.89C122.165 188.866 122.134 188.829 122.12 188.784C122.105 188.739 122.108 188.69 122.127 188.647C122.147 188.604 122.182 188.57 122.226 188.552C122.269 188.533 122.318 188.532 122.362 188.547L311.712 253.647C311.723 253.651 311.735 253.656 311.745 253.662L313.747 254.829C313.785 254.851 313.813 254.886 313.829 254.926C313.844 254.967 313.845 255.011 313.831 255.053C313.817 255.094 313.789 255.129 313.753 255.152C313.716 255.175 313.672 255.185 313.629 255.18L313.63 255.181ZM124.383 189.722L311.906 254.193L311.572 253.998L124.048 189.527L124.383 189.722Z" fill="black"/>
<path d="M376.428 99.6165L374.426 98.4489C379.893 101.637 382.189 108.83 379.556 115.622L329.646 244.359C326.69 251.985 318.634 256.226 311.651 253.826L313.653 254.993C320.636 257.394 328.692 253.153 331.648 245.526L381.558 116.79C384.191 109.998 381.895 102.805 376.428 99.6165Z" fill="#DF803F"/>
<path d="M316.131 255.756C315.266 255.651 314.415 255.455 313.592 255.172C313.58 255.168 313.569 255.163 313.558 255.156L311.556 253.989C311.515 253.965 311.484 253.928 311.469 253.883C311.455 253.838 311.457 253.789 311.477 253.746C311.497 253.703 311.532 253.669 311.575 253.651C311.619 253.632 311.668 253.631 311.712 253.646C318.587 256.01 326.553 251.813 329.47 244.29L379.38 115.553C381.944 108.938 379.821 101.813 374.331 98.611C374.309 98.5987 374.289 98.5823 374.274 98.5625C374.258 98.5428 374.247 98.5201 374.24 98.4959C374.234 98.4717 374.232 98.4465 374.235 98.4216C374.239 98.3968 374.247 98.3728 374.26 98.3511C374.272 98.3295 374.289 98.3105 374.309 98.2955C374.329 98.2804 374.352 98.2694 374.376 98.2633C374.401 98.2571 374.426 98.2559 374.451 98.2596C374.476 98.2633 374.499 98.2719 374.521 98.285L376.523 99.4524C382.174 102.748 384.366 110.068 381.734 116.857L331.824 245.593C329.189 252.394 322.515 256.538 316.131 255.756ZM313.733 254.821C320.604 257.171 328.559 252.974 331.473 245.458L381.383 116.721C383.839 110.386 381.995 103.583 377.011 100.206C380.762 103.962 381.935 110.012 379.733 115.69L329.823 244.427C327.187 251.226 320.514 255.37 314.129 254.589C313.755 254.543 313.383 254.48 313.012 254.4L313.733 254.821Z" fill="black"/>
<path d="M372.271 97.4629C379.254 99.8636 382.513 107.995 379.556 115.622L329.647 244.358C326.69 251.985 318.634 256.225 311.651 253.825L122.302 188.727C115.323 186.327 112.064 178.196 115.021 170.569L164.931 41.8321C167.887 34.2055 175.943 29.9649 182.922 32.3635L372.271 97.4629Z" fill="#ECBA85"/>
<path d="M314.128 254.589C313.264 254.483 312.413 254.287 311.589 254.004L122.24 188.905C120.659 188.357 119.206 187.493 117.97 186.366C116.734 185.239 115.74 183.872 115.05 182.349C113.386 178.773 113.312 174.454 114.844 170.501L164.754 41.7646C167.743 34.0547 175.921 29.7581 182.983 32.1859L372.332 97.2848C373.914 97.833 375.368 98.6972 376.605 99.8247C377.841 100.952 378.836 102.32 379.527 103.843C381.19 107.419 381.265 111.737 379.731 115.69L329.821 244.427C327.186 251.226 320.513 255.371 314.128 254.589ZM180.397 31.9757C174.182 31.2143 167.68 35.2632 165.106 41.9009L115.197 170.638C113.701 174.496 113.772 178.707 115.393 182.191C116.062 183.668 117.025 184.994 118.223 186.087C119.422 187.18 120.83 188.018 122.363 188.549L311.712 253.648C318.587 256.012 326.553 251.815 329.47 244.291L379.38 115.555C380.875 111.697 380.804 107.487 379.184 104.003C378.514 102.526 377.55 101.2 376.351 100.106C375.152 99.0127 373.743 98.1744 372.209 97.6426L182.86 32.5426C182.061 32.268 181.236 32.078 180.397 31.9757Z" fill="black"/>
<path d="M368.932 102.268L182.195 38.0667C177.354 36.4024 171.765 39.3423 169.716 44.6283L120.594 171.333C118.543 176.623 120.807 182.258 125.648 183.923L312.385 248.124C317.223 249.787 322.809 246.851 324.86 241.561L373.982 114.856C376.031 109.57 373.769 103.931 368.932 102.268Z" fill="white"/>
<path d="M314.095 248.71C313.492 248.637 312.898 248.5 312.324 248.303L125.586 184.101C124.482 183.718 123.466 183.115 122.603 182.328C121.739 181.54 121.044 180.585 120.562 179.521C119.401 177.028 119.35 174.019 120.418 171.265L169.54 44.5603C171.623 39.1867 177.327 36.1943 182.256 37.8883L368.994 102.089C370.097 102.472 371.112 103.075 371.975 103.862C372.838 104.649 373.531 105.603 374.013 106.667C375.173 109.161 375.226 112.171 374.159 114.924L325.037 241.629C323.2 246.368 318.548 249.255 314.095 248.71ZM180.435 37.8552C176.149 37.3303 171.666 40.1217 169.892 44.6975L120.77 171.401C119.739 174.06 119.788 176.962 120.904 179.362C121.365 180.38 122.029 181.294 122.856 182.047C123.682 182.8 124.653 183.378 125.709 183.744L312.447 247.946C317.184 249.574 322.673 246.679 324.684 241.493L373.806 114.788C374.836 112.129 374.788 109.228 373.671 106.826C373.21 105.809 372.547 104.896 371.722 104.143C370.896 103.39 369.926 102.813 368.871 102.446L182.133 38.2452C181.582 38.0563 181.013 37.9255 180.435 37.8552Z" fill="black"/>
<path d="M274.6 72.6464C273.462 72.255 272.151 72.948 271.668 74.1923C271.186 75.4366 271.716 76.7576 272.854 77.1491C273.993 77.5405 275.306 76.8531 275.789 75.609C276.271 74.3649 275.739 73.0379 274.6 72.6464Z" fill="black"/>
<path d="M273.24 77.4303C272.871 77.3858 272.519 77.2471 272.219 77.0275C271.92 76.808 271.682 76.515 271.528 76.1769C271.385 75.8545 271.308 75.5067 271.302 75.1541C271.295 74.8015 271.36 74.4512 271.492 74.124C272.01 72.7879 273.432 72.0449 274.661 72.4679C274.939 72.5641 275.195 72.716 275.412 72.9142C275.63 73.1124 275.805 73.3527 275.927 73.6206C276.07 73.9435 276.147 74.2918 276.154 74.645C276.16 74.9983 276.096 75.3492 275.964 75.677C275.51 76.8521 274.351 77.5664 273.24 77.4303ZM274.17 72.7399C273.227 72.6244 272.238 73.2449 271.845 74.2605C271.731 74.5403 271.675 74.84 271.68 75.1418C271.684 75.4437 271.75 75.7416 271.871 76.0179C271.972 76.2392 272.116 76.4377 272.295 76.6015C272.475 76.7653 272.686 76.8908 272.916 76.9705C273.958 77.329 275.168 76.6875 275.612 75.5407C275.726 75.2603 275.782 74.9599 275.777 74.6574C275.772 74.3549 275.706 74.0564 275.584 73.7797C275.484 73.558 275.339 73.359 275.16 73.1948C274.98 73.0306 274.768 72.9047 274.538 72.8248C274.419 72.7837 274.295 72.7552 274.17 72.7399Z" fill="black"/>
<path d="M317.968 260.929L248.968 284.886C244.878 286.305 235.907 285.511 228.928 283.112L39.5788 218.012C34.6822 216.329 32.0668 214.304 32.3513 212.754L31.4534 217.645C31.1685 219.194 33.7843 221.22 38.6809 222.904L228.03 288.003C235.009 290.402 243.98 291.197 248.07 289.777L317.07 265.82C318.292 265.396 318.94 264.822 319.061 264.163L319.959 259.272C319.838 259.931 319.19 260.505 317.968 260.929Z" fill="#DF803F"/>
<path d="M237.535 290.338C234.281 289.946 231.076 289.224 227.969 288.181L38.6195 223.082C33.6977 221.39 30.9494 219.345 31.2677 217.611L32.1656 212.72C32.1746 212.671 32.2029 212.627 32.2442 212.599C32.2855 212.57 32.3365 212.559 32.3858 212.568C32.4352 212.577 32.4789 212.606 32.5075 212.647C32.536 212.688 32.5469 212.739 32.5379 212.788C32.2648 214.276 35.0529 216.256 39.6411 217.834L228.99 282.933C235.924 285.317 244.858 286.112 248.907 284.707L317.907 260.75C319.018 260.365 319.663 259.841 319.774 259.236C319.779 259.212 319.788 259.188 319.802 259.168C319.815 259.147 319.833 259.129 319.853 259.115C319.873 259.101 319.896 259.091 319.921 259.085C319.945 259.08 319.97 259.08 319.995 259.084C320.019 259.089 320.042 259.098 320.063 259.111C320.084 259.125 320.102 259.142 320.116 259.163C320.13 259.183 320.14 259.206 320.145 259.231C320.151 259.255 320.151 259.28 320.147 259.304L319.249 264.196C319.11 264.953 318.398 265.559 317.134 265.999L248.134 289.955C245.778 290.772 241.81 290.862 237.535 290.338ZM32.3481 213.819L31.6392 217.68C31.3662 219.167 34.1543 221.147 38.7424 222.725L228.092 287.824C235.025 290.208 243.96 291.004 248.008 289.598L317.008 265.642C318.119 265.256 318.765 264.732 318.876 264.127L319.586 260.258C319.13 260.643 318.601 260.932 318.03 261.107L249.03 285.064C244.914 286.493 235.868 285.697 228.867 283.29L39.5174 218.191C35.6029 216.845 33.0637 215.276 32.3481 213.819Z" fill="black"/>
<path d="M312.735 254.014C319.714 256.414 322.058 259.509 317.968 260.929L248.968 284.885C244.878 286.305 235.907 285.511 228.928 283.112L39.5785 218.012C32.5955 215.612 30.2519 212.515 34.3419 211.096L103.342 187.14C107.432 185.72 116.403 186.515 123.386 188.915L312.735 254.014Z" fill="#ECBA85"/>
<path d="M238.434 285.447C235.18 285.056 231.974 284.333 228.867 283.29L39.5171 218.191C34.9014 216.604 32.1439 214.66 32.1418 212.99C32.1408 212.384 32.5106 211.533 34.2806 210.918L103.28 186.962C107.397 185.533 116.444 186.329 123.448 188.737L312.797 253.836C317.41 255.422 320.166 257.366 320.169 259.037C320.17 259.643 319.8 260.494 318.03 261.109L249.03 285.065C246.675 285.881 242.707 285.971 238.434 285.447ZM113.809 186.947C109.603 186.432 105.711 186.518 103.404 187.318L34.4041 211.275C33.5432 211.574 32.5175 212.114 32.5193 212.989C32.5217 214.469 35.2509 216.325 39.6404 217.834L228.989 282.933C235.923 285.317 244.857 286.113 248.906 284.707L317.906 260.751C318.767 260.452 319.793 259.912 319.791 259.036C319.788 257.557 317.061 255.701 312.673 254.193L123.325 189.094C120.234 188.056 117.046 187.337 113.809 186.947Z" fill="black"/>
<path d="M292.141 251.703L130.175 196.018C128.025 195.28 125.26 195.034 124.001 195.471L87.7805 208.047C86.5213 208.485 87.2459 209.438 89.3958 210.177L251.362 265.862C253.512 266.601 256.271 266.845 257.53 266.408L293.751 253.832C295.01 253.395 294.292 252.442 292.142 251.703" fill="white"/>
<path d="M254.264 266.708C253.256 266.587 252.263 266.363 251.301 266.041L89.3332 210.355C87.8335 209.84 86.9729 209.21 86.9718 208.63C86.9714 208.401 87.1005 208.083 87.7173 207.869L123.938 195.293C125.23 194.845 128.055 195.09 130.236 195.84L292.202 251.525C293.7 252.039 294.558 252.668 294.559 253.248C294.56 253.478 294.43 253.796 293.812 254.011L257.591 266.586C256.85 266.843 255.604 266.872 254.264 266.708ZM127.201 195.539C125.93 195.383 124.756 195.409 124.062 195.649L87.8414 208.225C87.6576 208.289 87.3494 208.427 87.3497 208.629C87.3503 208.95 88.0019 209.498 89.4561 209.998L251.423 265.683C253.533 266.409 256.245 266.654 257.467 266.23L293.688 253.654C293.872 253.59 294.182 253.452 294.181 253.249C294.181 252.928 293.531 252.38 292.08 251.882L130.113 196.197C129.167 195.879 128.192 195.659 127.201 195.539Z" fill="black"/>
<path d="M196.216 248.973L138.544 229.145C136.061 228.291 132.866 228.008 131.409 228.514L110.454 235.789C108.999 236.294 109.834 237.397 112.318 238.251L169.989 258.078C172.473 258.933 175.668 259.216 177.123 258.71L198.078 251.435C199.535 250.929 198.701 249.827 196.216 248.973" fill="white"/>
<path d="M173.351 259.029C172.187 258.889 171.039 258.63 169.927 258.257L112.255 238.429C110.536 237.838 109.55 237.122 109.549 236.462C109.548 236.207 109.694 235.853 110.391 235.61L131.345 228.335C132.834 227.818 136.09 228.101 138.605 228.966L196.276 248.794C197.994 249.385 198.981 250.102 198.982 250.76C198.982 251.015 198.836 251.371 198.138 251.613L177.184 258.889C176.331 259.185 174.895 259.218 173.351 259.029ZM135.115 228.563C133.639 228.383 132.276 228.412 131.47 228.692L110.515 235.968C110.295 236.044 109.926 236.21 109.927 236.463C109.927 236.844 110.685 237.49 112.378 238.072L170.05 257.9C172.497 258.741 175.641 259.025 177.06 258.532L198.015 251.257C198.235 251.18 198.605 251.014 198.605 250.761C198.604 250.379 197.846 249.733 196.154 249.151L138.482 229.324C137.389 228.956 136.26 228.702 135.115 228.563Z" fill="black"/>
</g>
<g clip-path="url(#clip3_373_2204)">
<path d="M369.556 232.054L371.036 235.943L357.35 239.988L355.87 236.099L369.556 232.054Z" fill="#ECBA85"/>
<path d="M357.35 240.176C357.274 240.176 357.202 240.13 357.173 240.055L355.693 236.165C355.684 236.141 355.68 236.115 355.681 236.089C355.683 236.063 355.689 236.038 355.701 236.015C355.712 235.992 355.729 235.971 355.748 235.955C355.768 235.938 355.791 235.925 355.816 235.918L369.503 231.873C369.549 231.86 369.598 231.864 369.641 231.885C369.683 231.906 369.716 231.942 369.733 231.987L371.213 235.876C371.223 235.901 371.227 235.926 371.225 235.952C371.224 235.978 371.217 236.003 371.206 236.026C371.194 236.05 371.178 236.07 371.158 236.087C371.138 236.103 371.115 236.116 371.091 236.123L357.404 240.168C357.386 240.174 357.368 240.176 357.35 240.176ZM356.119 236.221L357.464 239.758L370.788 235.82L369.442 232.284L356.119 236.221Z" fill="black"/>
<path d="M371.253 228.935L372.733 232.825C373.062 233.691 372.807 234.742 372.028 235.411C371.759 235.642 371.428 235.827 371.037 235.943L369.557 232.054C369.948 231.938 370.279 231.752 370.548 231.521C371.327 230.852 371.582 229.801 371.253 228.935Z" fill="#ECBA85"/>
<path d="M371.037 236.131C370.96 236.131 370.889 236.085 370.86 236.01L369.38 232.12C369.371 232.096 369.367 232.07 369.368 232.044C369.369 232.019 369.376 231.993 369.387 231.97C369.399 231.947 369.415 231.927 369.435 231.91C369.455 231.893 369.478 231.881 369.502 231.873C369.854 231.769 370.164 231.602 370.424 231.379C371.126 230.776 371.388 229.822 371.076 229.002L371.076 229.002C371.066 228.979 371.061 228.954 371.061 228.928C371.061 228.903 371.067 228.878 371.077 228.855C371.087 228.832 371.101 228.811 371.12 228.794C371.138 228.776 371.16 228.763 371.183 228.754C371.207 228.745 371.232 228.741 371.257 228.741C371.283 228.742 371.308 228.748 371.33 228.759C371.353 228.77 371.374 228.785 371.391 228.804C371.408 228.823 371.421 228.845 371.429 228.868L372.909 232.758C373.277 233.725 372.973 234.848 372.151 235.553C371.85 235.812 371.493 236.004 371.091 236.124C371.073 236.129 371.055 236.131 371.037 236.131ZM369.803 232.17L371.149 235.708C371.425 235.608 371.681 235.459 371.905 235.268C372.606 234.666 372.868 233.711 372.556 232.891L371.534 230.205C371.422 230.754 371.126 231.273 370.671 231.664C370.414 231.883 370.12 232.055 369.803 232.17Z" fill="black"/>
<path d="M349.329 241.716L350.809 245.605L345.223 258.111L343.743 254.222L349.329 241.716Z" fill="#ECBA85"/>
<path d="M345.223 258.299H345.218C345.181 258.298 345.144 258.286 345.114 258.265C345.083 258.243 345.06 258.213 345.047 258.178L343.567 254.288C343.549 254.242 343.55 254.19 343.57 254.145L349.156 241.639C349.171 241.604 349.195 241.575 349.227 241.555C349.259 241.535 349.297 241.525 349.334 241.527C349.372 241.529 349.408 241.541 349.438 241.562C349.469 241.584 349.492 241.614 349.505 241.649L350.986 245.538C351.003 245.585 351.002 245.636 350.982 245.682L345.396 258.188C345.381 258.221 345.357 258.249 345.326 258.269C345.296 258.289 345.26 258.299 345.223 258.299ZM343.947 254.227L345.237 257.617L350.605 245.6L349.315 242.21L343.947 254.227Z" fill="black"/>
<path d="M343.743 254.222L345.223 258.111C345.073 258.45 344.849 258.751 344.567 258.993C343.339 260.048 341.235 259.78 340.627 258.182L339.147 254.293C339.755 255.891 341.859 256.159 343.087 255.104C343.369 254.862 343.593 254.56 343.743 254.222Z" fill="#ECBA85"/>
<path d="M342.832 259.812C342.6 259.812 342.367 259.784 342.141 259.727C341.348 259.526 340.732 258.988 340.451 258.249L338.971 254.359C338.962 254.336 338.958 254.312 338.959 254.287C338.959 254.262 338.965 254.238 338.975 254.215C338.985 254.193 339 254.173 339.018 254.156C339.036 254.139 339.057 254.125 339.08 254.117C339.104 254.108 339.128 254.104 339.153 254.105C339.178 254.105 339.202 254.111 339.225 254.121C339.248 254.131 339.268 254.146 339.285 254.164C339.302 254.182 339.315 254.203 339.324 254.226C339.564 254.857 340.072 255.3 340.754 255.473C341.523 255.667 342.37 255.471 342.964 254.961C343.225 254.737 343.432 254.458 343.571 254.145C343.586 254.111 343.611 254.082 343.643 254.062C343.674 254.042 343.711 254.032 343.749 254.034C343.786 254.035 343.822 254.047 343.853 254.068C343.883 254.09 343.907 254.12 343.92 254.155L345.4 258.045C345.418 258.091 345.416 258.142 345.396 258.188C345.235 258.552 344.994 258.876 344.691 259.136C344.18 259.575 343.508 259.812 342.832 259.812ZM339.781 255.426L340.804 258.116C341.044 258.747 341.552 259.19 342.234 259.362C343.002 259.556 343.851 259.361 344.444 258.851C344.685 258.644 344.881 258.389 345.019 258.104L343.713 254.672C343.574 254.886 343.405 255.08 343.211 255.246C342.525 255.835 341.548 256.062 340.661 255.837C340.343 255.758 340.044 255.619 339.781 255.426Z" fill="black"/>
<path d="M364.263 257.315L365.744 261.204L350.809 245.605L349.329 241.716L364.263 257.315Z" fill="#ECBA85"/>
<path d="M365.744 261.392C365.719 261.392 365.693 261.387 365.67 261.377C365.646 261.367 365.625 261.352 365.607 261.334L350.673 245.735C350.655 245.717 350.642 245.695 350.633 245.672L349.152 241.782C349.137 241.742 349.136 241.697 349.15 241.656C349.164 241.615 349.191 241.579 349.228 241.556C349.265 241.533 349.309 241.523 349.352 241.529C349.396 241.534 349.436 241.554 349.466 241.586L364.401 257.185C364.418 257.203 364.432 257.224 364.441 257.248L365.921 261.137C365.932 261.166 365.935 261.196 365.932 261.227C365.928 261.257 365.917 261.286 365.899 261.311C365.882 261.336 365.859 261.356 365.832 261.37C365.805 261.385 365.775 261.392 365.744 261.392ZM350.972 245.503L365.237 260.402L364.101 257.417L349.837 242.518L350.972 245.503Z" fill="black"/>
<path d="M371.61 252.966L373.09 256.855C373.663 258.361 373.222 260.154 371.837 261.344C370.031 262.895 367.303 262.833 365.744 261.204L364.264 257.315C365.823 258.943 368.551 259.006 370.357 257.454C371.742 256.265 372.183 254.472 371.61 252.966Z" fill="#ECBA85"/>
<path d="M368.804 262.653C367.613 262.653 366.447 262.211 365.607 261.334C365.59 261.316 365.576 261.294 365.567 261.271L364.087 257.381C364.072 257.341 364.071 257.296 364.084 257.255C364.098 257.213 364.126 257.178 364.163 257.155C364.2 257.132 364.244 257.122 364.287 257.128C364.33 257.133 364.37 257.153 364.4 257.185C365.889 258.739 368.506 258.796 370.234 257.312C371.528 256.2 371.999 254.521 371.434 253.034L371.433 253.032C371.424 253.009 371.419 252.984 371.419 252.959C371.419 252.934 371.424 252.909 371.434 252.885C371.444 252.862 371.459 252.841 371.477 252.824C371.495 252.806 371.517 252.793 371.541 252.784C371.564 252.775 371.59 252.771 371.615 252.772C371.64 252.773 371.665 252.779 371.688 252.79C371.711 252.8 371.731 252.815 371.748 252.834C371.765 252.853 371.778 252.875 371.786 252.899L373.267 256.788C373.89 258.426 373.377 260.27 371.961 261.486C371.053 262.266 369.918 262.653 368.804 262.653ZM365.907 261.101C367.4 262.629 369.996 262.677 371.714 261.201C373.009 260.089 373.48 258.41 372.914 256.922L372.037 254.618C371.953 255.724 371.412 256.796 370.48 257.597C368.809 259.032 366.369 259.136 364.706 257.946L365.907 261.101Z" fill="black"/>
<path d="M325.465 210.566C326.165 209.964 327.195 209.706 328.174 210.118L370.019 227.702C371.7 228.405 371.792 230.452 370.548 231.521C370.279 231.752 369.947 231.937 369.556 232.054L355.869 236.098L370.804 251.697C372.363 253.326 372.163 255.903 370.357 257.454C368.55 259.005 365.823 258.943 364.264 257.314L349.329 241.716L343.743 254.222C343.593 254.56 343.369 254.862 343.087 255.104C341.843 256.172 339.703 255.884 339.125 254.233L324.729 213.076C324.392 212.113 324.764 211.168 325.465 210.566Z" fill="white"/>
<path d="M367.323 258.763C366.133 258.763 364.966 258.321 364.127 257.444L349.387 242.049L343.915 254.298C343.754 254.662 343.513 254.986 343.211 255.246C342.514 255.845 341.523 256.068 340.625 255.828C339.825 255.615 339.213 255.056 338.947 254.295L324.551 213.138C324.213 212.173 324.516 211.133 325.341 210.424C326.161 209.719 327.275 209.536 328.248 209.944L370.092 227.529C370.891 227.862 371.423 228.519 371.552 229.331C371.688 230.186 371.35 231.08 370.671 231.664C370.37 231.922 370.013 232.114 369.61 232.234L356.22 236.191L370.941 251.568C371.702 252.363 372.092 253.405 372.038 254.503C371.98 255.685 371.427 256.784 370.48 257.597C369.602 258.349 368.482 258.763 367.323 258.763ZM349.329 241.528C349.354 241.528 349.38 241.533 349.403 241.543C349.427 241.553 349.448 241.568 349.465 241.586L364.4 257.185C365.888 258.739 368.505 258.796 370.233 257.312C371.101 256.567 371.608 255.563 371.661 254.485C371.71 253.491 371.357 252.547 370.668 251.827L355.733 236.228C355.711 236.205 355.695 236.176 355.687 236.145C355.679 236.114 355.679 236.081 355.687 236.05C355.696 236.019 355.712 235.991 355.734 235.967C355.757 235.944 355.785 235.927 355.816 235.918L369.503 231.874C369.854 231.769 370.164 231.603 370.424 231.379C371.006 230.88 371.295 230.118 371.179 229.39C371.071 228.71 370.621 228.158 369.946 227.876L328.101 210.291C327.261 209.939 326.298 210.098 325.588 210.709C324.883 211.315 324.622 212.198 324.908 213.015L339.303 254.171C339.531 254.822 340.035 255.281 340.723 255.465C341.501 255.673 342.36 255.48 342.964 254.962C343.224 254.738 343.432 254.459 343.571 254.145L349.156 241.639C349.171 241.606 349.195 241.578 349.226 241.558C349.257 241.538 349.292 241.528 349.329 241.528Z" fill="black"/>
</g>
<g clip-path="url(#clip4_373_2204)">
<path d="M346.88 179.762C346.859 179.762 346.838 179.759 346.817 179.751L291.077 160.108C291.054 160.101 291.032 160.088 291.013 160.072C290.994 160.055 290.978 160.035 290.967 160.013C290.956 159.99 290.95 159.966 290.948 159.941C290.947 159.916 290.95 159.891 290.958 159.867C290.967 159.843 290.98 159.822 290.997 159.803C291.013 159.784 291.034 159.769 291.056 159.759C291.079 159.748 291.104 159.742 291.129 159.741C291.154 159.74 291.179 159.744 291.202 159.753L346.942 179.397C346.984 179.411 347.019 179.441 347.041 179.479C347.063 179.517 347.072 179.562 347.064 179.606C347.057 179.649 347.034 179.689 347 179.717C346.967 179.746 346.924 179.762 346.88 179.762Z" fill="black"/>
<path d="M262.471 232.724C262.441 232.724 262.411 232.716 262.384 232.702C262.356 232.687 262.333 232.667 262.316 232.641C262.299 232.616 262.288 232.587 262.285 232.556C262.281 232.526 262.286 232.495 262.297 232.466L319.565 87.4146C319.574 87.3915 319.587 87.3703 319.604 87.3524C319.621 87.3345 319.642 87.3202 319.665 87.3102C319.687 87.3003 319.712 87.2949 319.737 87.2945C319.761 87.294 319.786 87.2985 319.809 87.3076C319.832 87.3167 319.853 87.3303 319.871 87.3476C319.889 87.3649 319.903 87.3855 319.913 87.4084C319.922 87.4312 319.928 87.4557 319.928 87.4805C319.928 87.5053 319.923 87.5299 319.914 87.553L262.646 232.605C262.632 232.64 262.608 232.67 262.577 232.691C262.546 232.712 262.509 232.724 262.471 232.724Z" fill="black"/>
<path d="M285.146 175.294C285.125 175.294 285.104 175.291 285.083 175.283L138.061 123.471C138.015 123.454 137.978 123.419 137.957 123.375C137.937 123.33 137.934 123.279 137.951 123.233C137.967 123.187 138.001 123.148 138.045 123.127C138.089 123.105 138.139 123.101 138.186 123.116L285.208 174.928C285.25 174.943 285.285 174.972 285.308 175.011C285.33 175.049 285.339 175.094 285.331 175.138C285.324 175.181 285.301 175.221 285.267 175.25C285.233 175.278 285.19 175.294 285.146 175.294Z" fill="black"/>
<path d="M159.353 196.307C159.323 196.307 159.292 196.3 159.265 196.285C159.238 196.271 159.215 196.25 159.198 196.225C159.181 196.199 159.17 196.17 159.167 196.14C159.163 196.109 159.167 196.078 159.179 196.05L181.826 138.687C181.835 138.664 181.848 138.643 181.866 138.626C181.883 138.608 181.903 138.594 181.926 138.584C181.948 138.574 181.973 138.569 181.997 138.569C182.022 138.568 182.047 138.573 182.07 138.582C182.092 138.591 182.113 138.604 182.131 138.621C182.149 138.639 182.163 138.659 182.173 138.682C182.183 138.704 182.188 138.729 182.188 138.754C182.189 138.778 182.184 138.803 182.175 138.826L159.528 196.188C159.514 196.223 159.49 196.253 159.459 196.274C159.428 196.296 159.391 196.307 159.353 196.307ZM261.524 195.008C258.516 195.008 255.657 193.792 253.635 189.891C253.422 189.48 253.128 189.228 252.735 189.121C251.331 188.74 248.941 190.246 246.63 191.702C244.372 193.127 242.239 194.472 240.939 194.119C239.267 193.666 238.991 190.323 238.7 186.783C238.445 183.688 238.181 180.489 236.925 179.947C233.474 178.46 228.65 182.091 223.985 185.601C220.139 188.497 216.497 191.237 213.597 191.237C213.491 191.237 213.388 191.234 213.285 191.226C210.917 191.058 209.512 190.364 208.272 189.751C206.141 188.698 204.301 187.788 198.255 189.97C197.418 190.272 196.665 190.266 196.015 189.954C194.493 189.221 193.721 186.959 192.905 184.565C192.15 182.351 191.369 180.062 189.966 178.986C188.526 177.883 186.762 177.463 184.723 177.74C178.522 178.58 171.181 185.61 167.759 190.131C167.744 190.151 167.726 190.167 167.704 190.18C167.683 190.192 167.659 190.2 167.635 190.204C167.611 190.207 167.586 190.206 167.562 190.199C167.538 190.193 167.516 190.182 167.496 190.167C167.476 190.152 167.46 190.134 167.447 190.112C167.435 190.091 167.427 190.067 167.423 190.043C167.42 190.018 167.421 189.993 167.428 189.97C167.434 189.946 167.445 189.923 167.46 189.903C170.919 185.333 178.358 178.222 184.672 177.367C186.814 177.077 188.672 177.521 190.194 178.687C191.687 179.832 192.487 182.176 193.26 184.443C194.051 186.761 194.797 188.95 196.177 189.614C196.741 189.885 197.378 189.886 198.127 189.616C204.323 187.379 206.23 188.322 208.438 189.413C209.706 190.04 211.016 190.688 213.311 190.851C216.12 191.051 219.831 188.257 223.759 185.301C228.51 181.725 233.423 178.028 237.073 179.601C238.537 180.232 238.797 183.399 239.074 186.752C239.342 190.006 239.619 193.372 241.037 193.756C242.178 194.065 244.339 192.702 246.429 191.384C248.808 189.883 251.268 188.332 252.833 188.757C253.326 188.891 253.708 189.214 253.968 189.717C255.652 192.965 258.06 194.574 261.33 194.634C264.176 194.685 267.17 193.584 269.813 192.612C270.885 192.218 271.896 191.846 272.792 191.594C272.839 191.581 272.89 191.588 272.932 191.613C272.975 191.637 273.006 191.678 273.02 191.725C273.033 191.773 273.027 191.823 273.003 191.866C272.98 191.91 272.94 191.942 272.893 191.956C272.012 192.204 271.007 192.574 269.943 192.965C267.398 193.902 264.393 195.007 261.524 195.008Z" fill="black"/>
<path d="M259.209 220.524C259.18 220.524 259.151 220.518 259.124 220.504C257.019 219.434 256.022 217.382 255.22 215.733C254.343 213.93 253.709 212.627 252.143 213.105C245.074 215.262 240.135 215.257 237.043 213.09C233.146 210.358 232.843 204.754 232.551 199.334C232.253 193.802 231.971 188.577 227.611 187.73C222.676 186.772 221.124 184.652 219.754 182.781C218.054 180.461 216.586 178.456 209.05 179.213C206.357 179.483 205.669 176.992 204.874 174.106C203.349 168.568 201.259 160.984 184.135 165.2C184.087 165.212 184.036 165.204 183.993 165.178C183.951 165.152 183.921 165.11 183.909 165.062C183.897 165.014 183.905 164.963 183.93 164.92C183.956 164.878 183.997 164.847 184.045 164.835C191.765 162.934 197.178 163.216 200.595 165.696C203.535 167.83 204.478 171.255 205.236 174.006C206.017 176.84 206.633 179.078 209.013 178.838C216.761 178.06 218.289 180.145 220.057 182.559C221.451 184.462 222.892 186.43 227.682 187.36C232.331 188.263 232.62 193.631 232.927 199.314C233.214 204.644 233.511 210.155 237.259 212.782C240.249 214.878 245.082 214.866 252.033 212.745C253.907 212.174 254.672 213.747 255.558 215.569C256.376 217.25 257.302 219.155 259.294 220.168C259.332 220.188 259.362 220.219 259.379 220.257C259.397 220.296 259.401 220.339 259.391 220.38C259.382 220.421 259.358 220.458 259.325 220.484C259.292 220.51 259.251 220.524 259.209 220.524Z" fill="black"/>
<path d="M343.842 154.056L326.777 148.042C322.697 146.604 317.961 149.06 316.198 153.525C314.434 157.995 316.31 162.781 320.39 164.219L337.455 170.233C341.531 171.669 346.267 169.213 348.032 164.744C349.795 160.279 347.918 155.492 343.842 154.056Z" fill="#FAECDA"/>
<path d="M339.861 170.83C339.03 170.83 338.199 170.695 337.392 170.41L320.328 164.397C318.449 163.734 316.945 162.342 316.095 160.475C315.128 158.35 315.101 155.791 316.023 153.456C317.82 148.904 322.672 146.396 326.84 147.865L343.904 153.878C345.782 154.54 347.284 155.932 348.133 157.798C349.101 159.924 349.128 162.48 348.207 164.813C346.757 168.486 343.321 170.83 339.861 170.83ZM324.364 147.82C321.054 147.82 317.764 150.071 316.373 153.594C315.488 155.835 315.512 158.286 316.438 160.319C317.245 162.091 318.671 163.414 320.453 164.042L337.517 170.055C341.494 171.457 346.133 169.043 347.858 164.675C348.741 162.436 348.717 159.987 347.792 157.954C346.985 156.182 345.56 154.861 343.779 154.233L326.715 148.219C325.96 147.954 325.165 147.819 324.364 147.82Z" fill="black"/>
<path d="M335.693 159.789L334.413 154.892C334.366 154.588 334.099 154.342 333.79 154.344C333.66 154.122 329.156 157.35 328.962 157.417C328.462 157.73 328.446 158.568 329.018 158.767C329.212 158.836 329.441 158.81 329.643 158.677L332.229 156.949L329.866 162.935C329.709 163.333 329.877 163.762 330.24 163.89C330.603 164.018 331.024 163.796 331.181 163.398L333.547 157.407L334.304 160.32C334.363 160.544 334.518 160.706 334.713 160.774C335.271 160.977 335.855 160.338 335.693 159.789Z" fill="black"/>
<path d="M330.451 164.114C330.359 164.114 330.267 164.1 330.177 164.068C329.966 163.993 329.797 163.837 329.701 163.627C329.595 163.395 329.591 163.117 329.69 162.866L331.833 157.44L329.747 158.834C329.5 158.995 329.212 159.036 328.955 158.945C328.649 158.839 328.444 158.572 328.406 158.232C328.363 157.847 328.546 157.455 328.862 157.258C328.874 157.25 328.886 157.244 328.9 157.239C328.968 157.205 329.491 156.847 330.045 156.467C332.998 154.445 333.6 154.103 333.815 154.151C333.822 154.152 333.83 154.154 333.837 154.157C334.213 154.178 334.533 154.469 334.596 154.853L335.873 159.739C335.971 160.076 335.852 160.465 335.57 160.731C335.304 160.982 334.96 161.065 334.648 160.951C334.387 160.859 334.195 160.646 334.122 160.368L333.509 158.012L331.355 163.468C331.2 163.863 330.827 164.114 330.451 164.114ZM332.229 156.761C332.259 156.761 332.289 156.769 332.317 156.783C332.344 156.797 332.367 156.818 332.384 156.844C332.401 156.869 332.412 156.898 332.415 156.929C332.419 156.959 332.414 156.99 332.403 157.019L330.04 163.005C329.978 163.161 329.979 163.331 330.043 163.471C330.067 163.527 330.103 163.577 330.148 163.619C330.192 163.66 330.245 163.692 330.302 163.713C330.569 163.807 330.885 163.635 331.006 163.33L333.372 157.338C333.386 157.301 333.412 157.27 333.445 157.249C333.479 157.227 333.518 157.217 333.558 157.22C333.597 157.222 333.635 157.237 333.666 157.262C333.696 157.287 333.718 157.322 333.728 157.36L334.486 160.273C334.527 160.429 334.632 160.547 334.775 160.597C334.952 160.662 335.152 160.609 335.313 160.458C335.494 160.287 335.572 160.046 335.512 159.843C335.512 159.841 335.511 159.839 335.511 159.837L334.231 154.94C334.229 154.934 334.228 154.928 334.227 154.921C334.194 154.703 334.003 154.533 333.793 154.533H333.79C333.775 154.533 333.761 154.531 333.748 154.528C333.362 154.652 331.274 156.082 330.257 156.779C329.424 157.35 329.155 157.532 329.053 157.583C328.862 157.707 328.752 157.95 328.779 158.191C328.792 158.305 328.848 158.51 329.079 158.59C329.226 158.642 329.394 158.616 329.54 158.521L332.124 156.793C332.155 156.772 332.191 156.761 332.229 156.761Z" fill="black"/>
<path d="M319.882 122.621L312.922 120.168L307.474 133.965L314.434 136.418L319.882 122.621Z" fill="#DF803F"/>
<path d="M314.434 136.606C314.413 136.606 314.392 136.603 314.372 136.595L307.412 134.143C307.388 134.134 307.366 134.121 307.347 134.104C307.329 134.087 307.314 134.066 307.303 134.043C307.293 134.02 307.287 133.995 307.286 133.97C307.286 133.945 307.29 133.919 307.299 133.896L312.746 120.099C312.764 120.053 312.799 120.017 312.843 119.996C312.887 119.976 312.938 119.974 312.984 119.99L319.944 122.443C319.968 122.451 319.99 122.465 320.008 122.482C320.027 122.499 320.042 122.519 320.052 122.542C320.063 122.565 320.069 122.59 320.069 122.616C320.07 122.641 320.065 122.666 320.056 122.69L314.609 136.487C314.595 136.522 314.571 136.552 314.54 136.574C314.508 136.595 314.472 136.606 314.434 136.606ZM307.72 133.853L314.326 136.18L319.635 122.733L313.03 120.406L307.72 133.853Z" fill="black"/>
<path d="M335.422 128.097L328.462 125.644L323.014 139.442L329.974 141.894L335.422 128.097Z" fill="#DF803F"/>
<path d="M329.974 142.083C329.953 142.083 329.932 142.079 329.912 142.072L322.952 139.619C322.928 139.611 322.906 139.598 322.887 139.58C322.869 139.563 322.854 139.543 322.843 139.52C322.833 139.497 322.827 139.472 322.826 139.446C322.826 139.421 322.83 139.396 322.839 139.372L328.287 125.575C328.304 125.53 328.339 125.493 328.383 125.473C328.427 125.452 328.478 125.45 328.524 125.466L335.484 127.919C335.507 127.928 335.529 127.941 335.548 127.958C335.567 127.975 335.582 127.996 335.592 128.019C335.603 128.042 335.608 128.067 335.609 128.092C335.61 128.117 335.605 128.142 335.596 128.166L330.149 141.963C330.135 141.998 330.111 142.029 330.08 142.05C330.048 142.071 330.012 142.083 329.974 142.083ZM323.26 139.329L329.866 141.657L335.175 128.21L328.57 125.882L323.26 139.329Z" fill="black"/>
<path d="M345.226 131.552L338.266 129.099L332.818 142.897L339.779 145.349L345.226 131.552Z" fill="#DF803F"/>
<path d="M339.778 145.538C339.757 145.538 339.736 145.534 339.716 145.527L332.756 143.074C332.732 143.066 332.71 143.052 332.691 143.035C332.673 143.018 332.658 142.998 332.647 142.975C332.637 142.952 332.631 142.927 332.63 142.901C332.63 142.876 332.634 142.851 332.643 142.827L338.091 129.03C338.109 128.985 338.143 128.948 338.187 128.928C338.232 128.908 338.282 128.905 338.328 128.922L345.288 131.374C345.312 131.383 345.334 131.396 345.352 131.413C345.371 131.43 345.386 131.451 345.396 131.474C345.407 131.497 345.413 131.522 345.413 131.547C345.414 131.572 345.409 131.598 345.4 131.621L339.953 145.418C339.939 145.454 339.915 145.484 339.884 145.505C339.853 145.526 339.816 145.538 339.778 145.538ZM333.065 142.784L339.67 145.112L344.979 131.665L338.374 129.337L333.065 142.784Z" fill="black"/>
<path d="M321.422 135.268L318.53 134.249L317.278 137.42L320.17 138.439L321.422 135.268Z" fill="#DF803F"/>
<path d="M320.17 138.628C320.149 138.628 320.128 138.624 320.108 138.617L317.216 137.598C317.192 137.589 317.171 137.576 317.152 137.559C317.133 137.542 317.118 137.521 317.108 137.498C317.097 137.475 317.092 137.45 317.091 137.425C317.09 137.4 317.095 137.374 317.104 137.351L318.356 134.18C318.374 134.134 318.408 134.098 318.453 134.077C318.497 134.057 318.547 134.055 318.593 134.071L321.485 135.09C321.509 135.098 321.53 135.112 321.549 135.129C321.568 135.146 321.583 135.166 321.593 135.19C321.604 135.213 321.61 135.237 321.61 135.263C321.611 135.288 321.606 135.313 321.597 135.337L320.345 138.508C320.331 138.544 320.307 138.574 320.276 138.595C320.245 138.616 320.208 138.628 320.17 138.628ZM317.525 137.308L320.062 138.202L321.176 135.38L318.639 134.486L317.525 137.308Z" fill="black"/>
<path d="M315.536 225.751L298.472 219.737C294.391 218.299 289.655 220.756 287.892 225.22C286.128 229.69 288.004 234.476 292.085 235.914L309.149 241.928C313.226 243.364 317.962 240.908 319.726 236.439C321.489 231.974 319.613 227.188 315.536 225.751Z" fill="#DF803F"/>
<path d="M311.555 242.524C310.725 242.524 309.893 242.389 309.087 242.105L292.022 236.092C290.143 235.429 288.64 234.036 287.79 232.17C286.822 230.044 286.795 227.486 287.717 225.151C289.514 220.599 294.367 218.091 298.534 219.56L315.598 225.573C317.476 226.235 318.978 227.627 319.827 229.493C320.795 231.618 320.822 234.175 319.901 236.508C318.451 240.18 315.015 242.524 311.555 242.524ZM296.058 219.516C292.748 219.516 289.458 221.766 288.067 225.289C287.182 227.53 287.206 229.981 288.132 232.014C288.939 233.786 290.365 235.108 292.147 235.736L309.211 241.75C313.188 243.152 317.827 240.738 319.551 236.37C320.435 234.131 320.411 231.682 319.485 229.649C318.678 227.877 317.254 226.555 315.473 225.928L298.409 219.915C297.653 219.649 296.858 219.514 296.058 219.516Z" fill="black"/>
<path d="M307.255 231.497C307.06 231.141 306.625 231.061 306.283 231.293L303.693 233.022L306.058 227.029C306.216 226.631 306.05 226.208 305.686 226.08C305.323 225.952 304.9 226.167 304.743 226.565L302.379 232.553L301.622 229.65C301.562 229.421 301.406 229.259 301.212 229.19C300.653 228.988 300.072 229.625 300.235 230.176L301.523 235.13C301.632 235.585 302.183 235.764 302.554 235.493L306.962 232.547C307.31 232.315 307.442 231.844 307.255 231.497Z" fill="black"/>
<path d="M302.162 235.809C302.059 235.809 301.956 235.791 301.859 235.755C301.594 235.657 301.405 235.445 301.341 235.174L300.053 230.224C299.955 229.892 300.072 229.5 300.355 229.234C300.62 228.983 300.964 228.901 301.276 229.014C301.537 229.106 301.729 229.321 301.804 229.602L302.416 231.949L304.569 226.497C304.761 226.008 305.292 225.741 305.749 225.903C305.853 225.939 305.95 225.997 306.031 226.073C306.113 226.148 306.179 226.24 306.224 226.341C306.329 226.572 306.332 226.848 306.233 227.099L304.088 232.532L306.179 231.136C306.395 230.991 306.655 230.94 306.893 230.997C307.118 231.052 307.305 231.197 307.42 231.407L307.421 231.408C307.652 231.837 307.493 232.419 307.066 232.704L303.348 235.19C302.965 235.445 302.77 235.576 302.659 235.637L302.665 235.646C302.519 235.752 302.343 235.809 302.162 235.809ZM300.996 229.341C300.863 229.341 300.727 229.399 300.613 229.507C300.432 229.677 300.355 229.919 300.415 230.123L301.705 235.083C301.741 235.233 301.844 235.348 301.99 235.402C302.065 235.43 302.145 235.439 302.225 235.429C302.304 235.418 302.379 235.388 302.444 235.341L306.858 232.391C307.123 232.214 307.229 231.846 307.09 231.587C307.026 231.47 306.927 231.393 306.804 231.363C306.669 231.33 306.517 231.361 306.388 231.449L303.797 233.178C303.764 233.201 303.724 233.212 303.684 233.21C303.644 233.208 303.606 233.193 303.575 233.168C303.543 233.143 303.521 233.108 303.511 233.07C303.501 233.031 303.503 232.99 303.518 232.953L305.884 226.96C305.946 226.804 305.945 226.635 305.882 226.497C305.858 226.442 305.822 226.392 305.778 226.351C305.733 226.31 305.681 226.278 305.624 226.258C305.354 226.162 305.037 226.332 304.918 226.635L302.554 232.622C302.54 232.659 302.514 232.691 302.48 232.712C302.447 232.734 302.407 232.744 302.368 232.741C302.328 232.739 302.29 232.724 302.26 232.698C302.229 232.673 302.207 232.639 302.197 232.601L301.44 229.698C301.398 229.539 301.292 229.419 301.149 229.368C301.1 229.35 301.048 229.341 300.996 229.341Z" fill="black"/>
<path d="M291.576 194.316L284.616 191.863L279.168 205.66L286.128 208.113L291.576 194.316Z" fill="#FAECDA"/>
<path d="M286.129 208.301C286.107 208.301 286.086 208.298 286.066 208.29L279.106 205.838C279.083 205.829 279.061 205.816 279.042 205.799C279.023 205.782 279.008 205.761 278.998 205.738C278.987 205.715 278.982 205.69 278.981 205.665C278.98 205.64 278.985 205.614 278.994 205.591L284.441 191.794C284.459 191.748 284.494 191.712 284.538 191.692C284.582 191.671 284.633 191.669 284.678 191.685L291.638 194.138C291.662 194.147 291.684 194.16 291.703 194.177C291.721 194.194 291.736 194.215 291.747 194.238C291.757 194.261 291.763 194.286 291.764 194.311C291.764 194.336 291.76 194.361 291.751 194.385L286.303 208.182C286.29 208.217 286.266 208.247 286.234 208.269C286.203 208.29 286.166 208.301 286.129 208.301ZM279.415 205.547L286.02 207.875L291.329 194.428L284.724 192.1L279.415 205.547Z" fill="black"/>
<path d="M307.115 199.792L300.155 197.339L294.708 211.136L301.668 213.589L307.115 199.792Z" fill="#FAECDA"/>
<path d="M301.668 213.777C301.647 213.777 301.626 213.774 301.606 213.767L294.646 211.314C294.622 211.305 294.6 211.292 294.582 211.275C294.563 211.258 294.548 211.237 294.537 211.214C294.527 211.191 294.521 211.166 294.521 211.141C294.52 211.116 294.524 211.091 294.534 211.067L299.981 197.27C299.999 197.225 300.033 197.188 300.078 197.168C300.122 197.148 300.172 197.145 300.218 197.162L307.178 199.614C307.202 199.623 307.224 199.636 307.242 199.653C307.261 199.67 307.276 199.691 307.286 199.714C307.297 199.737 307.303 199.762 307.303 199.787C307.304 199.812 307.3 199.838 307.29 199.861L301.843 213.658C301.829 213.693 301.805 213.724 301.774 213.745C301.743 213.766 301.706 213.777 301.668 213.777ZM294.955 211.024L301.56 213.352L306.869 199.905L300.264 197.577L294.955 211.024Z" fill="black"/>
<path d="M316.92 203.247L309.96 200.794L304.512 214.591L311.472 217.044L316.92 203.247Z" fill="#FAECDA"/>
<path d="M311.472 217.232C311.451 217.232 311.43 217.229 311.41 217.222L304.45 214.769C304.426 214.76 304.404 214.747 304.386 214.73C304.367 214.713 304.352 214.692 304.342 214.669C304.331 214.646 304.325 214.621 304.325 214.596C304.324 214.571 304.329 214.546 304.338 214.522L309.785 200.725C309.803 200.68 309.838 200.643 309.882 200.623C309.926 200.603 309.976 200.6 310.022 200.617L316.982 203.069C317.006 203.078 317.028 203.091 317.046 203.108C317.065 203.125 317.08 203.146 317.091 203.169C317.101 203.192 317.107 203.217 317.108 203.242C317.108 203.267 317.104 203.293 317.095 203.316L311.647 217.113C311.633 217.148 311.609 217.179 311.578 217.2C311.547 217.221 311.51 217.232 311.472 217.232ZM304.759 214.479L311.364 216.807L316.673 203.36L310.068 201.032L304.759 214.479Z" fill="black"/>
<path d="M293.116 206.963L290.225 205.944L288.973 209.115L291.864 210.134L293.116 206.963Z" fill="#FAECDA"/>
<path d="M291.864 210.322C291.843 210.322 291.822 210.319 291.802 210.312L288.91 209.292C288.886 209.284 288.864 209.271 288.846 209.254C288.827 209.237 288.812 209.216 288.802 209.193C288.791 209.17 288.785 209.145 288.785 209.12C288.784 209.094 288.788 209.069 288.798 209.046L290.05 205.874C290.068 205.829 290.102 205.793 290.147 205.772C290.191 205.752 290.241 205.75 290.287 205.766L293.179 206.785C293.202 206.793 293.224 206.807 293.243 206.824C293.262 206.841 293.277 206.861 293.287 206.885C293.298 206.908 293.303 206.932 293.304 206.958C293.305 206.983 293.3 207.008 293.291 207.032L292.039 210.203C292.025 210.238 292.001 210.268 291.97 210.29C291.939 210.311 291.902 210.322 291.864 210.322ZM289.219 209.002L291.756 209.896L292.87 207.075L290.333 206.181L289.219 209.002Z" fill="black"/>
<path d="M169.618 144.654C169.306 144.544 168.953 144.582 168.647 144.765L164.41 147.224C163.808 147.574 163.543 148.348 163.817 148.952C163.943 149.234 164.166 149.428 164.428 149.521C164.727 149.626 165.079 149.598 165.4 149.411L168.436 147.647L169.504 150.858C169.617 151.197 169.863 151.434 170.163 151.54C170.426 151.633 170.73 151.623 171.022 151.491C171.649 151.204 171.981 150.454 171.773 149.819L170.275 145.338C170.166 145.009 169.926 144.762 169.618 144.654Z" fill="#FAECDA"/>
<path d="M170.524 151.79C170.38 151.79 170.236 151.766 170.1 151.718C169.734 151.589 169.452 151.297 169.326 150.917L168.331 147.926L165.494 149.574C165.139 149.781 164.727 149.826 164.365 149.699C164.044 149.585 163.788 149.348 163.646 149.03C163.333 148.341 163.633 147.458 164.315 147.061L168.553 144.602C168.902 144.393 169.314 144.347 169.68 144.476C170.045 144.605 170.327 144.898 170.453 145.28L171.95 149.759C172.188 150.485 171.807 151.339 171.1 151.663C170.919 151.746 170.723 151.789 170.524 151.79ZM168.436 147.459C168.475 147.459 168.514 147.472 168.546 147.495C168.578 147.518 168.602 147.551 168.614 147.588L169.682 150.798C169.773 151.071 169.965 151.271 170.225 151.363C170.451 151.442 170.707 151.427 170.945 151.32C171.482 151.074 171.774 150.426 171.594 149.878L170.096 145.398C170.007 145.127 169.81 144.921 169.556 144.831C169.295 144.739 168.999 144.774 168.743 144.927L164.504 147.387C163.984 147.689 163.753 148.356 163.988 148.874C164.088 149.098 164.267 149.265 164.49 149.343C164.748 149.434 165.046 149.4 165.305 149.249L168.342 147.485C168.37 147.468 168.403 147.459 168.436 147.459Z" fill="black"/>
<path d="M165.881 162.391C165.581 162.286 165.23 162.315 164.911 162.502L164.907 162.5L161.877 164.261L160.803 161.054C160.69 160.714 160.444 160.475 160.144 160.37C159.882 160.277 159.579 160.287 159.289 160.422C158.663 160.709 158.328 161.453 158.54 162.09L160.036 166.574C160.143 166.898 160.382 167.145 160.694 167.255C161.003 167.364 161.355 167.325 161.664 167.148L165.903 164.685C166.501 164.333 166.768 163.565 166.494 162.961C166.366 162.679 166.143 162.484 165.881 162.391Z" fill="#DF803F"/>
<path d="M161.052 167.504C160.909 167.505 160.767 167.481 160.632 167.433C160.264 167.304 159.982 167.012 159.857 166.634L158.361 162.15C158.121 161.428 158.501 160.576 159.21 160.251C159.533 160.101 159.887 160.08 160.206 160.193C160.571 160.321 160.854 160.614 160.981 160.995L161.981 163.983L164.812 162.338C164.823 162.332 164.833 162.327 164.845 162.323C165.191 162.13 165.59 162.09 165.942 162.214C166.263 162.327 166.519 162.565 166.664 162.883C166.975 163.568 166.676 164.449 165.997 164.847L161.757 167.311C161.543 167.436 161.3 167.503 161.052 167.504ZM159.786 160.498C159.646 160.498 159.504 160.53 159.367 160.593C158.827 160.84 158.536 161.485 158.718 162.031L160.214 166.515C160.302 166.783 160.5 166.988 160.756 167.078C161.013 167.169 161.309 167.135 161.57 166.985L165.808 164.522C166.325 164.219 166.556 163.553 166.322 163.039C166.22 162.815 166.041 162.648 165.817 162.569C165.559 162.478 165.263 162.513 165.006 162.664C164.995 162.67 164.985 162.675 164.973 162.679L161.97 164.424C161.946 164.438 161.919 164.447 161.891 164.449C161.864 164.451 161.836 164.447 161.81 164.437C161.784 164.427 161.76 164.412 161.741 164.392C161.721 164.372 161.707 164.348 161.698 164.321L160.624 161.114C160.534 160.844 160.336 160.637 160.081 160.547C159.986 160.514 159.887 160.498 159.786 160.498Z" fill="black"/>
<path d="M156.41 178.106C156.098 177.996 155.745 178.035 155.439 178.218L151.202 180.677C150.6 181.027 150.335 181.801 150.609 182.405C150.736 182.685 150.959 182.88 151.222 182.973C151.521 183.078 151.872 183.05 152.192 182.864L155.228 181.1L156.296 184.311C156.409 184.649 156.655 184.887 156.954 184.993C157.218 185.085 157.522 185.076 157.814 184.944C158.44 184.657 158.772 183.907 158.564 183.272L157.068 178.787C156.958 178.462 156.718 178.215 156.41 178.106Z" fill="#FAECDA"/>
<path d="M157.317 185.242C157.172 185.243 157.029 185.218 156.892 185.17C156.527 185.042 156.244 184.75 156.118 184.37L155.123 181.379L152.286 183.027C151.932 183.233 151.522 183.277 151.16 183.15C150.839 183.037 150.583 182.8 150.438 182.483C150.125 181.794 150.426 180.911 151.108 180.514L155.345 178.055C155.694 177.846 156.106 177.8 156.473 177.929C156.836 178.057 157.118 178.348 157.246 178.727L158.743 183.212C158.981 183.938 158.599 184.792 157.893 185.116C157.712 185.198 157.515 185.241 157.317 185.242ZM155.228 180.912C155.267 180.912 155.306 180.925 155.338 180.948C155.37 180.971 155.394 181.003 155.406 181.041L156.474 184.251C156.565 184.524 156.758 184.724 157.017 184.815C157.244 184.895 157.499 184.88 157.737 184.773C158.274 184.527 158.566 183.879 158.386 183.33L156.89 178.847C156.799 178.579 156.602 178.373 156.348 178.284C156.087 178.192 155.791 178.227 155.536 178.379L151.296 180.84C150.777 181.142 150.545 181.809 150.781 182.327C150.882 182.55 151.061 182.716 151.285 182.795C151.543 182.886 151.839 182.852 152.098 182.702L155.134 180.937C155.163 180.921 155.195 180.912 155.228 180.912Z" fill="black"/>
<path d="M159.686 142.193L140.892 135.57L139.293 139.62L158.088 146.243L159.686 142.193Z" fill="#FAECDA"/>
<path d="M158.087 146.431C158.066 146.431 158.045 146.428 158.025 146.421L139.23 139.797C139.207 139.789 139.185 139.776 139.166 139.759C139.147 139.742 139.132 139.721 139.122 139.698C139.111 139.675 139.106 139.65 139.105 139.625C139.104 139.599 139.109 139.574 139.118 139.551L140.717 135.501C140.735 135.456 140.769 135.419 140.813 135.399C140.858 135.379 140.908 135.376 140.954 135.393L159.748 142.016C159.772 142.024 159.794 142.038 159.813 142.055C159.831 142.072 159.846 142.092 159.857 142.115C159.867 142.138 159.873 142.163 159.874 142.189C159.874 142.214 159.87 142.239 159.861 142.263L158.262 146.312C158.248 146.347 158.224 146.377 158.193 146.399C158.162 146.42 158.125 146.431 158.087 146.431ZM139.539 139.507L157.979 146.005L159.439 142.306L141 135.808L139.539 139.507Z" fill="black"/>
<path d="M153.082 158.92L134.288 152.297L132.689 156.346L151.483 162.97L153.082 158.92Z" fill="#DF803F"/>
<path d="M151.483 163.158C151.462 163.158 151.441 163.154 151.421 163.147L132.626 156.524C132.603 156.515 132.581 156.502 132.562 156.485C132.543 156.468 132.528 156.447 132.518 156.424C132.507 156.401 132.502 156.376 132.501 156.351C132.5 156.326 132.505 156.301 132.514 156.277L134.113 152.227C134.131 152.182 134.165 152.145 134.21 152.125C134.254 152.105 134.304 152.103 134.35 152.119L153.145 158.742C153.168 158.751 153.19 158.764 153.209 158.781C153.228 158.798 153.243 158.819 153.253 158.842C153.264 158.865 153.269 158.89 153.27 158.915C153.271 158.94 153.266 158.965 153.257 158.989L151.658 163.039C151.644 163.074 151.62 163.104 151.589 163.125C151.558 163.147 151.521 163.158 151.483 163.158ZM132.935 156.234L151.375 162.732L152.836 159.033L134.396 152.534L132.935 156.234Z" fill="black"/>
<path d="M146.479 175.646L127.684 169.023L126.085 173.073L144.88 179.696L146.479 175.646Z" fill="#FAECDA"/>
<path d="M144.88 179.884C144.858 179.884 144.837 179.881 144.817 179.874L126.023 173.25C125.999 173.242 125.977 173.229 125.959 173.211C125.94 173.194 125.925 173.174 125.914 173.151C125.904 173.128 125.898 173.103 125.898 173.077C125.897 173.052 125.901 173.027 125.911 173.003L127.509 168.954C127.527 168.908 127.562 168.872 127.606 168.851C127.65 168.831 127.701 168.829 127.747 168.845L146.541 175.468C146.565 175.477 146.587 175.49 146.605 175.507C146.624 175.524 146.639 175.545 146.65 175.568C146.66 175.591 146.666 175.616 146.666 175.641C146.667 175.666 146.663 175.692 146.653 175.715L145.054 179.765C145.041 179.8 145.017 179.83 144.985 179.852C144.954 179.873 144.917 179.884 144.88 179.884ZM126.332 172.96L144.771 179.458L146.232 175.759L127.792 169.261L126.332 172.96Z" fill="black"/>
<path d="M169.507 75.7598L163.735 73.7267L159.294 84.9809L165.066 87.014L169.507 75.7598Z" fill="#DF803F"/>
<path d="M165.065 87.2022C165.044 87.2022 165.023 87.1986 165.003 87.1915L159.231 85.1584C159.207 85.15 159.185 85.1369 159.167 85.1198C159.148 85.1028 159.133 85.0821 159.122 85.059C159.112 85.036 159.106 85.011 159.106 84.9857C159.105 84.9604 159.109 84.9352 159.119 84.9116L163.56 73.6574C163.578 73.6121 163.613 73.5755 163.657 73.5553C163.701 73.5351 163.751 73.5328 163.797 73.549L169.569 75.5821C169.593 75.5904 169.615 75.6036 169.633 75.6206C169.652 75.6377 169.667 75.6584 169.678 75.6814C169.688 75.7045 169.694 75.7294 169.695 75.7547C169.695 75.7801 169.691 75.8053 169.681 75.8288L165.24 87.083C165.226 87.1182 165.202 87.1483 165.171 87.1696C165.14 87.1908 165.103 87.2022 165.065 87.2022ZM159.54 84.8683L164.957 86.7764L169.26 75.8725L163.843 73.9644L159.54 84.8683Z" fill="black"/>
<path d="M177.215 81.3923L171.439 79.3579L165.97 93.2172L171.745 95.2516L177.215 81.3923Z" fill="#FAECDA"/>
<path d="M171.745 95.4398C171.724 95.4398 171.703 95.4362 171.683 95.4291L165.907 93.3947C165.884 93.3863 165.862 93.3732 165.843 93.3561C165.824 93.339 165.809 93.3184 165.799 93.2953C165.788 93.2723 165.782 93.2473 165.782 93.222C165.781 93.1967 165.786 93.1715 165.795 93.1479L171.264 79.2886C171.282 79.2434 171.317 79.2068 171.361 79.1865C171.405 79.1663 171.456 79.1641 171.502 79.1802L177.277 81.2146C177.301 81.223 177.323 81.2361 177.342 81.2532C177.36 81.2702 177.375 81.2909 177.386 81.314C177.396 81.337 177.402 81.362 177.403 81.3873C177.403 81.4126 177.399 81.4378 177.39 81.4614L171.92 95.3207C171.906 95.3557 171.882 95.3859 171.851 95.4071C171.82 95.4283 171.783 95.4397 171.745 95.4398ZM166.216 93.1044L171.637 95.0139L176.968 81.505L171.547 79.5956L166.216 93.1044Z" fill="black"/>
<path d="M190.788 72.1618L185.013 70.1274L179.294 84.6186L185.069 86.6528L190.788 72.1618Z" fill="#FAECDA"/>
<path d="M185.069 86.8411C185.048 86.8411 185.027 86.8375 185.007 86.8304L179.232 84.796C179.208 84.7876 179.186 84.7745 179.167 84.7574C179.148 84.7403 179.133 84.7197 179.123 84.6966C179.112 84.6736 179.107 84.6486 179.106 84.6233C179.105 84.598 179.11 84.5728 179.119 84.5492L184.838 70.0583C184.856 70.013 184.89 69.9764 184.935 69.9562C184.979 69.936 185.029 69.9337 185.075 69.9499L190.85 71.9843C190.874 71.9926 190.896 72.0058 190.915 72.0228C190.934 72.0399 190.949 72.0606 190.959 72.0836C190.97 72.1067 190.975 72.1316 190.976 72.1569C190.977 72.1823 190.972 72.2075 190.963 72.231L185.244 86.722C185.23 86.7571 185.206 86.7873 185.175 86.8085C185.144 86.8298 185.107 86.8411 185.069 86.8411ZM179.541 84.5059L184.961 86.4153L190.542 72.2747L185.121 70.3653L179.541 84.5059Z" fill="black"/>
<path d="M202.99 66.3962L197.218 64.3632L192.973 75.1199L198.745 77.153L202.99 66.3962Z" fill="#FAECDA"/>
<path d="M198.745 77.3411C198.723 77.3411 198.702 77.3375 198.682 77.3304L192.911 75.2973C192.887 75.2889 192.865 75.2758 192.846 75.2587C192.828 75.2417 192.813 75.221 192.802 75.1979C192.792 75.1749 192.786 75.15 192.785 75.1246C192.785 75.0993 192.789 75.0741 192.798 75.0505L197.044 64.2938C197.061 64.2485 197.096 64.2119 197.14 64.1917C197.184 64.1715 197.235 64.1692 197.281 64.1854L203.052 66.2184C203.076 66.2268 203.098 66.2399 203.117 66.257C203.135 66.2741 203.151 66.2947 203.161 66.3178C203.172 66.3408 203.177 66.3658 203.178 66.3911C203.179 66.4164 203.174 66.4416 203.165 66.4652L198.92 77.222C198.906 77.2571 198.882 77.2872 198.85 77.3085C198.819 77.3297 198.782 77.3411 198.745 77.3411ZM193.22 75.0071L198.637 76.9152L202.744 66.5087L197.327 64.6006L193.22 75.0071Z" fill="black"/>
<path d="M213.619 64.6255L207.843 62.5911L200.545 81.0843L206.321 83.1187L213.619 64.6255Z" fill="#DF803F"/>
<path d="M206.321 83.3069C206.3 83.307 206.278 83.3033 206.258 83.2962L200.483 81.2618C200.459 81.2535 200.437 81.2403 200.418 81.2233C200.399 81.2062 200.384 81.1855 200.374 81.1625C200.363 81.1394 200.358 81.1145 200.357 81.0892C200.356 81.0638 200.361 81.0386 200.37 81.0151L207.668 62.5218C207.686 62.4765 207.721 62.4399 207.765 62.4197C207.809 62.3995 207.86 62.3972 207.905 62.4134L213.681 64.4478C213.705 64.4561 213.727 64.4693 213.746 64.4863C213.764 64.5034 213.779 64.5241 213.79 64.5471C213.8 64.5702 213.806 64.5951 213.807 64.6204C213.808 64.6458 213.803 64.671 213.794 64.6945L206.496 83.1878C206.482 83.2229 206.458 83.2531 206.426 83.2743C206.395 83.2956 206.358 83.3069 206.321 83.3069ZM200.792 80.9716L206.213 82.881L213.372 64.738L207.952 62.8288L200.792 80.9716Z" fill="black"/>
<path d="M221.643 69.4575L215.868 67.4231L211.194 79.266L216.969 81.3004L221.643 69.4575Z" fill="#FAECDA"/>
<path d="M216.969 81.4887C216.948 81.4887 216.927 81.4851 216.906 81.478L211.131 79.4438C211.107 79.4354 211.085 79.4223 211.067 79.4052C211.048 79.3881 211.033 79.3675 211.022 79.3444C211.012 79.3214 211.006 79.2964 211.005 79.2711C211.005 79.2458 211.009 79.2206 211.019 79.197L215.692 67.3541C215.71 67.3088 215.745 67.2722 215.789 67.252C215.833 67.2318 215.884 67.2295 215.929 67.2457L221.705 69.2801C221.729 69.2884 221.751 69.3015 221.769 69.3186C221.788 69.3357 221.803 69.3564 221.814 69.3794C221.824 69.4024 221.83 69.4274 221.83 69.4527C221.831 69.478 221.827 69.5032 221.817 69.5268L217.144 81.3698C217.13 81.4048 217.106 81.4349 217.074 81.4561C217.043 81.4773 217.007 81.4887 216.969 81.4887ZM211.44 79.1535L216.861 81.063L221.396 69.5703L215.975 67.6609L211.44 79.1535Z" fill="black"/>
<path d="M227.186 80.5624L221.415 78.5293L216.039 92.1505L221.81 94.1836L227.186 80.5624Z" fill="#DF803F"/>
<path d="M221.811 94.3718C221.79 94.3718 221.768 94.3682 221.748 94.361L215.977 92.3281C215.953 92.3198 215.931 92.3067 215.912 92.2896C215.894 92.2725 215.879 92.2518 215.868 92.2288C215.858 92.2057 215.852 92.1808 215.851 92.1555C215.85 92.1302 215.855 92.105 215.864 92.0814L221.24 78.4602C221.277 78.3661 221.382 78.3185 221.477 78.3518L227.249 80.3847C227.272 80.393 227.294 80.4062 227.313 80.4232C227.332 80.4403 227.347 80.461 227.357 80.484C227.368 80.5071 227.374 80.532 227.374 80.5573C227.375 80.5827 227.37 80.6079 227.361 80.6314L221.986 94.2526C221.972 94.2877 221.948 94.3178 221.916 94.3391C221.885 94.3603 221.848 94.3717 221.811 94.3718ZM216.286 92.0379L221.703 93.9458L226.94 80.6749L221.523 78.767L216.286 92.0379Z" fill="black"/>
<path d="M231.288 95.3336L225.512 93.2992L217.886 112.623L223.662 114.658L231.288 95.3336Z" fill="#DF803F"/>
<path d="M223.662 114.846C223.64 114.846 223.619 114.842 223.599 114.835L217.823 112.801C217.8 112.792 217.778 112.779 217.759 112.762C217.74 112.745 217.725 112.724 217.715 112.701C217.704 112.678 217.698 112.653 217.698 112.628C217.697 112.603 217.702 112.577 217.711 112.554L225.337 93.2299C225.374 93.1358 225.479 93.088 225.574 93.1215L231.35 95.1559C231.374 95.1643 231.396 95.1774 231.414 95.1945C231.433 95.2115 231.448 95.2322 231.459 95.2553C231.469 95.2783 231.475 95.3033 231.476 95.3286C231.476 95.3539 231.472 95.3791 231.462 95.4027L223.836 114.727C223.823 114.762 223.798 114.792 223.767 114.813C223.736 114.834 223.699 114.846 223.662 114.846ZM218.132 112.511L223.553 114.42L231.041 95.4463L225.62 93.5369L218.132 112.511Z" fill="black"/>
<path d="M233.481 114.938L227.706 112.903L222.865 125.17L228.64 127.205L233.481 114.938Z" fill="#DF803F"/>
<path d="M228.641 127.393C228.619 127.393 228.598 127.389 228.578 127.382L222.803 125.348C222.779 125.339 222.757 125.326 222.738 125.309C222.719 125.292 222.704 125.271 222.694 125.248C222.683 125.225 222.677 125.2 222.677 125.175C222.676 125.15 222.681 125.124 222.69 125.101L227.531 112.834C227.549 112.789 227.584 112.752 227.628 112.732C227.672 112.712 227.722 112.709 227.768 112.726L233.544 114.76C233.568 114.768 233.59 114.782 233.608 114.799C233.627 114.816 233.642 114.836 233.653 114.859C233.663 114.882 233.669 114.907 233.67 114.933C233.67 114.958 233.666 114.983 233.657 115.007L228.815 127.274C228.802 127.309 228.778 127.339 228.746 127.36C228.715 127.381 228.678 127.393 228.641 127.393ZM223.111 125.058L228.532 126.967L233.235 115.051L227.814 113.141L223.111 125.058Z" fill="black"/>
<path d="M244.326 112.612L238.554 110.579L235.556 118.177L241.327 120.21L244.326 112.612Z" fill="#FAECDA"/>
<path d="M241.327 120.398C241.306 120.398 241.285 120.394 241.265 120.387L235.493 118.354C235.47 118.346 235.448 118.333 235.429 118.316C235.41 118.298 235.395 118.278 235.385 118.255C235.374 118.232 235.368 118.207 235.368 118.181C235.367 118.156 235.372 118.131 235.381 118.107L238.379 110.509C238.397 110.464 238.432 110.427 238.476 110.407C238.52 110.387 238.571 110.385 238.617 110.401L244.388 112.434C244.412 112.442 244.434 112.455 244.453 112.473C244.471 112.49 244.486 112.51 244.497 112.533C244.507 112.556 244.513 112.581 244.514 112.607C244.514 112.632 244.51 112.657 244.501 112.681L241.502 120.279C241.488 120.314 241.464 120.344 241.433 120.365C241.402 120.386 241.365 120.398 241.327 120.398ZM235.802 118.064L241.219 119.972L244.079 112.725L238.662 110.817L235.802 118.064Z" fill="black"/>
<path d="M259.657 98.9247L253.882 96.8903L246.256 116.214L252.031 118.249L259.657 98.9247Z" fill="#FAECDA"/>
<path d="M252.031 118.437C252.01 118.437 251.989 118.433 251.969 118.426L246.194 116.392C246.17 116.383 246.148 116.37 246.129 116.353C246.11 116.336 246.095 116.315 246.085 116.292C246.074 116.269 246.069 116.244 246.068 116.219C246.067 116.194 246.072 116.169 246.081 116.145L253.707 96.821C253.725 96.7757 253.76 96.7391 253.804 96.7189C253.848 96.6987 253.898 96.6964 253.944 96.7126L259.72 98.747C259.744 98.7553 259.766 98.7684 259.784 98.7855C259.803 98.8026 259.818 98.8233 259.829 98.8463C259.839 98.8694 259.845 98.8943 259.845 98.9196C259.846 98.945 259.842 98.9702 259.832 98.9937L252.206 118.318C252.192 118.353 252.168 118.383 252.137 118.404C252.106 118.425 252.069 118.437 252.031 118.437ZM246.503 116.102L251.923 118.011L259.411 99.0376L253.99 97.1281L246.503 116.102Z" fill="black"/>
<path d="M265.188 110.064L259.416 108.031L253.453 123.141L259.225 125.174L265.188 110.064Z" fill="#DF803F"/>
<path d="M259.225 125.362C259.204 125.362 259.183 125.358 259.162 125.351L253.391 123.318C253.367 123.31 253.345 123.297 253.326 123.28C253.308 123.263 253.293 123.242 253.282 123.219C253.272 123.196 253.266 123.171 253.265 123.146C253.265 123.12 253.269 123.095 253.278 123.072L259.241 107.962C259.259 107.916 259.294 107.88 259.338 107.86C259.382 107.839 259.432 107.837 259.478 107.853L265.25 109.886C265.274 109.895 265.296 109.908 265.314 109.925C265.333 109.942 265.348 109.963 265.359 109.986C265.369 110.009 265.375 110.034 265.376 110.059C265.376 110.084 265.372 110.109 265.362 110.133L259.4 125.243C259.386 125.278 259.362 125.308 259.331 125.329C259.299 125.351 259.263 125.362 259.225 125.362ZM253.7 123.028L259.117 124.936L264.941 110.177L259.525 108.269L253.7 123.028Z" fill="black"/>
<path d="M270.094 122.797L264.318 120.763L256.692 140.087L262.468 142.121L270.094 122.797Z" fill="#DF803F"/>
<path d="M262.468 142.31C262.446 142.31 262.425 142.306 262.405 142.299L256.63 140.264C256.606 140.256 256.584 140.243 256.565 140.226C256.546 140.209 256.531 140.188 256.521 140.165C256.51 140.142 256.505 140.117 256.504 140.092C256.503 140.066 256.508 140.041 256.517 140.018L264.143 120.694C264.161 120.648 264.196 120.612 264.24 120.592C264.284 120.571 264.334 120.569 264.38 120.585L270.156 122.62C270.18 122.628 270.202 122.641 270.221 122.658C270.239 122.675 270.254 122.696 270.265 122.719C270.275 122.742 270.281 122.767 270.282 122.792C270.282 122.818 270.278 122.843 270.269 122.866L262.643 142.19C262.629 142.226 262.604 142.256 262.573 142.277C262.542 142.298 262.505 142.31 262.468 142.31ZM256.939 139.974L262.359 141.884L269.847 122.91L264.426 121L256.939 139.974Z" fill="black"/>
<path d="M275.795 133.514L270.019 131.48L264.449 145.594L270.225 147.628L275.795 133.514Z" fill="#DF803F"/>
<path d="M270.224 147.817C270.203 147.817 270.182 147.813 270.162 147.806L264.386 145.771C264.363 145.763 264.341 145.75 264.322 145.733C264.303 145.716 264.288 145.695 264.278 145.672C264.267 145.649 264.261 145.624 264.261 145.599C264.26 145.573 264.265 145.548 264.274 145.525L269.844 131.41C269.862 131.365 269.897 131.328 269.941 131.308C269.985 131.288 270.035 131.286 270.081 131.302L275.857 133.336C275.88 133.345 275.902 133.358 275.921 133.375C275.94 133.392 275.955 133.413 275.965 133.436C275.976 133.459 275.982 133.484 275.982 133.509C275.983 133.534 275.978 133.56 275.969 133.583L270.399 147.698C270.385 147.733 270.361 147.763 270.33 147.784C270.299 147.805 270.262 147.817 270.224 147.817ZM264.695 145.481L270.116 147.391L275.548 133.627L270.127 131.717L264.695 145.481Z" fill="black"/>
<path d="M279.901 148.262L274.129 146.229L268.894 159.496L274.665 161.529L279.901 148.262Z" fill="#FAECDA"/>
<path d="M274.665 161.717C274.644 161.717 274.622 161.713 274.602 161.706L268.831 159.673C268.807 159.665 268.785 159.652 268.766 159.635C268.748 159.618 268.733 159.597 268.722 159.574C268.712 159.551 268.706 159.526 268.705 159.5C268.704 159.475 268.709 159.45 268.718 159.426L273.954 146.16C273.991 146.066 274.096 146.018 274.191 146.052L279.963 148.084C279.986 148.093 280.008 148.106 280.027 148.123C280.046 148.14 280.061 148.161 280.071 148.184C280.082 148.207 280.088 148.232 280.088 148.257C280.089 148.282 280.084 148.308 280.075 148.331L274.84 161.598C274.826 161.633 274.802 161.663 274.77 161.684C274.739 161.705 274.702 161.717 274.665 161.717ZM269.14 159.383L274.557 161.291L279.654 148.375L274.237 146.467L269.14 159.383Z" fill="black"/>
<path d="M293.402 139.213L287.626 137.179L280 156.503L285.776 158.537L293.402 139.213Z" fill="#FAECDA"/>
<path d="M285.776 158.726C285.754 158.726 285.733 158.722 285.713 158.715L279.938 156.681C279.914 156.672 279.892 156.659 279.873 156.642C279.855 156.625 279.84 156.604 279.829 156.581C279.818 156.558 279.813 156.533 279.812 156.508C279.811 156.483 279.816 156.457 279.825 156.434L287.451 137.11C287.469 137.065 287.504 137.028 287.548 137.008C287.592 136.987 287.643 136.985 287.688 137.001L293.464 139.036C293.488 139.044 293.51 139.057 293.528 139.074C293.547 139.091 293.562 139.112 293.573 139.135C293.583 139.158 293.589 139.183 293.59 139.208C293.59 139.234 293.586 139.259 293.576 139.283L285.95 158.607C285.937 158.642 285.913 158.672 285.881 158.693C285.85 158.714 285.813 158.726 285.776 158.726ZM280.247 156.39L285.667 158.3L293.155 139.326L287.735 137.417L280.247 156.39Z" fill="black"/>
</g>
<defs>
<clipPath id="clip0_373_2204">
<rect width="109.15" height="96.3088" fill="white" transform="matrix(-0.988617 0.150457 0.150457 0.988617 395.505 4.93701)"/>
</clipPath>
<clipPath id="clip1_373_2204">
<rect width="114.009" height="154.962" fill="white" transform="translate(27.812 62.7216) rotate(-18.0599)"/>
</clipPath>
<clipPath id="clip2_373_2204">
<rect width="336.126" height="249.882" fill="white" transform="translate(55.916 16.3475) rotate(6.98298)"/>
</clipPath>
<clipPath id="clip3_373_2204">
<rect width="49.1088" height="52.9264" fill="white" transform="translate(324.415 209.729)"/>
</clipPath>
<clipPath id="clip4_373_2204">
<rect width="222.985" height="180.123" fill="white" transform="translate(125.897 62.4028)"/>
</clipPath>
</defs>
</svg>
